<svg width="100" height="100" viewBox="0 0 100 100" fill="none" xmlns="http://www.w3.org/2000/svg">
<circle cx="50" cy="50" r="50" fill="url(#paint0_radial_3603_3080)" style="mix-blend-mode:hard-light"/>
<g clip-path="url(#clip0_3603_3080)">
<path d="M33.125 60.5C32.4062 60.5 31.8594 60.18 31.4844 59.54C31.1094 58.8988 31.125 58.2656 31.5312 57.6406L46.9062 33.0312C47.2812 32.4375 47.8125 32.1406 48.5 32.1406C49.1875 32.1406 49.7187 32.4375 50.0937 33.0312L65.4687 57.6406C65.875 58.2656 65.8906 58.8988 65.5156 59.54C65.1406 60.18 64.5937 60.5 63.875 60.5H33.125ZM36.5 56.75H60.5L48.5 37.5312L36.5 56.75Z" fill="white"/>
</g>
<defs>
<radialGradient id="paint0_radial_3603_3080" cx="0" cy="0" r="1" gradientUnits="userSpaceOnUse" gradientTransform="translate(11.6667 85) rotate(-44.6726) scale(103.121)">
<stop stop-color="#264FAD"/>
<stop offset="1" stop-color="#5F0A87"/>
</radialGradient>
<clipPath id="clip0_3603_3080">
<rect width="35" height="29" fill="white" transform="translate(31 32)"/>
</clipPath>
</defs>
</svg>
