<svg width="100" height="101" viewBox="0 0 100 101" fill="none" xmlns="http://www.w3.org/2000/svg">
<circle cx="50" cy="50.667" r="50" fill="url(#paint0_radial_3603_3097)" style="mix-blend-mode:hard-light"/>
<path d="M42.125 58.792L34 50.667L42.125 42.542C42.318 42.3514 42.4713 42.1243 42.5759 41.8739C42.6804 41.6236 42.7343 41.355 42.7343 41.0837C42.7343 40.8124 42.6804 40.5438 42.5759 40.2935C42.4713 40.0431 42.318 39.816 42.125 39.6254C41.9344 39.4324 41.7073 39.2791 41.457 39.1745C41.2066 39.07 40.938 39.0161 40.6667 39.0161C40.3954 39.0161 40.1268 39.07 39.8765 39.1745C39.6261 39.2791 39.3991 39.4324 39.2084 39.6254L29.6459 49.1879C29.4527 49.3806 29.2995 49.6095 29.195 49.8616C29.0904 50.1136 29.0366 50.3838 29.0366 50.6566C29.0366 50.9295 29.0904 51.1996 29.195 51.4517C29.2995 51.7037 29.4527 51.9326 29.6459 52.1254L39.2084 61.7087C40.0209 62.5212 41.3125 62.5212 42.125 61.7087C42.318 61.518 42.4713 61.2909 42.5759 61.0406C42.6804 60.7903 42.7343 60.5217 42.7343 60.2504C42.7343 59.9791 42.6804 59.7105 42.5759 59.4601C42.4713 59.2098 42.318 58.9827 42.125 58.792ZM55.875 58.792L64 50.667L55.875 42.542C55.682 42.3514 55.5288 42.1243 55.4242 41.8739C55.3197 41.6236 55.2658 41.355 55.2658 41.0837C55.2658 40.8124 55.3197 40.5438 55.4242 40.2935C55.5288 40.0431 55.682 39.816 55.875 39.6254C56.0657 39.4324 56.2928 39.2791 56.5431 39.1745C56.7935 39.07 57.0621 39.0161 57.3334 39.0161C57.6047 39.0161 57.8733 39.07 58.1236 39.1745C58.374 39.2791 58.601 39.4324 58.7917 39.6254L68.3542 49.1879C69.1667 50.0004 69.1667 51.3129 68.3542 52.1254L58.7917 61.7087C58.601 61.9017 58.374 62.0549 58.1236 62.1595C57.8733 62.2641 57.6047 62.3179 57.3334 62.3179C57.0621 62.3179 56.7935 62.2641 56.5431 62.1595C56.2928 62.0549 56.0657 61.9017 55.875 61.7087C55.682 61.518 55.5288 61.2909 55.4242 61.0406C55.3197 60.7903 55.2658 60.5217 55.2658 60.2504C55.2658 59.9791 55.3197 59.7105 55.4242 59.4601C55.5288 59.2098 55.682 58.9827 55.875 58.792Z" fill="white"/>
<defs>
<radialGradient id="paint0_radial_3603_3097" cx="0" cy="0" r="1" gradientUnits="userSpaceOnUse" gradientTransform="translate(11.6667 85.667) rotate(-44.6726) scale(103.121)">
<stop stop-color="#264FAD"/>
<stop offset="1" stop-color="#5F0A87"/>
</radialGradient>
</defs>
</svg>
