<svg width="100" height="101" viewBox="0 0 100 101" fill="none" xmlns="http://www.w3.org/2000/svg">
<circle cx="50" cy="50.667" r="50" fill="url(#paint0_radial_3603_3105)" style="mix-blend-mode:hard-light"/>
<g clip-path="url(#clip0_3603_3105)">
<path fill-rule="evenodd" clip-rule="evenodd" d="M62.5001 46.5004C63.0104 46.5005 63.5029 46.6878 63.8842 47.0269C64.2655 47.366 64.5092 47.8332 64.5689 48.34L64.5834 48.5837V57.2712C65.9587 57.7565 67.1211 58.7072 67.8695 59.9589C68.6179 61.2107 68.9051 62.6846 68.6815 64.1258C68.4578 65.5669 67.7375 66.8845 66.645 67.8506C65.5525 68.8167 64.1566 69.3705 62.6989 69.4162C61.2413 69.4618 59.8135 68.9964 58.6627 68.1005C57.5119 67.2047 56.7106 65.9347 56.3972 64.5104C56.0839 63.086 56.2783 61.597 56.9469 60.3009C57.6155 59.0048 58.7162 57.9832 60.0584 57.4129L60.4168 57.2712V48.5837C60.4168 48.0312 60.6363 47.5013 61.027 47.1106C61.4177 46.7199 61.9476 46.5004 62.5001 46.5004ZM37.5001 31.9171C38.9418 31.9166 40.3393 32.4146 41.4558 33.3266C42.5724 34.2386 43.3393 35.5086 43.6267 36.9213C43.914 38.3341 43.7041 39.8027 43.0326 41.0784C42.361 42.3542 41.2691 43.3585 39.9418 43.9212L39.5834 44.0629V57.2754C40.9585 57.7613 42.1205 58.7125 42.8683 59.9646C43.6161 61.2167 43.9026 62.6908 43.6783 64.1318C43.4541 65.5729 42.7331 66.8902 41.6401 67.8558C40.5472 68.8214 39.1511 69.3745 37.6934 69.4195C36.2357 69.4644 34.8082 68.9984 33.6578 68.102C32.5074 67.2056 31.7066 65.9352 31.3939 64.5108C31.0813 63.0863 31.2764 61.5973 31.9456 60.3015C32.6148 59.0058 33.7159 57.9847 35.0584 57.415L35.4168 57.2712V44.0608C34.0283 43.5678 32.8586 42.6003 32.114 41.329C31.3694 40.0576 31.0977 38.5642 31.3468 37.112C31.5959 35.6599 32.3499 34.3424 33.4757 33.3919C34.6015 32.4415 36.0267 31.9191 37.5001 31.9171ZM62.5001 61.0837C61.9476 61.0837 61.4177 61.3032 61.027 61.6939C60.6363 62.0846 60.4168 62.6145 60.4168 63.1671C60.4168 63.7196 60.6363 64.2495 61.027 64.6402C61.4177 65.0309 61.9476 65.2504 62.5001 65.2504C63.0526 65.2504 63.5825 65.0309 63.9732 64.6402C64.3639 64.2495 64.5834 63.7196 64.5834 63.1671C64.5834 62.6145 64.3639 62.0846 63.9732 61.6939C63.5825 61.3032 63.0526 61.0837 62.5001 61.0837ZM37.5001 61.0837C36.9476 61.0837 36.4177 61.3032 36.027 61.6939C35.6363 62.0846 35.4168 62.6145 35.4168 63.1671C35.4168 63.7196 35.6363 64.2495 36.027 64.6402C36.4177 65.0309 36.9476 65.2504 37.5001 65.2504C38.0526 65.2504 38.5825 65.0309 38.9732 64.6402C39.3639 64.2495 39.5834 63.7196 39.5834 63.1671C39.5834 62.6145 39.3639 62.0846 38.9732 61.6939C38.5825 61.3032 38.0526 61.0837 37.5001 61.0837ZM56.6084 32.2754C56.9669 31.9164 57.4441 31.7005 57.9504 31.6683C58.4567 31.6361 58.9574 31.7897 59.3584 32.1004L59.5543 32.2754L62.5001 35.2212L65.4459 32.2754C65.82 31.8978 66.3242 31.6774 66.8554 31.6594C67.3866 31.6414 67.9046 31.8271 68.3034 32.1785C68.7022 32.5299 68.9516 33.0204 69.0005 33.5496C69.0495 34.0789 68.8943 34.6068 68.5668 35.0254L68.3918 35.2212L65.4459 38.1671L68.3918 41.1129C68.7694 41.487 68.9898 41.9912 69.0078 42.5224C69.0258 43.0536 68.8401 43.5716 68.4887 43.9704C68.1373 44.3691 67.6468 44.6185 67.1176 44.6675C66.5883 44.7165 66.0604 44.5613 65.6418 44.2337L65.4459 44.0587L62.5001 41.1129L59.5543 44.0587C59.1802 44.4364 58.676 44.6567 58.1448 44.6748C57.6136 44.6928 57.0956 44.5071 56.6968 44.1557C56.298 43.8043 56.0486 43.3138 55.9997 42.7845C55.9507 42.2553 56.1059 41.7273 56.4334 41.3087L56.6084 41.1129L59.5543 38.1671L56.6084 35.2212C56.2179 34.8306 55.9985 34.3008 55.9985 33.7483C55.9985 33.1959 56.2179 32.6661 56.6084 32.2754ZM37.5001 36.0837C36.9476 36.0837 36.4177 36.3032 36.027 36.6939C35.6363 37.0846 35.4168 37.6145 35.4168 38.1671C35.4168 38.7196 35.6363 39.2495 36.027 39.6402C36.4177 40.0309 36.9476 40.2504 37.5001 40.2504C38.0526 40.2504 38.5825 40.0309 38.9732 39.6402C39.3639 39.2495 39.5834 38.7196 39.5834 38.1671C39.5834 37.6145 39.3639 37.0846 38.9732 36.6939C38.5825 36.3032 38.0526 36.0837 37.5001 36.0837Z" fill="white"/>
</g>
<defs>
<radialGradient id="paint0_radial_3603_3105" cx="0" cy="0" r="1" gradientUnits="userSpaceOnUse" gradientTransform="translate(11.6667 85.667) rotate(-44.6726) scale(103.121)">
<stop stop-color="#264FAD"/>
<stop offset="1" stop-color="#5F0A87"/>
</radialGradient>
<clipPath id="clip0_3603_3105">
<rect width="50" height="50" fill="white" transform="translate(25 25.667)"/>
</clipPath>
</defs>
</svg>
