<svg width="100" height="100" viewBox="0 0 100 100" fill="none" xmlns="http://www.w3.org/2000/svg">
<circle cx="50" cy="50" r="50" fill="url(#paint0_radial_3603_3088)" style="mix-blend-mode:hard-light"/>
<path d="M47.7562 51.0938C49.2 48.4875 51.975 46.95 53.5875 44.6437C55.2937 42.225 54.3375 37.7063 49.5 37.7063C46.3312 37.7063 44.775 40.1063 44.1187 42.0938L39.2625 40.05C40.5937 36.0562 44.2125 32.625 49.4812 32.625C53.8875 32.625 56.9062 34.6312 58.4437 37.1437C59.7562 39.3 60.525 43.3313 58.5 46.3313C56.25 49.65 54.0937 50.6625 52.9312 52.8C52.4625 53.6625 52.275 54.225 52.275 57H46.8562C46.8375 55.5375 46.6125 53.1562 47.7562 51.0938ZM53.25 64.5C53.25 66.5625 51.5625 68.25 49.5 68.25C47.4375 68.25 45.75 66.5625 45.75 64.5C45.75 62.4375 47.4375 60.75 49.5 60.75C51.5625 60.75 53.25 62.4375 53.25 64.5Z" fill="white"/>
<defs>
<radialGradient id="paint0_radial_3603_3088" cx="0" cy="0" r="1" gradientUnits="userSpaceOnUse" gradientTransform="translate(11.6667 85) rotate(-44.6726) scale(103.121)">
<stop stop-color="#264FAD"/>
<stop offset="1" stop-color="#5F0A87"/>
</radialGradient>
</defs>
</svg>
