<svg width="248" height="65" viewBox="0 0 248 65" fill="none" xmlns="http://www.w3.org/2000/svg">
<path d="M88.77 24.238V46H83.469V37.041H75.223V46H69.922V24.238H75.223V32.763H83.469V24.238H88.77ZM93.0928 37.32C93.0928 35.5427 93.4235 33.9823 94.0848 32.639C94.7668 31.2957 95.6865 30.2623 96.8438 29.539C98.0011 28.8157 99.2928 28.454 100.719 28.454C101.938 28.454 103.002 28.702 103.912 29.198C104.842 29.694 105.555 30.345 106.051 31.151V28.702H111.352V46H106.051V43.551C105.534 44.357 104.811 45.008 103.881 45.504C102.971 46 101.907 46.248 100.688 46.248C99.2825 46.248 98.0011 45.8863 96.8438 45.163C95.6865 44.419 94.7668 43.3753 94.0848 42.032C93.4235 40.668 93.0928 39.0973 93.0928 37.32ZM106.051 37.351C106.051 36.0283 105.679 34.9847 104.935 34.22C104.211 33.4553 103.323 33.073 102.269 33.073C101.215 33.073 100.316 33.4553 99.5718 34.22C98.8485 34.964 98.4868 35.9973 98.4868 37.32C98.4868 38.6427 98.8485 39.6967 99.5718 40.482C100.316 41.2467 101.215 41.629 102.269 41.629C103.323 41.629 104.211 41.2467 104.935 40.482C105.679 39.7173 106.051 38.6737 106.051 37.351ZM127.308 46L122.038 38.746V46H116.737V23.06H122.038V35.739L127.277 28.702H133.818L126.626 37.382L133.88 46H127.308ZM140.116 26.904C139.186 26.904 138.421 26.6353 137.822 26.098C137.243 25.54 136.954 24.858 136.954 24.052C136.954 23.2253 137.243 22.5433 137.822 22.006C138.421 21.448 139.186 21.169 140.116 21.169C141.025 21.169 141.769 21.448 142.348 22.006C142.947 22.5433 143.247 23.2253 143.247 24.052C143.247 24.858 142.947 25.54 142.348 26.098C141.769 26.6353 141.025 26.904 140.116 26.904ZM142.751 28.702V46H137.45V28.702H142.751ZM170.215 28.516C172.364 28.516 174.069 29.167 175.33 30.469C176.611 31.771 177.252 33.5793 177.252 35.894V46H171.982V36.607C171.982 35.491 171.682 34.6333 171.083 34.034C170.504 33.414 169.698 33.104 168.665 33.104C167.631 33.104 166.815 33.414 166.216 34.034C165.637 34.6333 165.348 35.491 165.348 36.607V46H160.078V36.607C160.078 35.491 159.778 34.6333 159.179 34.034C158.6 33.414 157.794 33.104 156.761 33.104C155.727 33.104 154.911 33.414 154.312 34.034C153.733 34.6333 153.444 35.491 153.444 36.607V46H148.143V28.702H153.444V30.872C153.981 30.1487 154.684 29.5803 155.552 29.167C156.42 28.733 157.401 28.516 158.497 28.516C159.799 28.516 160.956 28.795 161.969 29.353C163.002 29.911 163.808 30.7067 164.387 31.74C164.986 30.7893 165.802 30.0143 166.836 29.415C167.869 28.8157 168.995 28.516 170.215 28.516Z" fill="#424242"/>
<path d="M201.357 24.238V46H196.056V37.041H187.81V46H182.509V24.238H187.81V32.763H196.056V24.238H201.357ZM223.815 28.702V46H218.514V43.644C217.976 44.4087 217.243 45.0287 216.313 45.504C215.403 45.9587 214.391 46.186 213.275 46.186C211.952 46.186 210.784 45.8967 209.772 45.318C208.759 44.7187 207.974 43.861 207.416 42.745C206.858 41.629 206.579 40.3167 206.579 38.808V28.702H211.849V38.095C211.849 39.2523 212.148 40.1513 212.748 40.792C213.347 41.4327 214.153 41.753 215.166 41.753C216.199 41.753 217.015 41.4327 217.615 40.792C218.214 40.1513 218.514 39.2523 218.514 38.095V28.702H223.815ZM234.473 31.151C234.969 30.345 235.682 29.694 236.612 29.198C237.542 28.702 238.607 28.454 239.805 28.454C241.231 28.454 242.523 28.8157 243.68 29.539C244.838 30.2623 245.747 31.2957 246.408 32.639C247.09 33.9823 247.431 35.5427 247.431 37.32C247.431 39.0973 247.09 40.668 246.408 42.032C245.747 43.3753 244.838 44.419 243.68 45.163C242.523 45.8863 241.231 46.248 239.805 46.248C238.586 46.248 237.522 46.0103 236.612 45.535C235.703 45.039 234.99 44.388 234.473 43.582V46H229.172V23.06H234.473V31.151ZM242.037 37.32C242.037 35.9973 241.665 34.964 240.921 34.22C240.198 33.4553 239.299 33.073 238.224 33.073C237.17 33.073 236.271 33.4553 235.527 34.22C234.804 34.9847 234.442 36.0283 234.442 37.351C234.442 38.6737 234.804 39.7173 235.527 40.482C236.271 41.2467 237.17 41.629 238.224 41.629C239.278 41.629 240.177 41.2467 240.921 40.482C241.665 39.6967 242.037 38.6427 242.037 37.32Z" fill="#FF7272"/>
<g clip-path="url(#clip0_1_632)">
<path d="M36.7855 34.3864C35.9324 35.2265 35.9149 36.6005 36.7549 37.4537C37.5949 38.307 38.96 38.3245 39.8219 37.4843C39.8831 37.4231 39.9444 37.3531 39.9969 37.2918C40.7406 40.8273 41.0644 41.2999 41.5325 41.2999C41.585 41.2999 41.6419 41.2911 41.7032 41.2824C42.3507 41.1905 42.3638 41.1905 42.8713 32.6405C42.8801 32.4655 42.8932 32.2861 42.902 32.1111C42.9107 32.2248 42.9238 32.343 42.9326 32.448C43.5495 38.832 43.5495 38.832 44.0089 39.0071C44.5995 39.239 44.9014 38.7052 45.5445 37.5369C45.7152 37.2349 45.9689 36.7667 46.1308 36.5392C46.8833 36.6223 48.944 36.7842 49.5609 35.9835C49.6834 35.8304 49.8453 35.5766 50.0203 35.2834C50.2522 34.9202 50.7335 34.1545 51.0353 33.8613C51.1753 34.032 51.3503 34.3164 51.4904 34.5395C52.0766 35.4759 52.7373 36.5305 53.6517 36.5523H53.6823L58.4512 36.5611H59.9956V37.2437C59.9956 39.996 57.7643 42.2188 55.0211 42.2188H47.229V50.0249C47.229 52.7684 44.9976 55 42.2457 55H38.7543C36.0111 55 33.7798 52.7684 33.7798 50.0249V42.2232H25.9745C23.2313 42.2232 21 40.0003 21 37.2481V33.7563C21 31.004 23.2313 28.7812 25.9745 28.7812H33.7798V20.9751C33.7798 18.2316 36.0111 16 38.7543 16H42.2457C44.9976 16 47.229 18.2316 47.229 20.9751V28.7812H55.0255C57.7687 28.7812 60 31.004 60 33.7563V35.4103H58.4556L53.7129 35.4015C53.7129 35.4015 53.7042 35.4015 53.6954 35.4015C53.3935 35.4015 52.7285 34.3339 52.4748 33.927C52.1423 33.4019 51.8841 32.9906 51.5822 32.7718C51.3985 32.6318 51.1578 32.588 50.9303 32.6318C50.3003 32.7543 49.7622 33.555 49.0534 34.6708C48.9003 34.9246 48.7603 35.1478 48.6684 35.2615C48.384 35.4978 46.7521 35.4759 46.0477 35.3622C45.492 35.279 45.2164 35.7604 44.5558 36.9549C44.4158 35.7472 44.2407 33.9182 44.0964 32.343C43.4663 25.8145 43.4663 25.8145 42.9107 25.7052C42.7444 25.6745 42.5694 25.7139 42.4382 25.8189C42.1319 26.0508 42.1144 26.064 41.725 32.5705C41.6157 34.3558 41.4932 36.5217 41.3707 38.1451C41.2481 37.6156 41.1038 36.9593 40.9419 36.1454L40.92 36.0623C40.8588 35.756 40.6838 35.5766 40.4256 35.4759C40.3469 35.0909 40.1587 34.7233 39.8569 34.4214C39.0168 33.5638 37.6474 33.5507 36.7855 34.3864Z" fill="url(#paint0_linear_1_632)"/>
</g>
<defs>
<linearGradient id="paint0_linear_1_632" x1="24.1655" y1="42.8223" x2="59.7579" y2="26.877" gradientUnits="userSpaceOnUse">
<stop offset="4.1024e-07" stop-color="#7175B7"/>
<stop offset="0.0934" stop-color="#6E71B3"/>
<stop offset="0.6815" stop-color="#5B5CA0"/>
<stop offset="1" stop-color="#54549A"/>
</linearGradient>
<clipPath id="clip0_1_632">
<rect width="59" height="59" fill="white" transform="translate(5)"/>
</clipPath>
</defs>
</svg>
