<svg width="100" height="101" viewBox="0 0 100 101" fill="none" xmlns="http://www.w3.org/2000/svg">
<circle cx="50" cy="50.667" r="50" fill="url(#paint0_radial_3603_3115)" style="mix-blend-mode:hard-light"/>
<path d="M40.4297 58.4795H43.3594C43.5742 58.4795 43.75 58.3037 43.75 58.0889V43.2451C43.75 43.0303 43.5742 42.8545 43.3594 42.8545H40.4297C40.2148 42.8545 40.0391 43.0303 40.0391 43.2451V58.0889C40.0391 58.3037 40.2148 58.4795 40.4297 58.4795ZM50 56.0381C51.0791 56.0381 51.9531 55.1641 51.9531 54.1338C51.9531 53.0059 51.0791 52.1318 50 52.1318C48.9209 52.1318 48.0469 53.0059 48.0469 54.1338C48.0469 55.1641 48.9209 56.0381 50 56.0381ZM50 49.2021C51.0791 49.2021 51.9531 48.3281 51.9531 47.2979C51.9531 46.1699 51.0791 45.2959 50 45.2959C48.9209 45.2959 48.0469 46.1699 48.0469 47.2979C48.0469 48.3281 48.9209 49.2021 50 49.2021Z" fill="white"/>
<path d="M67.9688 31.1357H32.0312C31.167 31.1357 30.4688 31.834 30.4688 32.6982V68.6357C30.4688 69.5 31.167 70.1982 32.0312 70.1982H67.9688C68.833 70.1982 69.5312 69.5 69.5312 68.6357V32.6982C69.5312 31.834 68.833 31.1357 67.9688 31.1357ZM66.0156 66.6826H33.9844V34.6514H66.0156V66.6826Z" fill="white"/>
<path d="M56.6406 58.4795H59.5703C59.7852 58.4795 59.9609 58.3037 59.9609 58.0889V43.2451C59.9609 43.0303 59.7852 42.8545 59.5703 42.8545H56.6406C56.4258 42.8545 56.25 43.0303 56.25 43.2451V58.0889C56.25 58.3037 56.4258 58.4795 56.6406 58.4795Z" fill="white"/>
<defs>
<radialGradient id="paint0_radial_3603_3115" cx="0" cy="0" r="1" gradientUnits="userSpaceOnUse" gradientTransform="translate(11.6667 85.667) rotate(-44.6726) scale(103.121)">
<stop stop-color="#264FAD"/>
<stop offset="1" stop-color="#5F0A87"/>
</radialGradient>
</defs>
</svg>
