<svg width="80" height="80" viewBox="0 0 80 80" fill="none" xmlns="http://www.w3.org/2000/svg">
<rect width="80" height="80" rx="20" fill="#4D4A49"/>
<path d="M33.125 48.125L25 40L33.125 31.875C33.318 31.6844 33.4713 31.4573 33.5759 31.2069C33.6804 30.9566 33.7343 30.688 33.7343 30.4167C33.7343 30.1454 33.6804 29.8768 33.5759 29.6265C33.4713 29.3761 33.318 29.149 33.125 28.9584C32.9344 28.7654 32.7073 28.6121 32.457 28.5076C32.2066 28.403 31.938 28.3491 31.6667 28.3491C31.3954 28.3491 31.1268 28.403 30.8765 28.5076C30.6261 28.6121 30.3991 28.7654 30.2084 28.9584L20.6459 38.5209C20.4527 38.7136 20.2995 38.9425 20.195 39.1946C20.0904 39.4466 20.0366 39.7168 20.0366 39.9896C20.0366 40.2625 20.0904 40.5326 20.195 40.7847C20.2995 41.0367 20.4527 41.2656 20.6459 41.4584L30.2084 51.0417C31.0209 51.8542 32.3125 51.8542 33.125 51.0417C33.318 50.851 33.4713 50.6239 33.5759 50.3736C33.6804 50.1233 33.7343 49.8547 33.7343 49.5834C33.7343 49.3121 33.6804 49.0435 33.5759 48.7931C33.4713 48.5428 33.318 48.3157 33.125 48.125ZM46.875 48.125L55 40L46.875 31.875C46.682 31.6844 46.5288 31.4573 46.4242 31.2069C46.3197 30.9566 46.2658 30.688 46.2658 30.4167C46.2658 30.1454 46.3197 29.8768 46.4242 29.6265C46.5288 29.3761 46.682 29.149 46.875 28.9584C47.0657 28.7654 47.2928 28.6121 47.5431 28.5076C47.7935 28.403 48.0621 28.3491 48.3334 28.3491C48.6047 28.3491 48.8733 28.403 49.1236 28.5076C49.374 28.6121 49.601 28.7654 49.7917 28.9584L59.3542 38.5209C60.1667 39.3334 60.1667 40.6459 59.3542 41.4584L49.7917 51.0417C49.601 51.2347 49.374 51.3879 49.1236 51.4925C48.8733 51.5971 48.6047 51.651 48.3334 51.651C48.0621 51.651 47.7935 51.5971 47.5431 51.4925C47.2928 51.3879 47.0657 51.2347 46.875 51.0417C46.682 50.851 46.5288 50.6239 46.4242 50.3736C46.3197 50.1233 46.2658 49.8547 46.2658 49.5834C46.2658 49.3121 46.3197 49.0435 46.4242 48.7931C46.5288 48.5428 46.682 48.3157 46.875 48.125Z" fill="#FDFEFF"/>
</svg>
