<svg width="29" height="31" viewBox="0 0 29 31" fill="none" xmlns="http://www.w3.org/2000/svg">
<path d="M11.0001 25.3336C4.33341 27.3336 4.33341 22.0002 1.66675 21.3336M20.3334 29.3336V24.1736C20.3834 23.5378 20.2975 22.8986 20.0814 22.2986C19.8653 21.6986 19.524 21.1515 19.0801 20.6936C23.2667 20.2269 27.6667 18.6402 27.6667 11.3602C27.6664 9.49868 26.9503 7.70851 25.6667 6.36024C26.2746 4.73158 26.2316 2.93137 25.5467 1.33358C25.5467 1.33358 23.9734 0.866909 20.3334 3.30691C17.2774 2.47867 14.0561 2.47867 11.0001 3.30691C7.36008 0.866909 5.78675 1.33358 5.78675 1.33358C5.10192 2.93137 5.05894 4.73158 5.66675 6.36024C4.37358 7.71851 3.65678 9.52486 3.66675 11.4002C3.66675 18.6269 8.06675 20.2136 12.2534 20.7336C11.8147 21.1869 11.4764 21.7274 11.2605 22.3201C11.0446 22.9128 10.9558 23.5443 11.0001 24.1736V29.3336" stroke="#264FAD" stroke-width="1.66667" stroke-linecap="round" stroke-linejoin="round"/>
</svg>
