<svg width="184" height="212" viewBox="0 0 184 212" fill="none" xmlns="http://www.w3.org/2000/svg">
<circle cx="121.791" cy="62.4585" r="41.9375" fill="url(#paint0_radial_0_612)"/>
<path d="M67.2493 65.6667H63.1243C61.291 65.6667 59.916 64.2917 59.916 62.4583C59.916 60.625 61.291 59.25 63.1243 59.25H67.2493C69.0827 59.25 70.4577 60.625 70.4577 62.4583C70.4577 64.2917 68.8535 65.6667 67.2493 65.6667Z" fill="url(#paint1_radial_0_612)"/>
<path d="M180.457 65.6667H176.332C174.499 65.6667 173.124 64.2917 173.124 62.4583C173.124 60.625 174.499 59.25 176.332 59.25H180.457C182.291 59.25 183.666 60.625 183.666 62.4583C183.666 64.2917 182.291 65.6667 180.457 65.6667Z" fill="url(#paint2_radial_0_612)"/>
<path d="M85.3538 103.25L82.3747 106.229C81.2288 107.375 79.1663 107.375 78.0205 106.229C76.8747 105.083 76.8747 103.021 78.0205 101.875L80.9997 98.896C82.1455 97.7502 84.208 97.7502 85.3538 98.896C86.4997 100.042 86.7288 102.104 85.3538 103.25Z" fill="url(#paint3_radial_0_612)"/>
<path d="M165.562 23.0417L162.583 26.0208C161.437 27.1667 159.374 27.1667 158.229 26.0208C157.083 24.875 157.083 22.8125 158.229 21.6667L161.208 18.6875C162.354 17.5417 164.416 17.5417 165.562 18.6875C166.708 19.8333 166.708 21.8958 165.562 23.0417Z" fill="url(#paint4_radial_0_612)"/>
<path d="M125 117V121.125C125 122.959 123.625 124.334 121.791 124.334C119.958 124.334 118.583 122.959 118.583 121.125V117C118.583 115.167 119.958 113.792 121.791 113.792C123.625 113.792 125 115.396 125 117Z" fill="url(#paint5_radial_0_612)"/>
<path d="M125 3.79183V7.91683C125 9.75016 123.625 11.1252 121.791 11.1252C119.958 11.1252 118.583 9.75016 118.583 7.91683V3.79183C118.583 1.9585 119.958 0.583496 121.791 0.583496C123.625 0.583496 125 1.9585 125 3.79183Z" fill="url(#paint6_radial_0_612)"/>
<path d="M162.583 98.896L165.562 101.875C166.708 103.021 166.708 105.083 165.562 106.229C164.416 107.375 162.354 107.375 161.208 106.229L158.229 103.25C157.083 102.104 157.083 100.042 158.229 98.896C159.374 97.7502 161.437 97.521 162.583 98.896Z" fill="url(#paint7_radial_0_612)"/>
<path d="M82.3747 18.6875L85.3538 21.6667C86.4997 22.8125 86.4997 24.875 85.3538 26.0208C84.208 27.1667 82.1455 27.1667 80.9997 26.0208L78.0205 23.0417C76.8747 21.8958 76.8747 19.8333 78.0205 18.6875C79.1663 17.5417 81.2288 17.5417 82.3747 18.6875Z" fill="url(#paint8_radial_0_612)"/>
<circle cx="85.125" cy="87.667" r="55" fill="url(#paint9_radial_0_612)"/>
<rect x="46.166" y="110.583" width="100.833" height="45.8333" fill="url(#paint10_radial_0_612)"/>
<circle cx="147" cy="119.75" r="36.6667" fill="url(#paint11_radial_0_612)"/>
<circle cx="46.1663" cy="110.584" r="45.8333" fill="url(#paint12_radial_0_612)"/>
<path d="M43.2327 199.913L41.3994 189.6C41.3994 189.142 40.9411 189.142 40.7119 189.371L32.9202 196.017C30.3994 198.309 30.1702 202.434 32.6911 204.955C34.5244 206.788 37.5036 207.246 39.7952 206.1C42.3161 204.955 43.4619 202.434 43.2327 199.913Z" fill="url(#paint13_radial_0_612)"/>
<path d="M56.9827 174.704L55.1494 164.392C55.1494 163.934 54.6911 163.934 54.4619 164.163L46.6702 170.809C44.1494 173.1 43.9202 177.225 46.4411 179.746C48.2744 181.579 51.2536 182.038 53.5452 180.892C56.0661 179.746 57.2119 177.225 56.9827 174.704Z" fill="url(#paint14_radial_0_612)"/>
<path d="M125.733 199.913L123.899 189.6C123.899 189.142 123.441 189.142 123.212 189.371L115.42 196.017C112.899 198.309 112.67 202.434 115.191 204.955C117.024 206.788 120.004 207.246 122.295 206.1C124.816 204.955 125.962 202.434 125.733 199.913Z" fill="url(#paint15_radial_0_612)"/>
<path d="M139.483 174.704L137.649 164.392C137.649 163.934 137.191 163.934 136.962 164.163L129.17 170.809C126.649 173.1 126.42 177.225 128.941 179.746C130.774 181.579 133.754 182.038 136.045 180.892C138.566 179.746 139.712 177.225 139.483 174.704Z" fill="url(#paint16_radial_0_612)"/>
<path d="M78.4789 128.917H104.375C105.062 128.917 105.521 129.604 105.291 130.292L90.3955 161C90.1664 161.688 90.6247 162.375 91.3122 162.375H114.916C115.833 162.375 116.291 163.292 115.604 163.979L75.0414 210.959C74.3539 211.875 72.9789 210.959 73.4372 210.042L84.2081 178.188C84.4372 177.5 83.9789 176.813 83.2914 176.813L69.3122 176.584C68.6247 176.584 68.1664 175.896 68.3956 175.438L77.7914 129.604C77.7914 129.146 78.0206 128.917 78.4789 128.917Z" fill="url(#paint17_radial_0_612)"/>
<defs>
<radialGradient id="paint0_radial_0_612" cx="0" cy="0" r="1" gradientUnits="userSpaceOnUse" gradientTransform="translate(120.981 103.654) rotate(-90) scale(76.0048)">
<stop stop-color="#FFA141"/>
<stop offset="0.1746" stop-color="#FFA141"/>
<stop offset="0.3575" stop-color="#FFA63B"/>
<stop offset="0.6011" stop-color="#FFB62A"/>
<stop offset="0.8778" stop-color="#FFD00F"/>
<stop offset="1" stop-color="#FFDD00"/>
</radialGradient>
<radialGradient id="paint1_radial_0_612" cx="0" cy="0" r="1" gradientUnits="userSpaceOnUse" gradientTransform="translate(99.9052 101.135) rotate(-90) scale(55.0844 90.4957)">
<stop stop-color="#FFA141"/>
<stop offset="0.1746" stop-color="#FFA141"/>
<stop offset="0.3575" stop-color="#FFA63B"/>
<stop offset="0.6011" stop-color="#FFB62A"/>
<stop offset="0.8778" stop-color="#FFD00F"/>
<stop offset="1" stop-color="#FFDD00"/>
</radialGradient>
<radialGradient id="paint2_radial_0_612" cx="0" cy="0" r="1" gradientUnits="userSpaceOnUse" gradientTransform="translate(142.746 101.125) rotate(-90) scale(51.1481 84.029)">
<stop stop-color="#FFA141"/>
<stop offset="0.1746" stop-color="#FFA141"/>
<stop offset="0.3575" stop-color="#FFA63B"/>
<stop offset="0.6011" stop-color="#FFB62A"/>
<stop offset="0.8778" stop-color="#FFD00F"/>
<stop offset="1" stop-color="#FFDD00"/>
</radialGradient>
<radialGradient id="paint3_radial_0_612" cx="0" cy="0" r="1" gradientUnits="userSpaceOnUse" gradientTransform="translate(133.656 105.278) rotate(-135) scale(55.0864 55.0889)">
<stop stop-color="#FFA141"/>
<stop offset="0.1746" stop-color="#FFA141"/>
<stop offset="0.3575" stop-color="#FFA63B"/>
<stop offset="0.6011" stop-color="#FFB62A"/>
<stop offset="0.8778" stop-color="#FFD00F"/>
<stop offset="1" stop-color="#FFDD00"/>
</radialGradient>
<radialGradient id="paint4_radial_0_612" cx="0" cy="0" r="1" gradientUnits="userSpaceOnUse" gradientTransform="translate(163.937 74.9585) rotate(-135) scale(51.1486)">
<stop stop-color="#FFA141"/>
<stop offset="0.1746" stop-color="#FFA141"/>
<stop offset="0.3575" stop-color="#FFA63B"/>
<stop offset="0.6011" stop-color="#FFB62A"/>
<stop offset="0.8778" stop-color="#FFD00F"/>
<stop offset="1" stop-color="#FFDD00"/>
</radialGradient>
<radialGradient id="paint5_radial_0_612" cx="0" cy="0" r="1" gradientUnits="userSpaceOnUse" gradientTransform="translate(160.493 84.3661) rotate(180) scale(55.0844 90.4957)">
<stop stop-color="#FFA141"/>
<stop offset="0.1746" stop-color="#FFA141"/>
<stop offset="0.3575" stop-color="#FFA63B"/>
<stop offset="0.6011" stop-color="#FFB62A"/>
<stop offset="0.8778" stop-color="#FFD00F"/>
<stop offset="1" stop-color="#FFDD00"/>
</radialGradient>
<radialGradient id="paint6_radial_0_612" cx="0" cy="0" r="1" gradientUnits="userSpaceOnUse" gradientTransform="translate(160.433 41.5232) rotate(180) scale(51.1481 84.029)">
<stop stop-color="#FFA141"/>
<stop offset="0.1746" stop-color="#FFA141"/>
<stop offset="0.3575" stop-color="#FFA63B"/>
<stop offset="0.6011" stop-color="#FFB62A"/>
<stop offset="0.8778" stop-color="#FFD00F"/>
<stop offset="1" stop-color="#FFDD00"/>
</radialGradient>
<radialGradient id="paint7_radial_0_612" cx="0" cy="0" r="1" gradientUnits="userSpaceOnUse" gradientTransform="translate(164.621 50.6036) rotate(135) scale(55.0864 55.0889)">
<stop stop-color="#FFA141"/>
<stop offset="0.1746" stop-color="#FFA141"/>
<stop offset="0.3575" stop-color="#FFA63B"/>
<stop offset="0.6011" stop-color="#FFB62A"/>
<stop offset="0.8778" stop-color="#FFD00F"/>
<stop offset="1" stop-color="#FFDD00"/>
</radialGradient>
<radialGradient id="paint8_radial_0_612" cx="0" cy="0" r="1" gradientUnits="userSpaceOnUse" gradientTransform="translate(134.261 20.2795) rotate(135) scale(51.1486)">
<stop stop-color="#FFA141"/>
<stop offset="0.1746" stop-color="#FFA141"/>
<stop offset="0.3575" stop-color="#FFA63B"/>
<stop offset="0.6011" stop-color="#FFB62A"/>
<stop offset="0.8778" stop-color="#FFD00F"/>
<stop offset="1" stop-color="#FFDD00"/>
</radialGradient>
<radialGradient id="paint9_radial_0_612" cx="0" cy="0" r="1" gradientUnits="userSpaceOnUse" gradientTransform="translate(86.1748 143.039) scale(161.554)">
<stop stop-color="#E6E7E8"/>
<stop offset="0.4218" stop-color="#E6E7E8"/>
<stop offset="1" stop-color="white"/>
</radialGradient>
<radialGradient id="paint10_radial_0_612" cx="0" cy="0" r="1" gradientUnits="userSpaceOnUse" gradientTransform="translate(97.5431 156.569) rotate(-0.128708) scale(253.457 115.208)">
<stop stop-color="#E6E7E8"/>
<stop offset="0.4218" stop-color="#E6E7E8"/>
<stop offset="1" stop-color="white"/>
</radialGradient>
<radialGradient id="paint11_radial_0_612" cx="0" cy="0" r="1" gradientUnits="userSpaceOnUse" gradientTransform="translate(147.7 156.665) scale(107.703)">
<stop stop-color="#E6E7E8"/>
<stop offset="0.4218" stop-color="#E6E7E8"/>
<stop offset="1" stop-color="white"/>
</radialGradient>
<radialGradient id="paint12_radial_0_612" cx="0" cy="0" r="1" gradientUnits="userSpaceOnUse" gradientTransform="translate(47.0413 156.727) scale(134.629)">
<stop stop-color="#E6E7E8"/>
<stop offset="0.4218" stop-color="#E6E7E8"/>
<stop offset="1" stop-color="white"/>
</radialGradient>
<radialGradient id="paint13_radial_0_612" cx="0" cy="0" r="1" gradientUnits="userSpaceOnUse" gradientTransform="translate(35.0165 206.575) rotate(19.9972) scale(18.2949 24.407)">
<stop stop-color="#26A9E0"/>
<stop offset="0.2835" stop-color="#26A9E0"/>
<stop offset="1" stop-color="#B3FDFF"/>
</radialGradient>
<radialGradient id="paint14_radial_0_612" cx="0" cy="0" r="1" gradientUnits="userSpaceOnUse" gradientTransform="translate(48.7798 181.367) rotate(19.9972) scale(18.2949 24.407)">
<stop stop-color="#26A9E0"/>
<stop offset="0.2835" stop-color="#26A9E0"/>
<stop offset="1" stop-color="#B3FDFF"/>
</radialGradient>
<radialGradient id="paint15_radial_0_612" cx="0" cy="0" r="1" gradientUnits="userSpaceOnUse" gradientTransform="translate(117.464 206.571) rotate(19.9972) scale(18.2949 24.407)">
<stop stop-color="#26A9E0"/>
<stop offset="0.2835" stop-color="#26A9E0"/>
<stop offset="1" stop-color="#B3FDFF"/>
</radialGradient>
<radialGradient id="paint16_radial_0_612" cx="0" cy="0" r="1" gradientUnits="userSpaceOnUse" gradientTransform="translate(131.227 181.363) rotate(19.9972) scale(18.2949 24.407)">
<stop stop-color="#26A9E0"/>
<stop offset="0.2835" stop-color="#26A9E0"/>
<stop offset="1" stop-color="#B3FDFF"/>
</radialGradient>
<radialGradient id="paint17_radial_0_612" cx="0" cy="0" r="1" gradientUnits="userSpaceOnUse" gradientTransform="translate(84.4817 212.096) rotate(-90) scale(83.0962 143.888)">
<stop stop-color="#FFA141"/>
<stop offset="0.1746" stop-color="#FFA141"/>
<stop offset="0.3575" stop-color="#FFA63B"/>
<stop offset="0.6011" stop-color="#FFB62A"/>
<stop offset="0.8778" stop-color="#FFD00F"/>
<stop offset="1" stop-color="#FFDD00"/>
</radialGradient>
</defs>
</svg>
