<svg width="341" height="341" viewBox="0 0 341 341" fill="none" xmlns="http://www.w3.org/2000/svg">
<g filter="url(#filter0_d_0_441)">
<rect opacity="0.01" x="23" y="21" width="285" height="285" fill="#F1F1F2"/>
<circle cx="165.5" cy="163.5" r="71.25" fill="url(#paint0_radial_0_441)"/>
<path d="M71.6875 169.141H52.3906C49.4219 169.141 46.75 166.766 46.75 163.5C46.75 160.234 49.4219 157.859 52.3906 157.859H71.6875C74.9531 157.859 77.3281 160.531 77.3281 163.5C77.3281 166.469 74.9531 169.141 71.6875 169.141Z" fill="url(#paint1_radial_0_441)"/>
<path d="M278.609 169.141H259.312C256.047 169.141 253.672 166.469 253.672 163.5C253.672 160.531 256.344 157.859 259.312 157.859H278.609C281.875 157.859 284.25 160.531 284.25 163.5C284.25 166.469 281.578 169.141 278.609 169.141Z" fill="url(#paint2_radial_0_441)"/>
<path d="M85.6406 249C84.1562 249 82.6719 248.406 81.7812 247.219C79.7031 245.141 79.7031 241.578 81.7812 239.203L95.4375 225.547C97.5156 223.469 101.375 223.469 103.453 225.547C105.531 227.625 105.531 231.188 103.453 233.562L89.7969 247.219C88.3125 248.703 87.125 249 85.6406 249Z" fill="url(#paint3_radial_0_441)"/>
<path d="M231.703 102.938C230.219 102.938 228.734 102.344 227.844 101.156C225.766 99.0781 225.766 95.5156 227.844 93.1406L241.5 79.4844C243.578 77.4062 247.438 77.4062 249.516 79.4844C251.594 81.5625 251.594 85.125 249.516 87.5L235.859 101.156C234.672 102.344 233.188 102.938 231.703 102.938Z" fill="url(#paint4_radial_0_441)"/>
<path d="M165.5 282.25C162.234 282.25 159.859 279.578 159.859 276.609V257.312C159.859 254.047 162.531 251.672 165.5 251.672C168.766 251.672 171.141 254.344 171.141 257.312V276.609C171.141 279.578 168.766 282.25 165.5 282.25Z" fill="url(#paint5_radial_0_441)"/>
<path d="M165.5 75.3281C162.234 75.3281 159.859 72.6562 159.859 69.6875V50.3906C159.859 47.4219 162.234 44.75 165.5 44.75C168.766 44.75 171.141 47.4219 171.141 50.3906V69.6875C171.141 72.9531 168.766 75.3281 165.5 75.3281Z" fill="#FFDD00"/>
<path d="M245.359 249C243.875 249 242.391 248.406 241.5 247.219L227.844 233.859C225.766 231.781 225.766 228.219 227.844 225.844C229.922 223.766 233.781 223.766 235.859 225.844L249.516 239.5C251.594 241.578 251.594 245.141 249.516 247.516C248.328 248.703 246.844 249 245.359 249Z" fill="url(#paint6_radial_0_441)"/>
<path d="M99.2969 102.938C97.8125 102.938 96.3281 102.344 95.4375 101.156L81.7812 87.5C79.7031 85.4219 79.7031 81.8594 81.7812 79.4844C83.8594 77.4062 87.7188 77.4062 89.7969 79.4844L103.453 93.1406C105.531 95.2188 105.531 98.7812 103.453 101.156C102.266 102.344 100.781 102.938 99.2969 102.938Z" fill="url(#paint7_radial_0_441)"/>
<circle cx="207.656" cy="181.312" r="42.75" fill="url(#paint8_radial_0_441)"/>
<rect x="177.375" y="199.125" width="78.375" height="35.625" fill="url(#paint9_radial_0_441)"/>
<circle cx="255.75" cy="205.953" r="28.5" fill="url(#paint10_radial_0_441)"/>
<circle cx="177.375" cy="199.125" r="35.625" fill="url(#paint11_radial_0_441)"/>
</g>
<defs>
<filter id="filter0_d_0_441" x="0" y="0" width="341" height="341" filterUnits="userSpaceOnUse" color-interpolation-filters="sRGB">
<feFlood flood-opacity="0" result="BackgroundImageFix"/>
<feColorMatrix in="SourceAlpha" type="matrix" values="0 0 0 0 0 0 0 0 0 0 0 0 0 0 0 0 0 0 127 0" result="hardAlpha"/>
<feOffset dx="5" dy="7"/>
<feGaussianBlur stdDeviation="14"/>
<feColorMatrix type="matrix" values="0 0 0 0 0.129412 0 0 0 0 0.0901961 0 0 0 0 0.447059 0 0 0 0.202738 0"/>
<feBlend mode="normal" in2="BackgroundImageFix" result="effect1_dropShadow_0_441"/>
<feBlend mode="normal" in="SourceGraphic" in2="effect1_dropShadow_0_441" result="shape"/>
</filter>
<radialGradient id="paint0_radial_0_441" cx="0" cy="0" r="1" gradientUnits="userSpaceOnUse" gradientTransform="translate(164.119 233.661) rotate(-90) scale(129.461)">
<stop stop-color="#FFA141"/>
<stop offset="0.1746" stop-color="#FFA141"/>
<stop offset="0.3575" stop-color="#FFA63B"/>
<stop offset="0.6011" stop-color="#FFB62A"/>
<stop offset="0.8778" stop-color="#FFD00F"/>
<stop offset="1" stop-color="#FFDD00"/>
</radialGradient>
<radialGradient id="paint1_radial_0_441" cx="0" cy="0" r="1" gradientUnits="userSpaceOnUse" gradientTransform="translate(164.141 233.104) rotate(-90) scale(128.434 348.123)">
<stop stop-color="#FFA141"/>
<stop offset="0.1746" stop-color="#FFA141"/>
<stop offset="0.3575" stop-color="#FFA63B"/>
<stop offset="0.6011" stop-color="#FFB62A"/>
<stop offset="0.8778" stop-color="#FFD00F"/>
<stop offset="1" stop-color="#FFDD00"/>
</radialGradient>
<radialGradient id="paint2_radial_0_441" cx="0" cy="0" r="1" gradientUnits="userSpaceOnUse" gradientTransform="translate(164.121 233.104) rotate(-90) scale(128.433 348.122)">
<stop stop-color="#FFA141"/>
<stop offset="0.1746" stop-color="#FFA141"/>
<stop offset="0.3575" stop-color="#FFA63B"/>
<stop offset="0.6011" stop-color="#FFB62A"/>
<stop offset="0.8778" stop-color="#FFD00F"/>
<stop offset="1" stop-color="#FFDD00"/>
</radialGradient>
<radialGradient id="paint3_radial_0_441" cx="0" cy="0" r="1" gradientUnits="userSpaceOnUse" gradientTransform="translate(164.131 233.104) scale(128.434 129.587)">
<stop stop-color="#FFA141"/>
<stop offset="0.1746" stop-color="#FFA141"/>
<stop offset="0.3575" stop-color="#FFA63B"/>
<stop offset="0.6011" stop-color="#FFB62A"/>
<stop offset="0.8778" stop-color="#FFD00F"/>
<stop offset="1" stop-color="#FFDD00"/>
</radialGradient>
<radialGradient id="paint4_radial_0_441" cx="0" cy="0" r="1" gradientUnits="userSpaceOnUse" gradientTransform="translate(164.131 233.104) scale(128.434 129.587)">
<stop stop-color="#FFA141"/>
<stop offset="0.1746" stop-color="#FFA141"/>
<stop offset="0.3575" stop-color="#FFA63B"/>
<stop offset="0.6011" stop-color="#FFB62A"/>
<stop offset="0.8778" stop-color="#FFD00F"/>
<stop offset="1" stop-color="#FFDD00"/>
</radialGradient>
<radialGradient id="paint5_radial_0_441" cx="0" cy="0" r="1" gradientUnits="userSpaceOnUse" gradientTransform="translate(164.131 440.026) scale(128.434 348.123)">
<stop stop-color="#FFA141"/>
<stop offset="0.1746" stop-color="#FFA141"/>
<stop offset="0.3575" stop-color="#FFA63B"/>
<stop offset="0.6011" stop-color="#FFB62A"/>
<stop offset="0.8778" stop-color="#FFD00F"/>
<stop offset="1" stop-color="#FFDD00"/>
</radialGradient>
<radialGradient id="paint6_radial_0_441" cx="0" cy="0" r="1" gradientUnits="userSpaceOnUse" gradientTransform="translate(164.131 233.104) scale(128.434 128.049)">
<stop stop-color="#FFA141"/>
<stop offset="0.1746" stop-color="#FFA141"/>
<stop offset="0.3575" stop-color="#FFA63B"/>
<stop offset="0.6011" stop-color="#FFB62A"/>
<stop offset="0.8778" stop-color="#FFD00F"/>
<stop offset="1" stop-color="#FFDD00"/>
</radialGradient>
<radialGradient id="paint7_radial_0_441" cx="0" cy="0" r="1" gradientUnits="userSpaceOnUse" gradientTransform="translate(164.131 233.104) scale(128.434 129.587)">
<stop stop-color="#FFA141"/>
<stop offset="0.1746" stop-color="#FFA141"/>
<stop offset="0.3575" stop-color="#FFA63B"/>
<stop offset="0.6011" stop-color="#FFB62A"/>
<stop offset="0.8778" stop-color="#FFD00F"/>
<stop offset="1" stop-color="#FFDD00"/>
</radialGradient>
<radialGradient id="paint8_radial_0_441" cx="0" cy="0" r="1" gradientUnits="userSpaceOnUse" gradientTransform="translate(208.465 224.198) scale(125.565)">
<stop stop-color="#E6E7E8"/>
<stop offset="0.4218" stop-color="#E6E7E8"/>
<stop offset="1" stop-color="white"/>
</radialGradient>
<radialGradient id="paint9_radial_0_441" cx="0" cy="0" r="1" gradientUnits="userSpaceOnUse" gradientTransform="translate(217.312 234.73) rotate(-90.1316) scale(135.731 61.6957)">
<stop stop-color="#E6E7E8"/>
<stop offset="0.4218" stop-color="#E6E7E8"/>
<stop offset="1" stop-color="white"/>
</radialGradient>
<radialGradient id="paint10_radial_0_441" cx="0" cy="0" r="1" gradientUnits="userSpaceOnUse" gradientTransform="translate(256.284 234.788) scale(83.7099)">
<stop stop-color="#E6E7E8"/>
<stop offset="0.4218" stop-color="#E6E7E8"/>
<stop offset="1" stop-color="white"/>
</radialGradient>
<radialGradient id="paint11_radial_0_441" cx="0" cy="0" r="1" gradientUnits="userSpaceOnUse" gradientTransform="translate(178.049 234.836) scale(104.638)">
<stop stop-color="#E6E7E8"/>
<stop offset="0.4218" stop-color="#E6E7E8"/>
<stop offset="1" stop-color="white"/>
</radialGradient>
</defs>
</svg>
