<svg width="220" height="220" viewBox="0 0 220 220" fill="none" xmlns="http://www.w3.org/2000/svg">
<rect opacity="0.01" width="220" height="220" fill="#F1F1F2"/>
<circle cx="139.791" cy="66.4585" r="41.9375" fill="url(#paint0_radial_0_610)"/>
<path d="M85.2493 69.6667H81.1243C79.291 69.6667 77.916 68.2917 77.916 66.4583C77.916 64.625 79.291 63.25 81.1243 63.25H85.2493C87.0827 63.25 88.4577 64.625 88.4577 66.4583C88.4577 68.2917 86.8535 69.6667 85.2493 69.6667Z" fill="url(#paint1_radial_0_610)"/>
<path d="M198.457 69.6667H194.332C192.499 69.6667 191.124 68.2917 191.124 66.4583C191.124 64.625 192.499 63.25 194.332 63.25H198.457C200.291 63.25 201.666 64.625 201.666 66.4583C201.666 68.2917 200.291 69.6667 198.457 69.6667Z" fill="url(#paint2_radial_0_610)"/>
<path d="M103.354 107.25L100.375 110.229C99.2288 111.375 97.1663 111.375 96.0205 110.229C94.8747 109.083 94.8747 107.021 96.0205 105.875L98.9997 102.896C100.146 101.75 102.208 101.75 103.354 102.896C104.5 104.042 104.729 106.104 103.354 107.25Z" fill="url(#paint3_radial_0_610)"/>
<path d="M183.562 27.0417L180.583 30.0208C179.437 31.1667 177.374 31.1667 176.229 30.0208C175.083 28.875 175.083 26.8125 176.229 25.6667L179.208 22.6875C180.354 21.5417 182.416 21.5417 183.562 22.6875C184.708 23.8333 184.708 25.8958 183.562 27.0417Z" fill="url(#paint4_radial_0_610)"/>
<path d="M143 121V125.125C143 126.959 141.625 128.334 139.791 128.334C137.958 128.334 136.583 126.959 136.583 125.125V121C136.583 119.167 137.958 117.792 139.791 117.792C141.625 117.792 143 119.396 143 121Z" fill="url(#paint5_radial_0_610)"/>
<path d="M143 7.79183V11.9168C143 13.7502 141.625 15.1252 139.791 15.1252C137.958 15.1252 136.583 13.7502 136.583 11.9168V7.79183C136.583 5.9585 137.958 4.5835 139.791 4.5835C141.625 4.5835 143 5.9585 143 7.79183Z" fill="url(#paint6_radial_0_610)"/>
<path d="M180.583 102.896L183.562 105.875C184.708 107.021 184.708 109.083 183.562 110.229C182.416 111.375 180.354 111.375 179.208 110.229L176.229 107.25C175.083 106.104 175.083 104.042 176.229 102.896C177.374 101.75 179.437 101.521 180.583 102.896Z" fill="url(#paint7_radial_0_610)"/>
<path d="M100.375 22.6875L103.354 25.6667C104.5 26.8125 104.5 28.875 103.354 30.0208C102.208 31.1667 100.146 31.1667 98.9997 30.0208L96.0205 27.0417C94.8747 25.8958 94.8747 23.8333 96.0205 22.6875C97.1663 21.5417 99.2288 21.5417 100.375 22.6875Z" fill="url(#paint8_radial_0_610)"/>
<circle cx="103.125" cy="91.667" r="55" fill="url(#paint9_radial_0_610)"/>
<rect x="64.166" y="114.583" width="100.833" height="45.8333" fill="url(#paint10_radial_0_610)"/>
<circle cx="165" cy="123.75" r="36.6667" fill="url(#paint11_radial_0_610)"/>
<circle cx="64.1663" cy="114.584" r="45.8333" fill="url(#paint12_radial_0_610)"/>
<path d="M61.2327 203.913L59.3994 193.6C59.3994 193.142 58.9411 193.142 58.7119 193.371L50.9202 200.017C48.3994 202.309 48.1702 206.434 50.6911 208.955C52.5244 210.788 55.5036 211.246 57.7952 210.1C60.3161 208.955 61.4619 206.434 61.2327 203.913Z" fill="url(#paint13_radial_0_610)"/>
<path d="M74.9827 178.704L73.1494 168.392C73.1494 167.934 72.6911 167.934 72.4619 168.163L64.6702 174.809C62.1494 177.1 61.9202 181.225 64.4411 183.746C66.2744 185.579 69.2536 186.038 71.5452 184.892C74.0661 183.746 75.2119 181.225 74.9827 178.704Z" fill="url(#paint14_radial_0_610)"/>
<path d="M143.733 203.913L141.899 193.6C141.899 193.142 141.441 193.142 141.212 193.371L133.42 200.017C130.899 202.309 130.67 206.434 133.191 208.955C135.024 210.788 138.004 211.246 140.295 210.1C142.816 208.955 143.962 206.434 143.733 203.913Z" fill="url(#paint15_radial_0_610)"/>
<path d="M157.483 178.704L155.649 168.392C155.649 167.934 155.191 167.934 154.962 168.163L147.17 174.809C144.649 177.1 144.42 181.225 146.941 183.746C148.774 185.579 151.754 186.038 154.045 184.892C156.566 183.746 157.712 181.225 157.483 178.704Z" fill="url(#paint16_radial_0_610)"/>
<path d="M96.4789 132.917H122.375C123.062 132.917 123.521 133.604 123.291 134.292L108.396 165C108.166 165.688 108.625 166.375 109.312 166.375H132.916C133.833 166.375 134.291 167.292 133.604 167.979L93.0414 214.959C92.3539 215.875 90.9789 214.959 91.4372 214.042L102.208 182.188C102.437 181.5 101.979 180.813 101.291 180.813L87.3122 180.584C86.6247 180.584 86.1664 179.896 86.3956 179.438L95.7914 133.604C95.7914 133.146 96.0206 132.917 96.4789 132.917Z" fill="url(#paint17_radial_0_610)"/>
<defs>
<radialGradient id="paint0_radial_0_610" cx="0" cy="0" r="1" gradientUnits="userSpaceOnUse" gradientTransform="translate(138.981 107.654) rotate(-90) scale(76.0048)">
<stop stop-color="#FFA141"/>
<stop offset="0.1746" stop-color="#FFA141"/>
<stop offset="0.3575" stop-color="#FFA63B"/>
<stop offset="0.6011" stop-color="#FFB62A"/>
<stop offset="0.8778" stop-color="#FFD00F"/>
<stop offset="1" stop-color="#FFDD00"/>
</radialGradient>
<radialGradient id="paint1_radial_0_610" cx="0" cy="0" r="1" gradientUnits="userSpaceOnUse" gradientTransform="translate(117.905 105.135) rotate(-90) scale(55.0844 90.4957)">
<stop stop-color="#FFA141"/>
<stop offset="0.1746" stop-color="#FFA141"/>
<stop offset="0.3575" stop-color="#FFA63B"/>
<stop offset="0.6011" stop-color="#FFB62A"/>
<stop offset="0.8778" stop-color="#FFD00F"/>
<stop offset="1" stop-color="#FFDD00"/>
</radialGradient>
<radialGradient id="paint2_radial_0_610" cx="0" cy="0" r="1" gradientUnits="userSpaceOnUse" gradientTransform="translate(160.746 105.125) rotate(-90) scale(51.1481 84.029)">
<stop stop-color="#FFA141"/>
<stop offset="0.1746" stop-color="#FFA141"/>
<stop offset="0.3575" stop-color="#FFA63B"/>
<stop offset="0.6011" stop-color="#FFB62A"/>
<stop offset="0.8778" stop-color="#FFD00F"/>
<stop offset="1" stop-color="#FFDD00"/>
</radialGradient>
<radialGradient id="paint3_radial_0_610" cx="0" cy="0" r="1" gradientUnits="userSpaceOnUse" gradientTransform="translate(151.656 109.278) rotate(-135) scale(55.0864 55.0889)">
<stop stop-color="#FFA141"/>
<stop offset="0.1746" stop-color="#FFA141"/>
<stop offset="0.3575" stop-color="#FFA63B"/>
<stop offset="0.6011" stop-color="#FFB62A"/>
<stop offset="0.8778" stop-color="#FFD00F"/>
<stop offset="1" stop-color="#FFDD00"/>
</radialGradient>
<radialGradient id="paint4_radial_0_610" cx="0" cy="0" r="1" gradientUnits="userSpaceOnUse" gradientTransform="translate(181.937 78.9585) rotate(-135) scale(51.1486)">
<stop stop-color="#FFA141"/>
<stop offset="0.1746" stop-color="#FFA141"/>
<stop offset="0.3575" stop-color="#FFA63B"/>
<stop offset="0.6011" stop-color="#FFB62A"/>
<stop offset="0.8778" stop-color="#FFD00F"/>
<stop offset="1" stop-color="#FFDD00"/>
</radialGradient>
<radialGradient id="paint5_radial_0_610" cx="0" cy="0" r="1" gradientUnits="userSpaceOnUse" gradientTransform="translate(178.493 88.3661) rotate(180) scale(55.0844 90.4957)">
<stop stop-color="#FFA141"/>
<stop offset="0.1746" stop-color="#FFA141"/>
<stop offset="0.3575" stop-color="#FFA63B"/>
<stop offset="0.6011" stop-color="#FFB62A"/>
<stop offset="0.8778" stop-color="#FFD00F"/>
<stop offset="1" stop-color="#FFDD00"/>
</radialGradient>
<radialGradient id="paint6_radial_0_610" cx="0" cy="0" r="1" gradientUnits="userSpaceOnUse" gradientTransform="translate(178.433 45.5232) rotate(180) scale(51.1481 84.029)">
<stop stop-color="#FFA141"/>
<stop offset="0.1746" stop-color="#FFA141"/>
<stop offset="0.3575" stop-color="#FFA63B"/>
<stop offset="0.6011" stop-color="#FFB62A"/>
<stop offset="0.8778" stop-color="#FFD00F"/>
<stop offset="1" stop-color="#FFDD00"/>
</radialGradient>
<radialGradient id="paint7_radial_0_610" cx="0" cy="0" r="1" gradientUnits="userSpaceOnUse" gradientTransform="translate(182.621 54.6036) rotate(135) scale(55.0864 55.0889)">
<stop stop-color="#FFA141"/>
<stop offset="0.1746" stop-color="#FFA141"/>
<stop offset="0.3575" stop-color="#FFA63B"/>
<stop offset="0.6011" stop-color="#FFB62A"/>
<stop offset="0.8778" stop-color="#FFD00F"/>
<stop offset="1" stop-color="#FFDD00"/>
</radialGradient>
<radialGradient id="paint8_radial_0_610" cx="0" cy="0" r="1" gradientUnits="userSpaceOnUse" gradientTransform="translate(152.261 24.2795) rotate(135) scale(51.1486)">
<stop stop-color="#FFA141"/>
<stop offset="0.1746" stop-color="#FFA141"/>
<stop offset="0.3575" stop-color="#FFA63B"/>
<stop offset="0.6011" stop-color="#FFB62A"/>
<stop offset="0.8778" stop-color="#FFD00F"/>
<stop offset="1" stop-color="#FFDD00"/>
</radialGradient>
<radialGradient id="paint9_radial_0_610" cx="0" cy="0" r="1" gradientUnits="userSpaceOnUse" gradientTransform="translate(104.175 147.039) scale(161.554)">
<stop stop-color="#E6E7E8"/>
<stop offset="0.4218" stop-color="#E6E7E8"/>
<stop offset="1" stop-color="white"/>
</radialGradient>
<radialGradient id="paint10_radial_0_610" cx="0" cy="0" r="1" gradientUnits="userSpaceOnUse" gradientTransform="translate(115.543 160.569) rotate(-0.128708) scale(253.457 115.208)">
<stop stop-color="#E6E7E8"/>
<stop offset="0.4218" stop-color="#E6E7E8"/>
<stop offset="1" stop-color="white"/>
</radialGradient>
<radialGradient id="paint11_radial_0_610" cx="0" cy="0" r="1" gradientUnits="userSpaceOnUse" gradientTransform="translate(165.7 160.665) scale(107.703)">
<stop stop-color="#E6E7E8"/>
<stop offset="0.4218" stop-color="#E6E7E8"/>
<stop offset="1" stop-color="white"/>
</radialGradient>
<radialGradient id="paint12_radial_0_610" cx="0" cy="0" r="1" gradientUnits="userSpaceOnUse" gradientTransform="translate(65.0413 160.727) scale(134.629)">
<stop stop-color="#E6E7E8"/>
<stop offset="0.4218" stop-color="#E6E7E8"/>
<stop offset="1" stop-color="white"/>
</radialGradient>
<radialGradient id="paint13_radial_0_610" cx="0" cy="0" r="1" gradientUnits="userSpaceOnUse" gradientTransform="translate(53.0165 210.575) rotate(19.9972) scale(18.2949 24.407)">
<stop stop-color="#26A9E0"/>
<stop offset="0.2835" stop-color="#26A9E0"/>
<stop offset="1" stop-color="#B3FDFF"/>
</radialGradient>
<radialGradient id="paint14_radial_0_610" cx="0" cy="0" r="1" gradientUnits="userSpaceOnUse" gradientTransform="translate(66.7798 185.367) rotate(19.9972) scale(18.2949 24.407)">
<stop stop-color="#26A9E0"/>
<stop offset="0.2835" stop-color="#26A9E0"/>
<stop offset="1" stop-color="#B3FDFF"/>
</radialGradient>
<radialGradient id="paint15_radial_0_610" cx="0" cy="0" r="1" gradientUnits="userSpaceOnUse" gradientTransform="translate(135.464 210.571) rotate(19.9972) scale(18.2949 24.407)">
<stop stop-color="#26A9E0"/>
<stop offset="0.2835" stop-color="#26A9E0"/>
<stop offset="1" stop-color="#B3FDFF"/>
</radialGradient>
<radialGradient id="paint16_radial_0_610" cx="0" cy="0" r="1" gradientUnits="userSpaceOnUse" gradientTransform="translate(149.227 185.363) rotate(19.9972) scale(18.2949 24.407)">
<stop stop-color="#26A9E0"/>
<stop offset="0.2835" stop-color="#26A9E0"/>
<stop offset="1" stop-color="#B3FDFF"/>
</radialGradient>
<radialGradient id="paint17_radial_0_610" cx="0" cy="0" r="1" gradientUnits="userSpaceOnUse" gradientTransform="translate(102.482 216.096) rotate(-90) scale(83.0962 143.888)">
<stop stop-color="#FFA141"/>
<stop offset="0.1746" stop-color="#FFA141"/>
<stop offset="0.3575" stop-color="#FFA63B"/>
<stop offset="0.6011" stop-color="#FFB62A"/>
<stop offset="0.8778" stop-color="#FFD00F"/>
<stop offset="1" stop-color="#FFDD00"/>
</radialGradient>
</defs>
</svg>
