<svg width="800" height="212" viewBox="0 0 800 212" fill="none" xmlns="http://www.w3.org/2000/svg">
<g clip-path="url(#clip0_3603_2955)">
<rect width="800" height="212" rx="12" fill="#01112D"/>
<path d="M213.564 120.403C213.774 120.33 213.967 120.215 214.132 120.065C214.297 119.916 214.43 119.735 214.524 119.533C214.617 119.331 214.669 119.112 214.677 118.89C214.684 118.668 214.647 118.446 214.568 118.238C214.453 117.924 214.248 117.651 213.978 117.453C213.708 117.256 213.385 117.143 213.051 117.129C212.717 117.115 212.386 117.201 212.1 117.375C211.815 117.549 211.587 117.804 211.447 118.107C211.306 118.41 211.259 118.749 211.31 119.079C211.362 119.41 211.511 119.717 211.738 119.963C211.964 120.209 212.259 120.382 212.584 120.461C212.909 120.539 213.25 120.519 213.564 120.403Z" fill="white"/>
<path opacity="0.1" d="M213.564 120.403C213.774 120.33 213.967 120.215 214.132 120.065C214.297 119.916 214.43 119.735 214.524 119.533C214.617 119.331 214.669 119.112 214.677 118.89C214.684 118.668 214.647 118.446 214.568 118.238C214.453 117.924 214.248 117.651 213.978 117.453C213.708 117.256 213.385 117.143 213.051 117.129C212.717 117.115 212.386 117.201 212.1 117.375C211.815 117.549 211.587 117.804 211.447 118.107C211.306 118.41 211.259 118.749 211.31 119.079C211.362 119.41 211.511 119.717 211.738 119.963C211.964 120.209 212.259 120.382 212.584 120.461C212.909 120.539 213.25 120.519 213.564 120.403Z" fill="white"/>
<path d="M216.784 119.876C217.186 119.662 217.518 119.337 217.74 118.94C217.963 118.543 218.066 118.09 218.039 117.635C218.011 117.18 217.853 116.743 217.585 116.376C217.316 116.008 216.947 115.726 216.522 115.562C216.097 115.398 215.634 115.359 215.188 115.451C214.742 115.543 214.331 115.761 214.006 116.079C213.68 116.397 213.452 116.802 213.35 117.246C213.248 117.69 213.276 118.154 213.43 118.583C213.722 119.182 214.231 119.648 214.853 119.888C215.475 120.128 216.164 120.124 216.784 119.876Z" fill="white"/>
<path d="M222.755 118.817C223.286 118.603 223.791 118.328 224.26 117.998C224.545 117.783 224.795 117.525 224.999 117.232C225.429 116.85 225.735 116.349 225.88 115.792C226.024 115.235 226 114.648 225.81 114.105C225.621 113.562 225.275 113.088 224.815 112.742C224.356 112.396 223.804 112.194 223.23 112.162C222.88 112.108 222.524 112.108 222.174 112.162C221.648 112.146 221.125 112.245 220.642 112.453C220.574 112.426 220.499 112.426 220.431 112.453C220.179 112.534 219.939 112.65 219.718 112.796C219.223 113.029 218.776 113.352 218.398 113.747C218.086 114.018 217.834 114.35 217.658 114.724C217.422 115.077 217.274 115.483 217.228 115.906C217.182 116.329 217.239 116.757 217.394 117.153C217.578 117.621 217.873 118.038 218.256 118.365C218.638 118.692 219.095 118.919 219.586 119.028C219.993 119.121 220.409 119.174 220.827 119.186H221.804L222.755 118.817Z" fill="#407BFF"/>
<path d="M224.306 117.97C224.591 117.756 224.84 117.497 225.045 117.205C224.549 115.484 223.958 113.791 223.276 112.135C222.926 112.081 222.569 112.081 222.219 112.135C223.042 114.032 223.739 115.981 224.306 117.97Z" fill="white"/>
<path d="M218.45 113.697C218.138 113.968 217.886 114.301 217.71 114.674C218.116 116.203 218.767 117.657 219.638 118.978C220.045 119.071 220.461 119.124 220.879 119.136C219.69 117.518 218.861 115.663 218.45 113.697Z" fill="white"/>
<path d="M222.75 118.817C221.6 116.846 220.897 114.646 220.69 112.374C220.622 112.347 220.547 112.347 220.479 112.374C220.227 112.455 219.987 112.571 219.766 112.717C220.042 114.937 220.75 117.081 221.852 119.028L222.75 118.817Z" fill="white"/>
<path d="M214.515 119.531C214.515 119.531 218.397 126.344 221.856 125.129C225.315 123.914 215.519 119.161 215.519 119.161L214.515 119.531Z" fill="#407BFF"/>
<path opacity="0.6" d="M214.515 119.531C214.515 119.531 218.397 126.344 221.856 125.129C225.315 123.914 215.519 119.161 215.519 119.161L214.515 119.531Z" fill="white"/>
<path d="M213.56 117.182C213.56 117.182 212.108 109.472 215.541 108.152C218.974 106.831 214.537 116.813 214.537 116.813L213.56 117.182Z" fill="#407BFF"/>
<path opacity="0.6" d="M213.56 117.182C213.56 117.182 212.108 109.472 215.541 108.152C218.974 106.831 214.537 116.813 214.537 116.813L213.56 117.182Z" fill="white"/>
<path d="M392.955 174.562C392.955 174.562 388.809 181.243 385.403 179.843C381.997 178.444 391.978 174.113 391.978 174.113L392.955 174.562Z" fill="#407BFF"/>
<path opacity="0.6" d="M392.955 174.562C392.955 174.562 388.809 181.243 385.403 179.843C381.997 178.444 391.978 174.113 391.978 174.113L392.955 174.562Z" fill="white"/>
<path d="M396.395 170.601C396.061 170.612 395.738 170.721 395.466 170.915C395.194 171.11 394.986 171.38 394.868 171.693C394.75 172.006 394.727 172.346 394.802 172.672C394.878 172.997 395.048 173.293 395.292 173.522C395.535 173.751 395.841 173.902 396.171 173.957C396.5 174.012 396.839 173.968 397.144 173.831C397.448 173.693 397.705 173.469 397.882 173.185C398.059 172.902 398.148 172.572 398.138 172.238C398.135 172.015 398.086 171.795 397.996 171.591C397.906 171.387 397.776 171.203 397.614 171.05C397.451 170.898 397.259 170.779 397.05 170.702C396.841 170.625 396.618 170.59 396.395 170.601Z" fill="white"/>
<path opacity="0.1" d="M396.395 170.601C396.061 170.612 395.738 170.721 395.466 170.915C395.194 171.11 394.986 171.38 394.868 171.693C394.75 172.006 394.727 172.346 394.802 172.672C394.878 172.997 395.048 173.293 395.292 173.522C395.535 173.751 395.841 173.902 396.171 173.957C396.5 174.012 396.839 173.968 397.144 173.831C397.448 173.693 397.705 173.469 397.882 173.185C398.059 172.902 398.148 172.572 398.138 172.238C398.135 172.015 398.086 171.795 397.996 171.591C397.906 171.387 397.776 171.203 397.614 171.05C397.451 170.898 397.259 170.779 397.05 170.702C396.841 170.625 396.618 170.59 396.395 170.601Z" fill="white"/>
<path d="M393.122 170.044C392.457 170.042 391.815 170.291 391.326 170.741C390.836 171.191 390.534 171.81 390.481 172.473C390.439 173.002 390.557 173.532 390.82 173.993C391.083 174.454 391.479 174.825 391.956 175.058C392.434 175.291 392.97 175.374 393.495 175.297C394.02 175.22 394.51 174.987 394.901 174.628C395.292 174.268 395.565 173.799 395.685 173.282C395.806 172.765 395.767 172.224 395.575 171.729C395.383 171.234 395.046 170.808 394.608 170.508C394.171 170.207 393.653 170.046 393.122 170.044Z" fill="white"/>
<path d="M387.098 169.281C386.522 169.305 385.953 169.412 385.408 169.598C385.081 169.705 384.77 169.856 384.484 170.047C383.949 170.269 383.492 170.645 383.17 171.127C382.849 171.608 382.678 172.175 382.678 172.754C382.678 173.333 382.849 173.899 383.17 174.381C383.492 174.862 383.949 175.238 384.484 175.46C384.796 175.615 385.124 175.739 385.461 175.83C385.962 175.996 386.491 176.068 387.019 176.041H387.23C387.484 176.078 387.742 176.078 387.996 176.041C388.541 175.987 389.071 175.826 389.554 175.566C389.943 175.416 390.288 175.171 390.557 174.853C390.9 174.596 391.175 174.261 391.359 173.874C391.543 173.488 391.63 173.062 391.613 172.635C391.569 172.134 391.408 171.65 391.141 171.224C390.875 170.797 390.512 170.439 390.082 170.179C389.737 169.947 389.365 169.761 388.973 169.625C388.682 169.625 388.339 169.466 388.022 169.387C387.718 169.325 387.408 169.289 387.098 169.281Z" fill="#407BFF"/>
<path d="M385.193 169.515C384.866 169.622 384.555 169.773 384.269 169.964C384.174 171.767 384.174 173.574 384.269 175.377C384.582 175.532 384.909 175.656 385.246 175.747C385.096 173.673 385.079 171.591 385.193 169.515Z" fill="white"/>
<path d="M389.553 175.407C389.942 175.257 390.287 175.012 390.556 174.694C390.678 173.12 390.517 171.537 390.081 170.02C389.736 169.788 389.364 169.602 388.972 169.466C389.581 171.383 389.779 173.408 389.553 175.407Z" fill="white"/>
<path d="M387.1 169.281C387.574 171.51 387.574 173.813 387.1 176.041H387.311C387.565 176.078 387.823 176.078 388.077 176.041C388.514 173.845 388.514 171.584 388.077 169.387C387.755 169.321 387.428 169.286 387.1 169.281Z" fill="white"/>
<path d="M395.199 173.582C395.199 173.582 394.169 181.504 390.473 181.504C386.776 181.504 394.143 173.582 394.143 173.582H395.199Z" fill="#407BFF"/>
<path opacity="0.6" d="M395.199 173.582C395.199 173.582 394.169 181.504 390.473 181.504C386.776 181.504 394.143 173.582 394.143 173.582H395.199Z" fill="white"/>
<path d="M238.07 107.862C238.225 107.854 238.378 107.901 238.502 107.994C238.625 108.088 238.712 108.222 238.747 108.373C238.782 108.525 238.762 108.683 238.691 108.822C238.62 108.96 238.503 109.069 238.36 109.129L235.931 110.212C235.769 110.275 235.589 110.275 235.428 110.212C235.266 110.148 235.134 110.025 235.06 109.868C235.002 109.706 235.005 109.529 235.068 109.368C235.131 109.208 235.25 109.076 235.403 108.997L237.806 107.941C237.885 107.89 237.976 107.863 238.07 107.862Z" fill="white"/>
<path d="M206.016 -208.325L211.297 -208.034C211.47 -208.014 211.629 -207.93 211.741 -207.797C211.854 -207.665 211.912 -207.495 211.905 -207.321C211.905 -207.234 211.887 -207.148 211.852 -207.069C211.817 -206.989 211.765 -206.919 211.7 -206.861C211.635 -206.803 211.558 -206.761 211.475 -206.735C211.392 -206.71 211.304 -206.702 211.218 -206.714L205.937 -207.004C205.849 -207.004 205.762 -207.022 205.682 -207.057C205.601 -207.092 205.529 -207.144 205.469 -207.208C205.409 -207.273 205.364 -207.349 205.335 -207.432C205.307 -207.515 205.296 -207.603 205.303 -207.691C205.317 -207.868 205.399 -208.033 205.532 -208.152C205.665 -208.27 205.838 -208.332 206.016 -208.325ZM216.578 -207.691L221.86 -207.295C222.032 -207.275 222.191 -207.19 222.304 -207.058C222.416 -206.926 222.475 -206.755 222.467 -206.582C222.447 -206.411 222.361 -206.255 222.228 -206.147C222.095 -206.038 221.925 -205.986 221.754 -206.001L216.473 -206.397C216.302 -206.41 216.144 -206.49 216.03 -206.618C215.917 -206.746 215.858 -206.913 215.865 -207.083C215.869 -207.174 215.89 -207.262 215.928 -207.344C215.965 -207.426 216.019 -207.5 216.085 -207.561C216.151 -207.623 216.229 -207.67 216.314 -207.702C216.398 -207.733 216.488 -207.747 216.578 -207.744V-207.691ZM227.141 -206.819L232.422 -206.318C232.597 -206.3 232.758 -206.214 232.869 -206.078C232.981 -205.942 233.033 -205.767 233.016 -205.592C232.998 -205.416 232.912 -205.255 232.776 -205.144C232.64 -205.033 232.465 -204.98 232.29 -204.997C230.468 -205.182 228.725 -205.367 227.009 -205.499C226.831 -205.519 226.668 -205.608 226.555 -205.746C226.442 -205.884 226.386 -206.06 226.401 -206.238C226.401 -206.329 226.419 -206.418 226.456 -206.501C226.493 -206.583 226.547 -206.657 226.614 -206.717C226.682 -206.777 226.761 -206.822 226.847 -206.849C226.934 -206.876 227.025 -206.884 227.114 -206.872L227.141 -206.819ZM237.703 -205.79L242.984 -205.209C243.159 -205.188 243.319 -205.098 243.428 -204.959C243.537 -204.821 243.586 -204.644 243.565 -204.469C243.544 -204.294 243.454 -204.135 243.316 -204.026C243.177 -203.917 243.001 -203.867 242.826 -203.888L237.545 -204.496C237.374 -204.516 237.218 -204.601 237.11 -204.734C237.001 -204.867 236.949 -205.038 236.964 -205.209C236.976 -205.377 237.051 -205.535 237.173 -205.652C237.295 -205.768 237.455 -205.836 237.624 -205.842L237.703 -205.79ZM248.265 -204.522L253.546 -203.836C253.719 -203.803 253.873 -203.706 253.976 -203.563C254.08 -203.421 254.124 -203.244 254.101 -203.07C254.069 -202.902 253.975 -202.752 253.839 -202.649C253.702 -202.547 253.532 -202.499 253.362 -202.515L248.08 -203.202C247.905 -203.202 247.737 -203.271 247.614 -203.395C247.49 -203.519 247.42 -203.687 247.42 -203.862C247.42 -204.037 247.49 -204.205 247.614 -204.329C247.737 -204.453 247.905 -204.522 248.08 -204.522H248.265ZM258.828 -203.07L264.109 -202.251C264.264 -202.207 264.397 -202.106 264.484 -201.97C264.57 -201.833 264.604 -201.67 264.578 -201.511C264.552 -201.351 264.468 -201.207 264.343 -201.105C264.217 -201.003 264.059 -200.95 263.897 -200.957L258.616 -201.776C258.446 -201.802 258.292 -201.894 258.188 -202.032C258.084 -202.171 258.039 -202.344 258.062 -202.515C258.088 -202.641 258.148 -202.758 258.237 -202.851C258.326 -202.945 258.439 -203.011 258.563 -203.043L258.828 -203.07ZM269.258 -201.406L274.539 -200.482C274.71 -200.45 274.862 -200.351 274.961 -200.208C275.06 -200.065 275.098 -199.888 275.067 -199.716C275.055 -199.63 275.024 -199.547 274.978 -199.473C274.932 -199.398 274.872 -199.334 274.8 -199.285C274.728 -199.235 274.646 -199.201 274.561 -199.184C274.475 -199.168 274.387 -199.169 274.301 -199.188L269.02 -200.086C268.847 -200.118 268.693 -200.216 268.59 -200.358C268.487 -200.501 268.442 -200.677 268.466 -200.852C268.479 -200.996 268.537 -201.132 268.631 -201.241C268.726 -201.35 268.853 -201.426 268.994 -201.459L269.258 -201.406ZM279.635 -199.505H279.767L285.048 -198.475C285.134 -198.456 285.214 -198.421 285.286 -198.371C285.357 -198.321 285.418 -198.257 285.464 -198.184C285.511 -198.11 285.543 -198.028 285.557 -197.942C285.572 -197.856 285.57 -197.768 285.55 -197.683C285.507 -197.52 285.404 -197.378 285.263 -197.286C285.122 -197.193 284.951 -197.156 284.784 -197.181L279.503 -198.211C279.33 -198.249 279.178 -198.353 279.08 -198.501C278.981 -198.648 278.944 -198.829 278.975 -199.003C278.987 -199.122 279.03 -199.236 279.1 -199.333C279.169 -199.43 279.263 -199.508 279.371 -199.558L279.635 -199.505ZM289.96 -197.366H290.092L295.373 -196.178C295.54 -196.134 295.684 -196.027 295.772 -195.879C295.861 -195.731 295.889 -195.554 295.848 -195.386C295.83 -195.301 295.795 -195.221 295.744 -195.151C295.694 -195.08 295.629 -195.021 295.555 -194.977C295.481 -194.932 295.398 -194.903 295.313 -194.892C295.227 -194.881 295.14 -194.887 295.056 -194.91L289.934 -196.072C289.848 -196.091 289.768 -196.126 289.696 -196.176C289.625 -196.226 289.564 -196.29 289.518 -196.364C289.471 -196.437 289.439 -196.52 289.425 -196.606C289.41 -196.691 289.412 -196.779 289.432 -196.864C289.428 -196.971 289.449 -197.078 289.495 -197.174C289.541 -197.271 289.61 -197.355 289.696 -197.419L289.96 -197.366ZM300.232 -194.937H300.39L305.513 -193.617C305.685 -193.571 305.831 -193.459 305.92 -193.306C306.009 -193.152 306.034 -192.97 305.988 -192.798C305.943 -192.626 305.831 -192.48 305.677 -192.391C305.524 -192.302 305.341 -192.277 305.17 -192.323C303.48 -192.798 301.763 -193.22 300.073 -193.643C299.988 -193.664 299.907 -193.703 299.837 -193.756C299.766 -193.809 299.707 -193.876 299.663 -193.952C299.618 -194.028 299.59 -194.113 299.579 -194.2C299.568 -194.288 299.574 -194.377 299.598 -194.462C299.588 -194.596 299.618 -194.73 299.684 -194.847C299.749 -194.964 299.848 -195.06 299.968 -195.122L300.232 -194.937ZM310.424 -192.296H310.609C312.326 -191.821 314.016 -191.319 315.706 -190.791C315.845 -190.72 315.954 -190.602 316.015 -190.457C316.075 -190.313 316.082 -190.152 316.034 -190.002C315.987 -189.853 315.888 -189.726 315.755 -189.643C315.622 -189.56 315.464 -189.527 315.309 -189.55L310.266 -191.029C310.097 -191.078 309.953 -191.191 309.865 -191.343C309.776 -191.495 309.75 -191.676 309.791 -191.847C309.822 -191.935 309.871 -192.015 309.935 -192.083C309.998 -192.152 310.075 -192.206 310.16 -192.243L310.424 -192.296ZM320.538 -189.233H320.723C322.413 -188.705 324.076 -188.151 325.74 -187.57C325.904 -187.51 326.038 -187.388 326.113 -187.229C326.187 -187.071 326.195 -186.889 326.136 -186.725C326.109 -186.641 326.066 -186.564 326.008 -186.498C325.951 -186.432 325.88 -186.378 325.8 -186.341C325.721 -186.304 325.635 -186.284 325.547 -186.281C325.459 -186.279 325.372 -186.295 325.291 -186.329L320.327 -187.992C320.171 -188.037 320.038 -188.137 319.951 -188.273C319.865 -188.41 319.832 -188.573 319.858 -188.733C319.884 -188.892 319.967 -189.037 320.093 -189.139C320.218 -189.24 320.376 -189.293 320.538 -189.286V-189.233ZM330.308 -185.721H330.519L335.457 -183.846C335.539 -183.815 335.614 -183.766 335.678 -183.705C335.741 -183.644 335.791 -183.57 335.826 -183.489C335.86 -183.408 335.878 -183.32 335.878 -183.232C335.878 -183.144 335.861 -183.056 335.827 -182.975C335.798 -182.894 335.752 -182.819 335.693 -182.756C335.634 -182.693 335.563 -182.642 335.484 -182.608C335.405 -182.573 335.319 -182.555 335.233 -182.555C335.147 -182.554 335.061 -182.572 334.982 -182.605C333.345 -183.266 331.707 -183.873 330.07 -184.48C329.904 -184.545 329.769 -184.673 329.695 -184.835C329.621 -184.998 329.614 -185.183 329.674 -185.352C329.731 -185.469 329.822 -185.567 329.935 -185.633C330.048 -185.698 330.178 -185.729 330.308 -185.721ZM340.025 -181.919C340.103 -181.943 340.186 -181.943 340.263 -181.919C341.9 -181.232 343.511 -180.519 345.122 -179.78C345.21 -179.751 345.291 -179.703 345.36 -179.64C345.429 -179.577 345.483 -179.5 345.52 -179.415C345.557 -179.329 345.575 -179.237 345.574 -179.144C345.573 -179.05 345.552 -178.959 345.512 -178.874C345.473 -178.79 345.416 -178.715 345.345 -178.654C345.275 -178.593 345.192 -178.547 345.103 -178.521C345.014 -178.494 344.92 -178.487 344.827 -178.499C344.735 -178.511 344.646 -178.543 344.567 -178.592L339.761 -180.704C339.681 -180.739 339.609 -180.789 339.548 -180.851C339.488 -180.914 339.44 -180.987 339.408 -181.068C339.376 -181.149 339.361 -181.236 339.362 -181.323C339.364 -181.41 339.383 -181.496 339.418 -181.576C339.474 -181.686 339.562 -181.777 339.67 -181.838C339.778 -181.899 339.901 -181.927 340.025 -181.919ZM349.61 -177.535H349.901C351.485 -176.743 353.043 -175.951 354.601 -175.106C354.678 -175.065 354.745 -175.008 354.8 -174.941C354.854 -174.873 354.895 -174.796 354.92 -174.712C354.944 -174.629 354.952 -174.541 354.943 -174.455C354.933 -174.368 354.907 -174.285 354.865 -174.208C354.777 -174.059 354.635 -173.949 354.468 -173.9C354.302 -173.851 354.123 -173.867 353.967 -173.944C352.436 -174.763 350.878 -175.581 349.32 -176.347C349.177 -176.408 349.06 -176.516 348.989 -176.655C348.918 -176.793 348.899 -176.952 348.933 -177.103C348.968 -177.254 349.055 -177.388 349.179 -177.482C349.303 -177.576 349.455 -177.623 349.61 -177.615V-177.535ZM358.879 -172.545C358.99 -172.583 359.111 -172.583 359.222 -172.545C360.754 -171.647 362.259 -170.723 363.738 -169.904C363.885 -169.807 363.989 -169.656 364.028 -169.484C364.068 -169.312 364.039 -169.132 363.949 -168.98C363.847 -168.837 363.695 -168.738 363.523 -168.704C363.352 -168.67 363.173 -168.702 363.025 -168.795C361.572 -169.719 360.067 -170.617 358.562 -171.436C358.432 -171.506 358.33 -171.617 358.271 -171.752C358.212 -171.887 358.2 -172.037 358.236 -172.18C358.272 -172.323 358.355 -172.449 358.472 -172.539C358.588 -172.629 358.732 -172.678 358.879 -172.677V-172.545ZM367.778 -166.867C367.912 -166.864 368.041 -166.818 368.147 -166.736C369.626 -165.706 371.052 -164.649 372.425 -163.593C372.545 -163.48 372.619 -163.325 372.63 -163.16C372.642 -162.995 372.592 -162.832 372.489 -162.702C372.386 -162.573 372.238 -162.487 372.075 -162.461C371.911 -162.435 371.744 -162.472 371.606 -162.563C370.26 -163.593 368.966 -164.649 367.382 -165.653C367.31 -165.703 367.249 -165.767 367.203 -165.84C367.156 -165.914 367.124 -165.996 367.11 -166.082C367.095 -166.168 367.097 -166.256 367.117 -166.341C367.136 -166.426 367.172 -166.506 367.223 -166.577C367.296 -166.647 367.384 -166.7 367.48 -166.731C367.576 -166.763 367.677 -166.774 367.778 -166.762V-166.867ZM376.095 -160.398C376.25 -160.392 376.398 -160.337 376.518 -160.24C377.865 -159.051 379.159 -157.863 380.426 -156.648C380.552 -156.526 380.624 -156.358 380.627 -156.183C380.629 -156.007 380.562 -155.837 380.439 -155.711C380.317 -155.585 380.149 -155.513 379.973 -155.51C379.797 -155.508 379.628 -155.575 379.502 -155.698C378.287 -156.886 376.993 -158.074 375.647 -159.236C375.526 -159.36 375.458 -159.526 375.458 -159.698C375.458 -159.871 375.526 -160.037 375.647 -160.16C375.775 -160.258 375.935 -160.305 376.095 -160.292V-160.398ZM383.621 -152.872C383.8 -152.864 383.97 -152.789 384.096 -152.661C385.285 -151.341 386.447 -150.021 387.503 -148.595C387.594 -148.457 387.631 -148.29 387.605 -148.127C387.579 -147.963 387.493 -147.815 387.364 -147.713C387.234 -147.61 387.071 -147.559 386.906 -147.571C386.741 -147.583 386.586 -147.656 386.473 -147.776C385.417 -149.123 384.281 -150.417 383.119 -151.79C382.998 -151.913 382.931 -152.079 382.931 -152.252C382.931 -152.425 382.998 -152.591 383.119 -152.714C383.26 -152.829 383.44 -152.886 383.621 -152.872ZM390.038 -144.555C390.147 -144.554 390.254 -144.527 390.35 -144.476C390.446 -144.426 390.529 -144.353 390.592 -144.264C391.569 -142.785 392.493 -141.254 393.233 -139.722C393.317 -139.568 393.336 -139.387 393.287 -139.219C393.237 -139.05 393.123 -138.909 392.969 -138.825C392.815 -138.741 392.634 -138.721 392.465 -138.771C392.297 -138.82 392.155 -138.935 392.071 -139.089C391.252 -140.594 390.355 -142.099 389.43 -143.551C389.36 -143.649 389.319 -143.764 389.312 -143.884C389.304 -144.004 389.331 -144.124 389.389 -144.229C389.448 -144.334 389.534 -144.42 389.64 -144.478C389.745 -144.536 389.865 -144.562 389.985 -144.555H390.038ZM395.028 -135.339C395.157 -135.339 395.283 -135.302 395.391 -135.232C395.499 -135.161 395.584 -135.061 395.636 -134.943C396.349 -133.332 396.982 -131.642 397.537 -129.952C397.563 -129.869 397.572 -129.782 397.564 -129.695C397.557 -129.608 397.532 -129.523 397.491 -129.446C397.451 -129.369 397.396 -129.3 397.329 -129.245C397.262 -129.189 397.184 -129.147 397.101 -129.121C397.018 -129.095 396.93 -129.085 396.844 -129.093C396.757 -129.101 396.672 -129.126 396.595 -129.166C396.518 -129.207 396.449 -129.262 396.393 -129.329C396.338 -129.396 396.295 -129.473 396.269 -129.556C395.741 -131.193 395.108 -132.831 394.421 -134.415C394.357 -134.577 394.357 -134.757 394.421 -134.918C394.485 -135.08 394.607 -135.211 394.764 -135.286L395.028 -135.339ZM398.303 -125.358C398.448 -125.352 398.587 -125.3 398.701 -125.21C398.815 -125.12 398.897 -124.996 398.936 -124.856C399.34 -123.114 399.649 -121.351 399.861 -119.575C399.876 -119.49 399.873 -119.402 399.853 -119.318C399.833 -119.234 399.795 -119.154 399.743 -119.085C399.691 -119.016 399.626 -118.958 399.551 -118.915C399.475 -118.872 399.392 -118.845 399.306 -118.835C399.135 -118.813 398.961 -118.858 398.823 -118.962C398.685 -119.065 398.593 -119.219 398.567 -119.39C398.329 -121.106 398.039 -122.849 397.643 -124.513C397.61 -124.684 397.644 -124.861 397.737 -125.008C397.83 -125.155 397.976 -125.261 398.144 -125.305L398.303 -125.358ZM399.676 -114.98C399.846 -114.98 400.01 -114.914 400.133 -114.796C400.257 -114.678 400.329 -114.517 400.336 -114.347C400.336 -113.396 400.336 -112.445 400.336 -111.468C400.336 -110.94 400.336 -110.438 400.336 -109.91V-109.039C400.323 -108.866 400.244 -108.705 400.117 -108.587C399.99 -108.47 399.823 -108.405 399.649 -108.405C399.562 -108.405 399.475 -108.423 399.394 -108.458C399.313 -108.493 399.241 -108.545 399.181 -108.609C399.122 -108.674 399.076 -108.75 399.048 -108.833C399.019 -108.916 399.008 -109.004 399.016 -109.092V-109.937C399.016 -110.465 399.016 -110.967 399.016 -111.468C399.016 -112.419 399.016 -113.343 399.016 -114.294C399.012 -114.38 399.026 -114.467 399.056 -114.548C399.086 -114.63 399.131 -114.705 399.19 -114.768C399.249 -114.832 399.32 -114.884 399.399 -114.92C399.477 -114.956 399.563 -114.977 399.649 -114.98H399.676ZM399.28 -104.418C399.45 -104.392 399.604 -104.3 399.708 -104.162C399.812 -104.023 399.857 -103.85 399.834 -103.679C399.629 -101.903 399.33 -100.141 398.936 -98.3974C398.936 -98.2998 398.913 -98.2036 398.871 -98.1156C398.828 -98.0277 398.767 -97.9503 398.691 -97.889C398.615 -97.8277 398.526 -97.784 398.431 -97.7611C398.336 -97.7382 398.237 -97.7366 398.142 -97.7566C398.046 -97.7765 397.956 -97.8174 397.878 -97.8763C397.8 -97.9352 397.736 -98.0106 397.691 -98.0972C397.646 -98.1837 397.621 -98.2793 397.617 -98.3769C397.613 -98.4745 397.631 -98.5717 397.669 -98.6615C398.012 -100.351 398.329 -102.094 398.54 -103.784C398.521 -103.885 398.527 -103.99 398.558 -104.088C398.588 -104.186 398.642 -104.276 398.715 -104.349C398.788 -104.422 398.877 -104.476 398.976 -104.506C399.074 -104.536 399.178 -104.543 399.28 -104.524V-104.418ZM397.062 -94.1725H397.246C397.33 -94.1482 397.407 -94.1078 397.475 -94.0536C397.542 -93.9993 397.599 -93.9322 397.64 -93.8562C397.682 -93.7802 397.708 -93.6967 397.718 -93.6105C397.727 -93.5243 397.72 -93.4372 397.695 -93.3539C397.194 -91.6904 396.586 -90.0004 395.953 -88.3369C395.878 -88.1793 395.748 -88.0547 395.587 -87.9866C395.427 -87.9184 395.247 -87.9116 395.081 -87.9672C394.999 -87.9991 394.924 -88.0472 394.861 -88.1086C394.797 -88.1701 394.747 -88.2435 394.712 -88.3248C394.678 -88.406 394.66 -88.4933 394.66 -88.5816C394.66 -88.6698 394.677 -88.7572 394.712 -88.8386C395.345 -90.4493 395.926 -92.1128 396.428 -93.75C396.458 -93.8969 396.537 -94.0293 396.652 -94.1253C396.767 -94.2213 396.912 -94.2752 397.062 -94.2782V-94.1725ZM393.206 -84.376H393.497C393.578 -84.3392 393.651 -84.2865 393.711 -84.221C393.771 -84.1554 393.817 -84.0784 393.847 -83.9946C393.876 -83.9108 393.888 -83.8218 393.883 -83.733C393.877 -83.6443 393.854 -83.5576 393.814 -83.4782C393.048 -81.8939 392.229 -80.3359 391.358 -78.778C391.27 -78.6281 391.126 -78.5191 390.958 -78.4746C390.79 -78.4301 390.611 -78.4537 390.46 -78.5404C390.384 -78.5818 390.316 -78.6379 390.262 -78.7056C390.207 -78.7732 390.166 -78.8509 390.142 -78.9343C390.117 -79.0178 390.109 -79.1053 390.119 -79.1917C390.128 -79.2782 390.154 -79.3619 390.196 -79.4381C391.067 -80.9433 391.886 -82.5012 392.625 -84.0591C392.668 -84.1801 392.747 -84.2852 392.85 -84.3606C392.954 -84.436 393.078 -84.4783 393.206 -84.4816V-84.376ZM387.925 -75.2396C388.047 -75.2661 388.173 -75.2661 388.295 -75.2396C388.438 -75.1383 388.537 -74.9861 388.571 -74.8142C388.605 -74.6424 388.573 -74.464 388.48 -74.3154C387.529 -72.8631 386.499 -71.4108 385.443 -69.9585C385.338 -69.8184 385.182 -69.7258 385.008 -69.701C384.835 -69.6763 384.659 -69.7214 384.519 -69.8264C384.379 -69.9315 384.286 -70.0878 384.261 -70.2612C384.237 -70.4345 384.282 -70.6106 384.387 -70.7506C385.443 -72.1765 386.447 -73.6024 387.371 -75.0283C387.437 -75.1404 387.535 -75.2303 387.653 -75.2867C387.77 -75.3431 387.902 -75.3635 388.031 -75.3453L387.925 -75.2396ZM381.667 -66.7634C381.823 -66.7668 381.974 -66.71 382.09 -66.6049C382.211 -66.4815 382.278 -66.3156 382.278 -66.1428C382.278 -65.97 382.211 -65.8042 382.09 -65.6808C380.981 -64.3605 379.819 -63.0402 378.63 -61.6671C378.569 -61.6032 378.495 -61.5524 378.413 -61.5177C378.332 -61.4829 378.244 -61.465 378.155 -61.465C378.066 -61.465 377.979 -61.4829 377.897 -61.5177C377.815 -61.5524 377.741 -61.6032 377.68 -61.6671C377.617 -61.7263 377.566 -61.7979 377.532 -61.8774C377.497 -61.9569 377.48 -62.0426 377.48 -62.1292C377.48 -62.2158 377.497 -62.3015 377.532 -62.3809C377.566 -62.4604 377.617 -62.532 377.68 -62.5913C378.877 -63.9116 380.012 -65.2318 381.086 -66.5521C381.154 -66.6689 381.257 -66.7619 381.38 -66.8186C381.502 -66.8753 381.64 -66.8928 381.773 -66.869L381.667 -66.7634ZM374.617 -58.8417C374.793 -58.8434 374.963 -58.7772 375.092 -58.6568C375.215 -58.529 375.283 -58.3587 375.283 -58.1816C375.283 -58.0044 375.215 -57.834 375.092 -57.7062C373.851 -56.4651 372.584 -55.2505 371.29 -54.0358C371.16 -53.9436 371.001 -53.9014 370.843 -53.917C370.684 -53.9326 370.537 -54.0049 370.427 -54.1207C370.318 -54.2365 370.254 -54.3878 370.248 -54.5469C370.241 -54.706 370.292 -54.8621 370.392 -54.9864C371.686 -56.2011 373.032 -57.4158 374.141 -58.6568C374.194 -58.7691 374.275 -58.8651 374.377 -58.9349C374.48 -59.0046 374.599 -59.0454 374.722 -59.0529L374.617 -58.8417ZM366.933 -51.6329C367.029 -51.6321 367.123 -51.6105 367.21 -51.5694C367.296 -51.5284 367.373 -51.4689 367.434 -51.3953C367.555 -51.2719 367.623 -51.1059 367.623 -50.9331C367.623 -50.7603 367.555 -50.5945 367.434 -50.4711C366.114 -49.3356 364.794 -48.1737 363.368 -47.0647C363.245 -46.9437 363.079 -46.876 362.906 -46.876C362.733 -46.876 362.567 -46.9437 362.444 -47.0647C362.321 -47.1925 362.253 -47.3628 362.253 -47.54C362.253 -47.7171 362.321 -47.8875 362.444 -48.0153L366.457 -51.3953C366.492 -51.5232 366.567 -51.6364 366.672 -51.7174C366.777 -51.7985 366.906 -51.8429 367.038 -51.8441L366.933 -51.6329ZM358.773 -44.9523C358.873 -44.9518 358.972 -44.9304 359.063 -44.8895C359.154 -44.8486 359.235 -44.789 359.301 -44.7146C359.353 -44.6453 359.391 -44.5664 359.413 -44.4824C359.434 -44.3984 359.439 -44.311 359.427 -44.2252C359.415 -44.1393 359.385 -44.0568 359.341 -43.9822C359.297 -43.9076 359.239 -43.8424 359.169 -43.7904C357.77 -42.7078 356.37 -41.6515 354.918 -40.6217C354.851 -40.5678 354.773 -40.529 354.689 -40.5077C354.605 -40.4863 354.518 -40.4831 354.433 -40.4981C354.348 -40.5131 354.268 -40.546 354.196 -40.5946C354.125 -40.6432 354.065 -40.7065 354.02 -40.7801C353.957 -40.8394 353.907 -40.911 353.872 -40.9904C353.838 -41.0699 353.82 -41.1557 353.82 -41.2423C353.82 -41.3289 353.838 -41.4145 353.872 -41.494C353.907 -41.5735 353.957 -41.6451 354.02 -41.7043L358.245 -44.8202C358.293 -44.9435 358.382 -45.0459 358.499 -45.1088C358.615 -45.1718 358.75 -45.1911 358.879 -45.1635L358.773 -44.9523ZM350.218 -38.7997C350.327 -38.7987 350.434 -38.7719 350.53 -38.7214C350.627 -38.6709 350.71 -38.5982 350.772 -38.5093C350.823 -38.4383 350.859 -38.358 350.879 -38.2731C350.898 -38.1881 350.9 -38.1001 350.886 -38.0141C350.871 -37.9282 350.839 -37.846 350.793 -37.7724C350.746 -37.6988 350.685 -37.6351 350.614 -37.585C349.162 -36.5816 347.683 -35.6046 346.204 -34.654C346.132 -34.6047 346.05 -34.5702 345.964 -34.5527C345.878 -34.5353 345.789 -34.5352 345.703 -34.5524C345.617 -34.5696 345.535 -34.6038 345.463 -34.653C345.39 -34.7022 345.328 -34.7653 345.28 -34.8388C345.19 -34.9905 345.161 -35.1712 345.2 -35.3433C345.24 -35.5154 345.344 -35.6657 345.491 -35.763C346.97 -36.7136 348.422 -37.6907 349.848 -38.6677C349.957 -38.8387 350.127 -38.9615 350.323 -39.011L350.218 -38.7997ZM341.398 -33.0432C341.51 -33.0417 341.619 -33.0118 341.716 -32.9564C341.813 -32.901 341.895 -32.8218 341.953 -32.7264C342 -32.6543 342.033 -32.5733 342.048 -32.4883C342.063 -32.4032 342.061 -32.316 342.041 -32.2319C342.021 -32.1479 341.984 -32.0687 341.933 -31.9994C341.881 -31.93 341.816 -31.8719 341.742 -31.8286C340.236 -30.9044 338.731 -29.9802 337.2 -29.188C337.051 -29.1207 336.882 -29.111 336.727 -29.1609C336.571 -29.2107 336.439 -29.3165 336.357 -29.4577C336.275 -29.599 336.248 -29.7658 336.282 -29.9257C336.316 -30.0856 336.407 -30.2273 336.54 -30.3235L341.055 -32.964C341.097 -33.048 341.161 -33.1192 341.24 -33.1702C341.319 -33.2213 341.41 -33.2505 341.504 -33.2545L341.398 -33.0432ZM332.315 -27.7621C332.43 -27.7635 332.544 -27.732 332.642 -27.6712C332.74 -27.6104 332.819 -27.5228 332.869 -27.4188C332.956 -27.268 332.98 -27.0891 332.935 -26.921C332.891 -26.7529 332.782 -26.6092 332.632 -26.521L328.011 -23.8805C327.935 -23.8348 327.851 -23.8054 327.764 -23.7941C327.677 -23.7827 327.588 -23.7897 327.504 -23.8145C327.419 -23.8394 327.341 -23.8816 327.273 -23.9384C327.206 -23.9952 327.151 -24.0654 327.113 -24.1445C327.071 -24.2208 327.045 -24.3045 327.035 -24.391C327.026 -24.4774 327.034 -24.5649 327.058 -24.6483C327.083 -24.7318 327.124 -24.8095 327.178 -24.8771C327.233 -24.9447 327.3 -25.0009 327.377 -25.0423L331.971 -27.6829C332.092 -27.8029 332.251 -27.8776 332.42 -27.8942L332.315 -27.7621ZM323.02 -22.7715C323.165 -22.7665 323.304 -22.714 323.416 -22.6219C323.529 -22.5298 323.607 -22.4034 323.64 -22.2621C323.673 -22.1208 323.659 -21.9726 323.599 -21.8403C323.54 -21.708 323.438 -21.5991 323.31 -21.5304C321.752 -20.7118 320.195 -19.9196 318.61 -19.1538C318.452 -19.0783 318.27 -19.0663 318.103 -19.1204C317.937 -19.1744 317.797 -19.2903 317.712 -19.4443C317.637 -19.6027 317.625 -19.7841 317.679 -19.951C317.733 -20.118 317.849 -20.2579 318.003 -20.3421L322.729 -22.6922C322.776 -22.7544 322.835 -22.8055 322.904 -22.8421C322.972 -22.8786 323.048 -22.8995 323.126 -22.9035L323.02 -22.7715ZM313.672 -18.2032C313.794 -18.2042 313.914 -18.1698 314.017 -18.1042C314.12 -18.0386 314.202 -17.9446 314.253 -17.8335C314.293 -17.7541 314.317 -17.6674 314.322 -17.5787C314.328 -17.49 314.316 -17.401 314.286 -17.3171C314.256 -17.2333 314.21 -17.1563 314.15 -17.0908C314.09 -17.0252 314.017 -16.9725 313.936 -16.9357L309.13 -14.7177C309.051 -14.6827 308.965 -14.6639 308.878 -14.6622C308.791 -14.6606 308.704 -14.6761 308.623 -14.708C308.542 -14.7399 308.469 -14.7876 308.406 -14.8481C308.343 -14.9087 308.294 -14.981 308.259 -15.0609C308.195 -15.2227 308.195 -15.4026 308.259 -15.5643C308.323 -15.726 308.445 -15.8576 308.602 -15.9324C310.187 -16.6453 311.797 -17.3847 313.382 -18.1505L313.672 -18.2032ZM304.061 -13.8463C304.185 -13.8417 304.305 -13.8021 304.408 -13.732C304.511 -13.662 304.592 -13.5643 304.642 -13.4502C304.714 -13.2925 304.721 -13.1126 304.662 -12.9495C304.603 -12.7864 304.481 -12.6533 304.325 -12.5788L299.466 -10.4927C299.386 -10.4581 299.3 -10.4394 299.213 -10.4379C299.127 -10.4364 299.04 -10.4521 298.959 -10.4839C298.878 -10.5158 298.804 -10.5633 298.742 -10.6238C298.679 -10.6842 298.629 -10.7563 298.595 -10.836C298.56 -10.9158 298.541 -11.0016 298.54 -11.0886C298.538 -11.1755 298.554 -11.2619 298.586 -11.3428C298.618 -11.4237 298.665 -11.4976 298.726 -11.5601C298.786 -11.6227 298.858 -11.6728 298.938 -11.7074L303.797 -13.7671C303.871 -13.83 303.963 -13.867 304.061 -13.8727V-13.8463ZM294.343 -9.75337C294.494 -9.74873 294.638 -9.6929 294.752 -9.59502C294.867 -9.49715 294.944 -9.36314 294.972 -9.21523C295 -9.06732 294.976 -8.91441 294.905 -8.78177C294.834 -8.64913 294.719 -8.54476 294.581 -8.48595L289.669 -6.5583C289.587 -6.51022 289.495 -6.48058 289.4 -6.47135C289.306 -6.46212 289.21 -6.47356 289.12 -6.50487C289.03 -6.53618 288.948 -6.58663 288.879 -6.65274C288.81 -6.71885 288.757 -6.79902 288.722 -6.88781C288.687 -6.97659 288.672 -7.07185 288.678 -7.16703C288.683 -7.2622 288.709 -7.35505 288.754 -7.43916C288.799 -7.52327 288.862 -7.5967 288.938 -7.65432C289.014 -7.71194 289.101 -7.75237 289.194 -7.77294L294.079 -9.70059C294.157 -9.7525 294.249 -9.78006 294.343 -9.7798V-9.75337ZM247.367 -8.77637H252.649C252.824 -8.77637 252.992 -8.70685 253.115 -8.58305C253.239 -8.45925 253.309 -8.29131 253.309 -8.11623C253.29 -7.94293 253.212 -7.78171 253.086 -7.66093C252.96 -7.54015 252.796 -7.46757 252.622 -7.45608H247.341C247.166 -7.45608 246.998 -7.52568 246.874 -7.64948C246.751 -7.77329 246.681 -7.94115 246.681 -8.11623C246.677 -8.20738 246.692 -8.2983 246.726 -8.38328C246.759 -8.46826 246.809 -8.54545 246.874 -8.60996C246.938 -8.67447 247.015 -8.72497 247.1 -8.75816C247.185 -8.79134 247.276 -8.80653 247.367 -8.8028V-8.77637ZM242.086 -8.77637C242.257 -8.77651 242.421 -8.71062 242.544 -8.59248C242.667 -8.47433 242.74 -8.31312 242.746 -8.14266C242.747 -7.96937 242.682 -7.80229 242.564 -7.67495C242.447 -7.54761 242.286 -7.46941 242.113 -7.45608C240.344 -7.45608 238.574 -7.45609 236.832 -7.29766C236.743 -7.29046 236.653 -7.30136 236.569 -7.32965C236.484 -7.35794 236.406 -7.40307 236.34 -7.46229C236.273 -7.52151 236.219 -7.59359 236.181 -7.67422C236.143 -7.75485 236.122 -7.84229 236.119 -7.93137C236.115 -8.01808 236.129 -8.10464 236.159 -8.18609C236.189 -8.26754 236.234 -8.34232 236.293 -8.40609C236.352 -8.46985 236.423 -8.52139 236.502 -8.55775C236.581 -8.5941 236.666 -8.61454 236.752 -8.61794C238.522 -8.61794 240.264 -8.74996 242.034 -8.77637H242.086ZM257.93 -8.5123C259.699 -8.5123 261.468 -8.30112 263.211 -8.16909C263.307 -8.18856 263.406 -8.18645 263.501 -8.16297C263.596 -8.13948 263.684 -8.09514 263.76 -8.03323C263.836 -7.97131 263.897 -7.89333 263.939 -7.80493C263.981 -7.71653 264.002 -7.61991 264.002 -7.52208C264.002 -7.42425 263.981 -7.32771 263.939 -7.23931C263.897 -7.15091 263.836 -7.07293 263.76 -7.01102C263.684 -6.9491 263.596 -6.90477 263.501 -6.88128C263.406 -6.85779 263.307 -6.85569 263.211 -6.87515C261.451 -6.99838 259.69 -7.10399 257.93 -7.19201C257.752 -7.20555 257.587 -7.28746 257.469 -7.42047C257.351 -7.55347 257.289 -7.72722 257.296 -7.90502C257.314 -8.05732 257.385 -8.19862 257.495 -8.30463C257.606 -8.41064 257.75 -8.47474 257.903 -8.48595L257.93 -8.5123ZM231.524 -8.35387C231.695 -8.35401 231.859 -8.28812 231.982 -8.16998C232.105 -8.05183 232.177 -7.89062 232.184 -7.72016C232.192 -7.54935 232.132 -7.38235 232.019 -7.2543C231.906 -7.12625 231.747 -7.0471 231.577 -7.03358L226.296 -6.61108C226.209 -6.60386 226.122 -6.61391 226.039 -6.64057C225.956 -6.66723 225.879 -6.71 225.813 -6.76645C225.747 -6.82289 225.692 -6.89187 225.653 -6.96944C225.613 -7.04701 225.589 -7.13165 225.583 -7.21844C225.576 -7.30519 225.586 -7.39248 225.612 -7.47534C225.639 -7.55821 225.682 -7.63504 225.738 -7.7013C225.795 -7.76756 225.864 -7.82201 225.941 -7.8615C226.019 -7.901 226.103 -7.9247 226.19 -7.93137L231.471 -8.35387H231.524ZM268.492 -7.69373L273.773 -7.08645C273.944 -7.0603 274.098 -6.96818 274.201 -6.82995C274.305 -6.69171 274.35 -6.51838 274.328 -6.34709C274.302 -6.17436 274.211 -6.0181 274.073 -5.91016C273.936 -5.80223 273.762 -5.75074 273.588 -5.76616C271.828 -6.01261 270.068 -6.22383 268.307 -6.39987C268.158 -6.43017 268.024 -6.51115 267.927 -6.62905C267.831 -6.74695 267.778 -6.89452 267.778 -7.0468C267.778 -7.19907 267.831 -7.34672 267.927 -7.46463C268.024 -7.58253 268.158 -7.66342 268.307 -7.69373H268.492ZM221.147 -7.37687C221.306 -7.37742 221.46 -7.31796 221.577 -7.2103C221.694 -7.10265 221.767 -6.9547 221.78 -6.79594C221.803 -6.62465 221.758 -6.45132 221.654 -6.31308C221.55 -6.17485 221.397 -6.08273 221.226 -6.05658L215.945 -5.37009C215.858 -5.35505 215.769 -5.35754 215.683 -5.37742C215.597 -5.39731 215.516 -5.43413 215.445 -5.48581C215.374 -5.53749 215.313 -5.60297 215.268 -5.67832C215.222 -5.75367 215.192 -5.83741 215.179 -5.92459C215.156 -6.09588 215.201 -6.26921 215.305 -6.40744C215.409 -6.54568 215.563 -6.6378 215.733 -6.66394C217.45 -6.928 219.193 -7.16562 221.015 -7.37687H221.147ZM278.949 -6.32066L283.121 -5.5813L284.23 -6.0038C284.398 -6.05765 284.581 -6.04694 284.742 -5.97374C284.903 -5.90054 285.031 -5.77009 285.101 -5.60773C285.161 -5.44315 285.152 -5.26164 285.078 -5.10319C285.004 -4.94475 284.87 -4.82231 284.705 -4.76273V-4.63065C284.667 -4.45729 284.563 -4.30549 284.416 -4.20702C284.268 -4.10855 284.088 -4.07113 283.913 -4.10258L283.253 -4.23458L279.767 -2.96716C279.603 -2.9077 279.421 -2.91601 279.263 -2.99028C279.104 -3.06456 278.982 -3.19869 278.922 -3.36323C278.889 -3.44439 278.873 -3.53155 278.875 -3.61924C278.877 -3.70694 278.898 -3.79325 278.935 -3.87268C278.972 -3.95211 279.025 -4.02291 279.091 -4.08066C279.157 -4.13842 279.235 -4.18189 279.318 -4.20823L280.718 -4.70994L278.764 -5.05315C278.677 -5.06596 278.593 -5.09612 278.518 -5.14179C278.442 -5.18747 278.377 -5.24779 278.325 -5.31916C278.273 -5.39053 278.237 -5.47152 278.217 -5.55737C278.197 -5.64321 278.194 -5.73212 278.209 -5.81894C278.254 -5.95818 278.343 -6.07938 278.462 -6.16489C278.58 -6.25039 278.723 -6.29569 278.87 -6.29422L278.949 -6.32066ZM210.716 -5.79251C210.866 -5.76221 211 -5.68131 211.096 -5.56341C211.192 -5.44551 211.245 -5.29786 211.245 -5.14558C211.245 -4.99331 211.192 -4.84574 211.096 -4.72783C211 -4.60993 210.866 -4.52896 210.716 -4.49865C208.974 -4.15538 207.257 -3.81209 205.594 -3.41601C205.423 -3.38362 205.246 -3.41747 205.099 -3.51061C204.951 -3.60376 204.845 -3.74925 204.801 -3.91772C204.782 -4.0027 204.78 -4.09071 204.794 -4.17664C204.809 -4.26257 204.841 -4.34474 204.887 -4.41839C204.934 -4.49204 204.995 -4.55571 205.066 -4.60575C205.137 -4.65579 205.218 -4.69122 205.303 -4.70994C206.967 -5.10603 208.709 -5.44923 210.584 -5.79251H210.716ZM289.273 -4.20823H289.432C291.148 -3.81214 292.891 -3.33681 294.555 -2.86151C294.726 -2.81249 294.871 -2.69734 294.958 -2.54135C295.045 -2.38536 295.066 -2.2013 295.017 -2.02972C294.968 -1.85814 294.852 -1.71306 294.696 -1.6264C294.54 -1.53974 294.356 -1.51863 294.185 -1.56766C292.521 -2.06936 290.831 -2.51823 289.115 -2.94072C288.948 -2.98435 288.805 -3.09176 288.716 -3.23985C288.627 -3.38794 288.6 -3.56489 288.64 -3.73286C288.682 -3.85132 288.756 -3.95589 288.854 -4.03505C288.952 -4.11422 289.069 -4.16497 289.194 -4.1818L289.273 -4.20823ZM200.445 -3.41601C200.587 -3.41601 200.726 -3.36971 200.841 -3.28401C200.955 -3.19831 201.038 -3.07785 201.078 -2.94072C201.102 -2.8575 201.11 -2.77032 201.101 -2.68415C201.091 -2.59797 201.065 -2.51446 201.023 -2.43845C200.982 -2.36243 200.925 -2.29537 200.858 -2.2411C200.79 -2.18682 200.713 -2.14643 200.629 -2.12215C198.86 -1.62044 197.197 -1.06588 195.665 -0.511362C195.501 -0.451907 195.319 -0.460298 195.161 -0.53457C195.002 -0.608841 194.88 -0.74298 194.82 -0.907512C194.787 -0.988673 194.771 -1.07583 194.773 -1.16353C194.775 -1.25122 194.795 -1.33754 194.833 -1.41696C194.87 -1.49639 194.923 -1.5672 194.989 -1.62495C195.055 -1.68271 195.132 -1.7261 195.216 -1.75243C196.774 -2.33336 198.464 -2.88795 200.26 -3.38966L200.445 -3.41601ZM274.645 -2.46544C274.806 -2.47242 274.964 -2.41992 275.09 -2.31797C275.215 -2.21603 275.299 -2.07168 275.325 -1.91223C275.351 -1.75279 275.317 -1.58933 275.231 -1.45282C275.145 -1.31631 275.011 -1.21622 274.856 -1.17151L269.839 0.491989C269.684 0.514712 269.526 0.481701 269.393 0.398834C269.261 0.315966 269.162 0.188669 269.114 0.0395906C269.066 -0.109488 269.073 -0.270619 269.134 -0.415064C269.194 -0.559509 269.303 -0.677916 269.443 -0.749084L274.433 -2.43901L274.645 -2.46544ZM299.387 -1.22437H299.598C301.341 -0.617036 302.978 0.0431621 304.536 0.729711C304.618 0.761095 304.693 0.809243 304.756 0.871217C304.819 0.933191 304.868 1.00759 304.9 1.0896C304.932 1.17161 304.947 1.25948 304.943 1.34755C304.94 1.43562 304.918 1.52194 304.879 1.60107C304.804 1.75796 304.673 1.88064 304.511 1.94435C304.349 2.00806 304.169 2.00807 304.008 1.94435C302.476 1.2578 300.866 0.624037 299.149 0.0167048C298.99 -0.0268668 298.852 -0.128713 298.764 -0.268723C298.676 -0.408734 298.644 -0.57667 298.674 -0.739333C298.704 -0.901997 298.794 -1.04758 298.926 -1.14717C299.058 -1.24676 299.222 -1.29312 299.387 -1.27715V-1.22437ZM190.358 0.280778C190.481 0.2887 190.601 0.326469 190.707 0.390856C190.812 0.455242 190.901 0.544364 190.965 0.650497C191.005 0.729926 191.028 0.816568 191.034 0.905304C191.04 0.994039 191.027 1.08303 190.998 1.16688C190.968 1.25072 190.922 1.3277 190.862 1.39324C190.802 1.45878 190.729 1.51153 190.648 1.54828C189.103 2.29643 187.627 3.18008 186.238 4.18886C186.115 4.30981 185.949 4.3775 185.776 4.3775C185.603 4.3775 185.437 4.30981 185.314 4.18886C185.258 4.12095 185.218 4.0422 185.194 3.95766C185.17 3.87312 185.165 3.78458 185.177 3.6977C185.189 3.61081 185.22 3.52744 185.266 3.45288C185.312 3.37833 185.374 3.31426 185.446 3.26464C186.908 2.25338 188.454 1.36993 190.067 0.624066C190.116 0.476692 190.22 0.353825 190.358 0.280778ZM264.294 0.861708C264.455 0.854725 264.613 0.907152 264.739 1.0091C264.864 1.11104 264.948 1.25539 264.974 1.41484C265 1.57428 264.966 1.73773 264.88 1.87424C264.793 2.01076 264.66 2.11085 264.505 2.15556L259.435 3.71349C259.267 3.76251 259.086 3.7428 258.933 3.65861C258.779 3.57443 258.665 3.43272 258.616 3.26464C258.567 3.09656 258.587 2.91587 258.671 2.76236C258.755 2.60885 258.897 2.49509 259.065 2.44607L264.109 0.888139L264.294 0.861708ZM308.682 3.10621H308.998C310.556 3.97144 312.063 4.92351 313.514 5.958C313.585 6.00803 313.646 6.07171 313.693 6.14535C313.739 6.219 313.771 6.30118 313.786 6.38711C313.8 6.47303 313.798 6.56104 313.778 6.64602C313.759 6.731 313.723 6.81126 313.672 6.88221C313.622 6.95361 313.559 7.01437 313.485 7.06103C313.411 7.10768 313.329 7.13929 313.243 7.15402C313.157 7.16875 313.069 7.16631 312.984 7.14685C312.899 7.12739 312.819 7.0913 312.748 7.04064C311.344 6.02927 309.88 5.10343 308.365 4.26807C308.235 4.19814 308.133 4.08687 308.074 3.95202C308.015 3.81717 308.002 3.66645 308.039 3.5238C308.075 3.38115 308.158 3.25474 308.275 3.16472C308.391 3.07469 308.534 3.02625 308.682 3.027V3.10621ZM254.18 3.89835C254.323 3.89835 254.462 3.94473 254.576 4.03043C254.691 4.11613 254.774 4.23651 254.814 4.37364C254.838 4.45686 254.846 4.54412 254.836 4.6303C254.827 4.71647 254.801 4.7999 254.759 4.87591C254.717 4.95193 254.661 5.01899 254.593 5.07326C254.526 5.12754 254.448 5.16793 254.365 5.19221L249.269 6.59179C249.187 6.61574 249.102 6.62304 249.017 6.6133C248.933 6.60357 248.851 6.57701 248.778 6.53514C248.704 6.49326 248.639 6.43692 248.587 6.36954C248.535 6.30215 248.498 6.22507 248.477 6.14286C248.428 5.97478 248.447 5.79409 248.531 5.64058C248.616 5.48706 248.757 5.37331 248.925 5.32428L253.995 3.92478L254.18 3.89835ZM243.988 6.53893C244.135 6.53306 244.28 6.57672 244.399 6.66286C244.519 6.749 244.607 6.87265 244.648 7.01421C244.689 7.18558 244.662 7.36613 244.574 7.5185C244.485 7.67087 244.342 7.78339 244.172 7.83278L238.891 9.10028C238.806 9.11936 238.718 9.12154 238.633 9.10665C238.547 9.09176 238.465 9.06008 238.391 9.0135C238.318 8.96691 238.254 8.90628 238.204 8.83508C238.154 8.76389 238.118 8.68353 238.099 8.59857C238.08 8.51361 238.078 8.42576 238.093 8.33998C238.108 8.25419 238.139 8.17219 238.186 8.09863C238.232 8.02507 238.293 7.9614 238.364 7.91127C238.435 7.86114 238.516 7.8255 238.601 7.80643L243.697 6.53893H243.988ZM182.092 6.53893C182.204 6.5007 182.325 6.5007 182.436 6.53893C182.511 6.5822 182.576 6.64033 182.627 6.70968C182.679 6.77904 182.715 6.85817 182.735 6.94225C182.755 7.02633 182.757 7.11355 182.742 7.19859C182.727 7.28362 182.695 7.36464 182.647 7.43671C182.364 7.91196 182.134 8.41668 181.96 8.94186C181.838 9.25288 181.775 9.58442 181.776 9.91886C181.777 10.2093 181.836 10.4966 181.949 10.7641C182.063 11.0316 182.228 11.2738 182.436 11.4768C182.509 11.5358 182.57 11.61 182.612 11.6942C182.655 11.7785 182.679 11.8709 182.683 11.9652C182.687 12.0595 182.67 12.1536 182.635 12.241C182.599 12.3285 182.545 12.4073 182.477 12.4722C182.408 12.537 182.326 12.5863 182.237 12.6169C182.147 12.6474 182.053 12.6584 181.959 12.6492C181.865 12.64 181.774 12.6107 181.692 12.5633C181.61 12.5159 181.54 12.4515 181.485 12.3746C181.159 12.0545 180.899 11.6724 180.722 11.2507C180.546 10.829 180.455 10.3761 180.455 9.91886C180.459 9.45129 180.54 8.98754 180.693 8.54579C180.904 7.91642 181.187 7.31383 181.538 6.75022C181.593 6.68754 181.661 6.63637 181.736 6.59977C181.811 6.56317 181.892 6.54182 181.976 6.53691C182.059 6.532 182.143 6.5437 182.222 6.57124C182.301 6.59878 182.373 6.6416 182.436 6.69735L182.092 6.53893ZM233.742 8.88907C233.892 8.89205 234.036 8.94596 234.152 9.04194C234.267 9.13793 234.346 9.27023 234.376 9.41714C234.395 9.50212 234.398 9.59013 234.383 9.67606C234.368 9.76199 234.337 9.84416 234.29 9.91781C234.243 9.99146 234.183 10.0551 234.111 10.1052C234.04 10.1552 233.959 10.1906 233.874 10.2094L228.593 11.3184C228.422 11.3492 228.245 11.3111 228.101 11.2121C227.958 11.1132 227.859 10.9616 227.827 10.7903C227.808 10.7069 227.806 10.6205 227.821 10.5363C227.836 10.4521 227.868 10.3718 227.915 10.3003C227.961 10.2287 228.022 10.1674 228.094 10.12C228.165 10.0726 228.245 10.0401 228.329 10.0245L233.478 8.91543L233.742 8.88907ZM317.131 9.15307C317.221 9.15426 317.309 9.17365 317.391 9.20996C317.472 9.24627 317.546 9.29879 317.607 9.36436C318.869 10.6453 319.984 12.0623 320.934 13.5893C321.018 13.7425 321.043 13.9212 321.004 14.0916C320.965 14.262 320.865 14.4121 320.723 14.5135C320.568 14.6015 320.385 14.6258 320.212 14.5814C320.04 14.5371 319.892 14.4275 319.798 14.2758C318.919 12.8224 317.864 11.4832 316.656 10.2886C316.592 10.227 316.541 10.1531 316.507 10.0715C316.472 9.98982 316.454 9.90195 316.454 9.81321C316.454 9.72447 316.472 9.63669 316.507 9.55502C316.541 9.47335 316.592 9.39951 316.656 9.33793C316.755 9.25486 316.879 9.20717 317.008 9.20238C317.137 9.1976 317.264 9.23606 317.369 9.31158L317.131 9.15307ZM223.391 11.0015C223.548 11.0046 223.699 11.0614 223.819 11.1623C223.939 11.2632 224.021 11.4021 224.051 11.556C224.075 11.7266 224.034 11.9001 223.937 12.042C223.839 12.1839 223.691 12.2837 223.523 12.3218C221.754 12.6651 220.011 12.9555 218.242 13.246C218.071 13.2687 217.897 13.2234 217.759 13.1197C217.621 13.0161 217.529 12.8623 217.503 12.6915C217.472 12.52 217.51 12.3432 217.609 12.1998C217.708 12.0563 217.859 11.9578 218.031 11.9257C219.721 11.6617 221.463 11.3448 223.312 11.0279L223.391 11.0015ZM212.987 12.7179C213.162 12.7179 213.33 12.7875 213.454 12.9113C213.578 13.0351 213.647 13.2029 213.647 13.378C213.647 13.5531 213.578 13.721 213.454 13.8448C213.33 13.9686 213.162 14.0381 212.987 14.0381C211.192 14.3022 209.422 14.5134 207.706 14.6983C207.613 14.7244 207.516 14.73 207.421 14.7145C207.326 14.699 207.235 14.6629 207.156 14.6088C207.076 14.5546 207.009 14.4837 206.96 14.4009C206.911 14.3182 206.88 14.2257 206.87 14.1299C206.861 14.0341 206.872 13.9373 206.903 13.8464C206.935 13.7554 206.986 13.6724 207.053 13.6032C207.12 13.5341 207.202 13.4805 207.292 13.4462C207.382 13.4118 207.478 13.3976 207.574 13.4044L212.855 12.7443L212.987 12.7179ZM186.582 13.4836H186.713C188.403 13.8115 190.116 14.0058 191.836 14.0646C192.014 14.0781 192.179 14.16 192.297 14.293C192.415 14.426 192.477 14.5997 192.47 14.7775C192.456 14.9479 192.377 15.1065 192.249 15.2197C192.121 15.333 191.954 15.3922 191.783 15.3849C190.011 15.3018 188.247 15.0989 186.502 14.7775C186.332 14.7337 186.184 14.6287 186.087 14.4825C185.989 14.3363 185.949 14.1593 185.974 13.9854C186.01 13.8942 186.066 13.8118 186.137 13.7439C186.207 13.6759 186.292 13.6238 186.385 13.5913C186.477 13.5588 186.576 13.5465 186.673 13.5553C186.771 13.564 186.866 13.5936 186.951 13.6421L186.582 13.4836ZM202.425 13.8797C202.6 13.8797 202.768 13.9493 202.892 14.0731C203.015 14.1969 203.085 14.3648 203.085 14.5399C203.085 14.7149 203.015 14.8829 202.892 15.0067C202.768 15.1305 202.6 15.2 202.425 15.2C200.577 15.332 198.807 15.4377 197.144 15.4641C196.973 15.4642 196.809 15.3983 196.686 15.2802C196.563 15.162 196.49 15.0008 196.484 14.8304C196.484 14.6528 196.552 14.482 196.675 14.354C196.798 14.2259 196.966 14.1506 197.144 14.1438C198.807 14.1438 200.55 14.0117 202.425 13.8797ZM322.386 18.0782C322.531 18.0841 322.671 18.1358 322.785 18.2259C322.899 18.3161 322.981 18.44 323.02 18.5799C323.423 20.1411 323.627 21.747 323.627 23.3594V24.0459C323.628 24.1338 323.61 24.2208 323.574 24.3013C323.539 24.3819 323.488 24.4542 323.423 24.5138C323.359 24.5734 323.283 24.619 323.199 24.6475C323.116 24.6761 323.028 24.687 322.941 24.6797C322.77 24.6728 322.609 24.6003 322.491 24.4772C322.373 24.3542 322.307 24.1901 322.307 24.0195V23.4386C322.311 21.9423 322.125 20.4516 321.752 19.0024C321.728 18.9192 321.721 18.832 321.73 18.7459C321.739 18.6597 321.766 18.5762 321.807 18.5002C321.849 18.4241 321.905 18.3571 321.973 18.3028C322.041 18.2485 322.118 18.2081 322.201 18.1839L322.386 18.0782ZM322.254 28.5085H322.386C322.471 28.5272 322.552 28.5626 322.623 28.6126C322.695 28.6627 322.755 28.7264 322.802 28.8001C322.849 28.8737 322.88 28.9559 322.895 29.0418C322.91 29.1278 322.907 29.2157 322.888 29.3007C322.505 31.0409 322.002 32.7525 321.383 34.4234C321.32 34.5833 321.197 34.7123 321.04 34.783C320.884 34.8538 320.706 34.8607 320.544 34.8022C320.382 34.7438 320.25 34.6246 320.175 34.47C320.1 34.3155 320.088 34.1377 320.142 33.9745C320.743 32.3564 321.229 30.6974 321.594 29.0102C321.631 28.9226 321.685 28.8436 321.754 28.7782C321.823 28.7127 321.905 28.6622 321.994 28.63C322.083 28.5977 322.178 28.5844 322.273 28.5907C322.368 28.5971 322.46 28.623 322.545 28.667L322.254 28.5085ZM318.689 38.3579H318.98C319.132 38.437 319.247 38.5722 319.301 38.7348C319.356 38.8974 319.345 39.0747 319.27 39.2292C318.505 40.7608 317.633 42.3451 316.63 43.903C316.528 44.0454 316.378 44.1456 316.208 44.1845C316.037 44.2235 315.859 44.1985 315.706 44.1143C315.558 44.017 315.454 43.8667 315.415 43.6946C315.375 43.5225 315.404 43.3418 315.494 43.1901C316.455 41.7246 317.337 40.2085 318.135 38.6483C318.237 38.5296 318.378 38.4511 318.533 38.427C318.688 38.4028 318.846 38.4345 318.98 38.5163L318.689 38.3579ZM313.171 47.3358C313.314 47.3316 313.454 47.3784 313.567 47.4678C313.688 47.5912 313.755 47.7572 313.755 47.93C313.755 48.1028 313.688 48.2686 313.567 48.392C312.537 49.7651 311.454 51.1911 310.292 52.5642C310.241 52.6416 310.174 52.7073 310.095 52.7569C310.016 52.8066 309.928 52.8391 309.836 52.8523C309.744 52.8655 309.65 52.859 309.561 52.8334C309.471 52.8078 309.388 52.7636 309.317 52.7037C309.246 52.6438 309.189 52.5696 309.148 52.4858C309.108 52.4021 309.085 52.3108 309.083 52.2178C309.08 52.1248 309.097 52.0324 309.133 51.9464C309.168 51.8605 309.221 51.783 309.289 51.7191C310.424 50.3725 311.507 49.0786 312.51 47.5999C312.555 47.517 312.619 47.4462 312.697 47.3935C312.775 47.3409 312.865 47.3079 312.958 47.2975C313.052 47.2871 313.146 47.2995 313.234 47.3338C313.321 47.3681 313.399 47.4232 313.461 47.4943L313.171 47.3358ZM306.437 55.4424C306.521 55.439 306.604 55.4537 306.682 55.4856C306.759 55.5175 306.829 55.5659 306.886 55.6272C306.949 55.6865 306.999 55.7581 307.034 55.8376C307.068 55.917 307.086 56.0027 307.086 56.0893C307.086 56.1759 307.068 56.2616 307.034 56.3411C306.999 56.4206 306.949 56.4921 306.886 56.5514C305.724 57.8189 304.483 59.192 303.189 60.3802C303.066 60.5012 302.9 60.569 302.727 60.569C302.554 60.569 302.388 60.5012 302.265 60.3802C302.202 60.321 302.152 60.2494 302.117 60.1699C302.083 60.0904 302.065 60.0048 302.065 59.9182C302.065 59.8316 302.083 59.7459 302.117 59.6664C302.152 59.5869 302.202 59.5153 302.265 59.4561C303.533 58.1886 304.906 56.8155 305.909 55.68C306.021 55.5839 306.159 55.5247 306.306 55.5105C306.452 55.4963 306.6 55.5278 306.728 55.6008L306.437 55.4424ZM298.964 62.8624C299.056 62.8634 299.147 62.8853 299.229 62.9265C299.312 62.9676 299.384 63.027 299.44 63.1C299.503 63.1593 299.553 63.2309 299.588 63.3104C299.622 63.3899 299.64 63.4755 299.64 63.5621C299.64 63.6487 299.622 63.7344 299.588 63.8139C299.553 63.8934 299.503 63.965 299.44 64.0242C298.146 65.2125 296.799 66.3743 295.479 67.5362C295.413 67.5934 295.336 67.6371 295.254 67.6647C295.171 67.6924 295.083 67.7035 294.996 67.6973C294.909 67.6912 294.824 67.668 294.746 67.629C294.668 67.5901 294.599 67.5361 294.541 67.4702C294.484 67.4043 294.44 67.3278 294.413 67.245C294.385 67.1622 294.374 67.0749 294.38 66.9878C294.386 66.9008 294.41 66.8158 294.449 66.7377C294.488 66.6596 294.541 66.59 294.607 66.5328C295.954 65.3709 297.248 64.2355 298.542 63.0472C298.649 62.983 298.77 62.947 298.895 62.9424C299.02 62.9377 299.143 62.9647 299.255 63.0208L298.964 62.8624ZM291.043 69.7279C291.145 69.7298 291.245 69.7546 291.336 69.8002C291.428 69.8459 291.508 69.9114 291.571 69.9919C291.634 70.0512 291.684 70.1228 291.719 70.2023C291.753 70.2818 291.771 70.3674 291.771 70.454C291.771 70.5406 291.753 70.6263 291.719 70.7058C291.684 70.7853 291.634 70.8569 291.571 70.9161C290.198 72.0252 288.798 73.1078 287.399 74.1905C287.259 74.2955 287.082 74.3406 286.909 74.3158C286.736 74.2911 286.579 74.1985 286.474 74.0584C286.369 73.9184 286.324 73.7423 286.349 73.569C286.374 73.3956 286.466 73.2393 286.606 73.1342C288.006 72.078 289.247 70.9689 290.752 69.8863C290.827 69.8528 290.908 69.8355 290.99 69.8355C291.072 69.8355 291.153 69.8528 291.227 69.8863L291.043 69.7279ZM282.646 76.1445C282.752 76.1402 282.859 76.1621 282.955 76.2081C283.052 76.2541 283.136 76.3229 283.2 76.4085C283.251 76.4795 283.287 76.5598 283.306 76.6448C283.326 76.7297 283.328 76.8177 283.313 76.9036C283.299 76.9896 283.267 77.0717 283.22 77.1454C283.174 77.219 283.113 77.2827 283.042 77.3327L278.738 80.3958C278.589 80.4887 278.411 80.5214 278.239 80.487C278.067 80.4526 277.915 80.3539 277.813 80.211C277.763 80.1421 277.728 80.0639 277.709 79.981C277.689 79.8981 277.687 79.8122 277.702 79.7284C277.717 79.6446 277.748 79.5647 277.795 79.4934C277.841 79.422 277.901 79.3607 277.972 79.3131L282.276 76.2765C282.354 76.2364 282.442 76.2177 282.53 76.2224C282.618 76.227 282.704 76.2548 282.778 76.3029L282.646 76.1445ZM273.985 82.1386C274.093 82.1396 274.2 82.1664 274.297 82.2169C274.393 82.2674 274.476 82.3401 274.539 82.429C274.632 82.5776 274.665 82.756 274.63 82.9278C274.596 83.0997 274.497 83.2519 274.354 83.3533C272.875 84.3303 271.397 85.3073 269.918 86.2315C269.766 86.3218 269.586 86.3503 269.414 86.311C269.241 86.2716 269.091 86.1675 268.994 86.0202C268.905 85.8726 268.877 85.696 268.917 85.5283C268.956 85.3605 269.06 85.2149 269.205 85.1224C270.684 84.1982 272.136 83.2212 273.615 82.2442C273.801 82.2076 273.993 82.226 274.169 82.297L273.985 82.1386ZM265.086 87.8158C265.227 87.8189 265.363 87.8673 265.475 87.9538C265.587 88.0403 265.668 88.1603 265.706 88.2963C265.745 88.4322 265.739 88.5769 265.689 88.7091C265.639 88.8412 265.548 88.9539 265.429 89.0305L260.914 91.671C260.759 91.759 260.576 91.7834 260.403 91.739C260.231 91.6947 260.083 91.5851 259.989 91.4334C259.903 91.2826 259.879 91.1037 259.924 90.9356C259.968 90.7675 260.077 90.6238 260.227 90.5356L264.743 87.895C264.83 87.865 264.924 87.8566 265.016 87.8703C265.108 87.8841 265.195 87.9198 265.271 87.9743L265.086 87.8158ZM256.002 93.0969C256.118 93.094 256.233 93.1217 256.335 93.1774C256.437 93.233 256.523 93.3146 256.583 93.4138C256.67 93.5646 256.693 93.7435 256.649 93.9116C256.604 94.0797 256.495 94.2234 256.345 94.3116L251.724 96.9522C251.65 97.013 251.563 97.0568 251.469 97.0803C251.376 97.1039 251.278 97.1067 251.184 97.0885C251.089 97.0704 250.999 97.0318 250.921 96.9754C250.843 96.9189 250.778 96.8461 250.731 96.7619C250.684 96.6778 250.656 96.5843 250.649 96.4882C250.642 96.3921 250.656 96.2956 250.691 96.2055C250.725 96.1155 250.778 96.034 250.848 95.9668C250.917 95.8996 251 95.8484 251.091 95.8167L255.685 93.1761L256.002 93.0969ZM246.76 98.1933C246.907 98.1925 247.051 98.241 247.167 98.331C247.284 98.421 247.367 98.5475 247.403 98.6901C247.44 98.8328 247.427 98.9835 247.368 99.1183C247.309 99.2532 247.207 99.3644 247.077 99.4343L242.403 101.89C242.326 101.935 242.241 101.963 242.152 101.972C242.064 101.982 241.974 101.973 241.889 101.945C241.805 101.918 241.727 101.873 241.661 101.813C241.594 101.754 241.542 101.681 241.505 101.6C241.465 101.524 241.441 101.441 241.433 101.355C241.426 101.269 241.437 101.183 241.464 101.102C241.491 101.02 241.534 100.945 241.591 100.881C241.649 100.817 241.718 100.765 241.796 100.728L246.443 98.2725L246.76 98.1933ZM237.386 103.026C237.541 103.018 237.694 103.065 237.818 103.158C237.942 103.252 238.029 103.386 238.063 103.537C238.098 103.689 238.078 103.847 238.008 103.986C237.937 104.124 237.82 104.233 237.677 104.293L232.924 106.617C232.77 106.668 232.603 106.66 232.455 106.596C232.306 106.532 232.186 106.416 232.118 106.269C232.049 106.123 232.037 105.956 232.084 105.801C232.13 105.646 232.231 105.513 232.369 105.428L237.096 103.105C237.182 103.09 237.27 103.096 237.353 103.124C237.436 103.152 237.511 103.199 237.571 103.263L237.386 103.026Z" fill="white"/>
<path d="M365.714 171.233H366.823C367.001 171.24 367.169 171.315 367.292 171.444C367.415 171.572 367.484 171.742 367.483 171.92C367.477 172.09 367.404 172.252 367.281 172.37C367.158 172.488 366.994 172.554 366.823 172.554H365.714C364.816 172.554 363.391 172.554 361.516 172.554C361.341 172.554 361.173 172.484 361.049 172.36C360.925 172.236 360.856 172.069 360.856 171.893C360.848 171.807 360.859 171.72 360.888 171.638C360.916 171.557 360.962 171.482 361.022 171.419C361.082 171.357 361.155 171.308 361.236 171.276C361.316 171.244 361.403 171.229 361.489 171.233C363.39 171.233 364.816 171.233 365.714 171.233ZM356.208 171.418C356.379 171.418 356.543 171.484 356.666 171.602C356.789 171.72 356.861 171.881 356.868 172.052C356.869 172.225 356.804 172.392 356.686 172.52C356.569 172.647 356.407 172.725 356.235 172.738C354.624 172.738 352.855 172.738 350.953 172.95C350.866 172.957 350.778 172.946 350.695 172.918C350.612 172.889 350.535 172.843 350.471 172.784C350.406 172.724 350.355 172.652 350.32 172.571C350.285 172.491 350.267 172.404 350.267 172.316C350.26 172.228 350.27 172.14 350.299 172.057C350.328 171.974 350.373 171.898 350.433 171.833C350.492 171.769 350.565 171.717 350.645 171.682C350.726 171.647 350.813 171.629 350.901 171.629C352.828 171.629 354.597 171.471 356.182 171.418H356.208ZM345.646 171.893C345.821 171.893 345.989 171.963 346.113 172.087C346.236 172.211 346.306 172.379 346.306 172.554C346.306 172.729 346.236 172.897 346.113 173.02C345.989 173.144 345.821 173.214 345.646 173.214L340.365 173.557C340.278 173.561 340.191 173.547 340.11 173.517C340.029 173.487 339.954 173.441 339.89 173.383C339.826 173.324 339.775 173.253 339.738 173.174C339.702 173.095 339.682 173.01 339.678 172.923C339.671 172.753 339.73 172.585 339.843 172.457C339.957 172.329 340.115 172.25 340.285 172.237L345.567 171.893H345.646ZM335.084 172.633C335.25 172.632 335.41 172.695 335.533 172.807C335.655 172.92 335.73 173.074 335.744 173.24C335.752 173.414 335.693 173.584 335.58 173.716C335.468 173.849 335.309 173.933 335.136 173.953L329.855 174.402C329.684 174.417 329.514 174.365 329.381 174.256C329.248 174.148 329.162 173.992 329.142 173.821C329.127 173.643 329.183 173.466 329.296 173.328C329.409 173.19 329.572 173.102 329.75 173.082L335.031 172.633H335.084ZM324.521 173.61C324.696 173.61 324.864 173.679 324.988 173.803C325.112 173.927 325.181 174.095 325.181 174.27C325.181 174.445 325.112 174.613 324.988 174.737C324.864 174.861 324.696 174.93 324.521 174.93L319.24 175.511C319.155 175.522 319.068 175.516 318.985 175.492C318.903 175.468 318.825 175.428 318.759 175.374C318.692 175.319 318.637 175.252 318.597 175.176C318.558 175.1 318.534 175.016 318.527 174.93C318.516 174.843 318.522 174.755 318.546 174.671C318.569 174.587 318.609 174.508 318.663 174.439C318.717 174.37 318.784 174.313 318.861 174.27C318.937 174.228 319.021 174.201 319.108 174.191L324.389 173.61H324.521ZM313.959 174.851C314.118 174.85 314.272 174.91 314.389 175.017C314.507 175.125 314.579 175.273 314.593 175.432C314.615 175.603 314.57 175.777 314.466 175.915C314.363 176.053 314.209 176.145 314.038 176.171L308.757 176.858C308.67 176.873 308.581 176.87 308.495 176.85C308.41 176.831 308.329 176.794 308.257 176.742C308.186 176.69 308.126 176.625 308.08 176.55C308.034 176.474 308.004 176.39 307.991 176.303C307.98 176.216 307.987 176.128 308.01 176.044C308.033 175.96 308.073 175.881 308.127 175.812C308.181 175.743 308.248 175.686 308.325 175.643C308.401 175.601 308.485 175.574 308.572 175.564L313.853 174.851H313.959ZM303.397 176.33C303.553 176.333 303.705 176.389 303.825 176.49C303.945 176.591 304.027 176.73 304.057 176.884C304.072 176.971 304.069 177.06 304.049 177.146C304.03 177.232 303.993 177.313 303.941 177.384C303.889 177.455 303.824 177.516 303.749 177.561C303.673 177.607 303.589 177.637 303.502 177.65L298.221 178.495C298.05 178.526 297.873 178.488 297.729 178.389C297.586 178.29 297.487 178.138 297.455 177.967C297.436 177.882 297.435 177.793 297.452 177.708C297.468 177.622 297.502 177.54 297.552 177.468C297.602 177.397 297.666 177.336 297.74 177.29C297.814 177.244 297.897 177.213 297.984 177.201L303.265 176.356L303.397 176.33ZM292.966 178.099C293.123 178.102 293.274 178.159 293.394 178.26C293.514 178.36 293.596 178.499 293.627 178.653C293.651 178.824 293.61 178.997 293.512 179.139C293.414 179.281 293.267 179.381 293.098 179.419L287.817 180.423C287.646 180.453 287.469 180.415 287.326 180.316C287.182 180.217 287.084 180.066 287.052 179.894C287.032 179.809 287.031 179.721 287.048 179.635C287.064 179.549 287.099 179.468 287.148 179.396C287.198 179.324 287.262 179.263 287.336 179.217C287.41 179.171 287.493 179.141 287.58 179.129C289.322 178.759 291.039 178.442 292.861 178.125L292.966 178.099ZM282.589 180.185C282.742 180.187 282.89 180.24 283.01 180.335C283.13 180.431 283.214 180.564 283.249 180.713C283.281 180.881 283.246 181.054 283.153 181.197C283.059 181.34 282.914 181.441 282.747 181.479L277.466 182.641C277.381 182.66 277.293 182.663 277.207 182.648C277.121 182.633 277.039 182.601 276.966 182.555C276.892 182.508 276.828 182.447 276.778 182.376C276.728 182.305 276.693 182.224 276.674 182.139C276.641 181.971 276.671 181.797 276.759 181.651C276.846 181.504 276.986 181.396 277.149 181.347L282.431 180.211L282.589 180.185ZM272.291 182.588C272.442 182.583 272.589 182.631 272.709 182.722C272.829 182.813 272.915 182.943 272.951 183.09C272.991 183.257 272.964 183.435 272.875 183.583C272.786 183.731 272.643 183.838 272.476 183.882L267.379 185.202C267.296 185.226 267.209 185.234 267.123 185.224C267.036 185.215 266.953 185.189 266.877 185.147C266.801 185.105 266.734 185.049 266.68 184.982C266.625 184.914 266.585 184.836 266.561 184.753C266.537 184.668 266.53 184.579 266.541 184.492C266.553 184.404 266.581 184.32 266.625 184.243C266.67 184.167 266.729 184.1 266.799 184.047C266.87 183.994 266.95 183.956 267.036 183.935L272.211 182.482L272.291 182.588ZM262.124 185.36C262.266 185.364 262.403 185.412 262.517 185.497C262.63 185.583 262.715 185.701 262.758 185.836C262.8 186.004 262.778 186.181 262.694 186.333C262.611 186.485 262.474 186.6 262.309 186.654C260.619 187.13 258.929 187.658 257.239 188.159C257.158 188.188 257.072 188.2 256.986 188.194C256.9 188.188 256.816 188.164 256.739 188.125C256.663 188.085 256.595 188.03 256.54 187.964C256.485 187.897 256.445 187.82 256.421 187.737C256.371 187.572 256.387 187.395 256.466 187.242C256.545 187.089 256.68 186.973 256.843 186.918C258.533 186.39 260.223 185.862 261.94 185.387L262.124 185.36ZM252.011 188.529C252.151 188.527 252.287 188.57 252.401 188.65C252.515 188.731 252.6 188.846 252.645 188.978C252.696 189.146 252.681 189.328 252.602 189.485C252.523 189.642 252.388 189.763 252.222 189.823C250.559 190.377 248.895 190.958 247.258 191.566C247.177 191.599 247.09 191.615 247.002 191.613C246.914 191.611 246.828 191.59 246.749 191.553C246.669 191.516 246.598 191.463 246.541 191.397C246.483 191.331 246.439 191.253 246.413 191.17C246.354 191.005 246.362 190.824 246.436 190.665C246.511 190.507 246.645 190.384 246.809 190.325C248.446 189.717 250.136 189.136 251.8 188.556L252.011 188.529ZM242.083 192.147C242.214 192.148 242.343 192.19 242.451 192.265C242.559 192.34 242.642 192.446 242.69 192.569C242.752 192.734 242.748 192.917 242.679 193.079C242.61 193.241 242.482 193.37 242.32 193.441C240.683 194.074 239.072 194.734 237.462 195.421C237.382 195.46 237.296 195.482 237.208 195.485C237.12 195.489 237.032 195.474 236.95 195.442C236.868 195.409 236.794 195.36 236.732 195.298C236.67 195.235 236.622 195.16 236.59 195.078C236.555 194.998 236.536 194.912 236.535 194.825C236.533 194.738 236.549 194.652 236.581 194.571C236.612 194.49 236.66 194.416 236.721 194.353C236.781 194.291 236.854 194.241 236.933 194.206C238.544 193.52 240.181 192.86 241.845 192.199L242.083 192.147ZM232.365 196.292C232.492 196.301 232.614 196.341 232.721 196.411C232.827 196.48 232.914 196.576 232.973 196.688C233.036 196.85 233.036 197.03 232.973 197.192C232.909 197.353 232.786 197.485 232.629 197.56L227.903 199.831C227.744 199.906 227.563 199.918 227.396 199.864C227.229 199.81 227.089 199.694 227.005 199.54C226.929 199.382 226.917 199.201 226.971 199.034C227.025 198.867 227.141 198.727 227.295 198.642L232.075 196.345L232.365 196.292ZM222.912 201.019C223.031 201.019 223.147 201.05 223.25 201.111C223.352 201.171 223.436 201.258 223.493 201.362C223.538 201.438 223.568 201.522 223.579 201.609C223.591 201.696 223.584 201.785 223.559 201.869C223.534 201.954 223.492 202.032 223.435 202.099C223.378 202.167 223.308 202.221 223.229 202.26C221.697 203.105 220.166 203.976 218.661 204.901C218.51 204.987 218.331 205.011 218.163 204.966C217.995 204.922 217.851 204.813 217.763 204.663C217.674 204.515 217.646 204.339 217.686 204.171C217.725 204.003 217.829 203.858 217.974 203.765L222.595 201.125C222.722 201.022 222.881 200.966 223.044 200.966L222.912 201.019ZM213.828 206.3C213.938 206.296 214.047 206.321 214.144 206.372C214.241 206.423 214.324 206.498 214.383 206.591C214.432 206.663 214.467 206.745 214.484 206.831C214.502 206.917 214.502 207.005 214.485 207.092C214.467 207.178 214.433 207.259 214.384 207.332C214.335 207.405 214.272 207.467 214.198 207.515C212.719 208.465 211.241 209.469 209.868 210.472C209.796 210.523 209.716 210.558 209.631 210.578C209.546 210.597 209.458 210.599 209.373 210.584C209.287 210.57 209.205 210.538 209.131 210.492C209.057 210.445 208.994 210.385 208.943 210.314C208.893 210.243 208.857 210.162 208.838 210.078C208.819 209.993 208.816 209.905 208.831 209.819C208.846 209.733 208.877 209.651 208.924 209.577C208.97 209.504 209.031 209.44 209.102 209.39C210.501 208.386 211.98 207.383 213.485 206.406C213.562 206.376 213.644 206.364 213.726 206.368C213.808 206.373 213.888 206.394 213.96 206.432L213.828 206.3ZM205.273 212.453C205.369 212.454 205.463 212.475 205.55 212.516C205.637 212.557 205.713 212.617 205.775 212.69C205.838 212.75 205.888 212.821 205.923 212.901C205.957 212.98 205.975 213.066 205.975 213.152C205.975 213.239 205.957 213.325 205.923 213.404C205.888 213.484 205.838 213.555 205.775 213.615C204.402 214.724 203.134 215.859 201.761 216.994C201.633 217.117 201.463 217.186 201.286 217.186C201.109 217.186 200.938 217.117 200.81 216.994C200.746 216.933 200.696 216.859 200.661 216.777C200.626 216.696 200.608 216.608 200.608 216.519C200.608 216.43 200.626 216.343 200.661 216.261C200.696 216.179 200.746 216.105 200.81 216.044C202.104 214.908 203.451 213.747 204.877 212.638C205.042 212.56 205.228 212.541 205.405 212.585L205.273 212.453ZM197.351 219.424C197.441 219.425 197.529 219.444 197.611 219.481C197.692 219.517 197.766 219.57 197.826 219.635C197.89 219.694 197.94 219.766 197.974 219.845C198.009 219.925 198.027 220.011 198.027 220.097C198.027 220.184 198.009 220.269 197.974 220.349C197.94 220.428 197.89 220.5 197.826 220.559C196.585 221.8 195.371 223.068 194.209 224.362C194.086 224.483 193.92 224.55 193.747 224.55C193.574 224.55 193.408 224.483 193.285 224.362C193.162 224.234 193.094 224.064 193.094 223.886C193.094 223.709 193.162 223.539 193.285 223.411C194.447 222.117 195.688 220.77 196.955 219.556C197.032 219.504 197.118 219.467 197.208 219.449C197.299 219.431 197.393 219.431 197.483 219.45L197.351 219.424ZM229.698 226.791C231.23 226.791 232.735 226.791 234.214 226.976C234.384 226.989 234.543 227.068 234.656 227.197C234.769 227.325 234.828 227.492 234.821 227.662C234.818 227.75 234.797 227.837 234.758 227.916C234.72 227.996 234.666 228.066 234.599 228.123C234.531 228.181 234.453 228.223 234.369 228.248C234.284 228.274 234.195 228.281 234.108 228.27C232.624 228.137 231.135 228.084 229.645 228.111H228.906C228.51 228.111 228.246 227.847 228.22 227.478C228.219 227.3 228.288 227.129 228.411 227.001C228.534 226.873 228.702 226.798 228.88 226.791H229.698ZM223.625 227.055C223.8 227.055 223.968 227.125 224.092 227.248C224.215 227.372 224.285 227.54 224.285 227.715C224.285 227.89 224.215 228.058 224.092 228.182C223.968 228.306 223.8 228.375 223.625 228.375C221.935 228.534 220.192 228.719 218.344 228.983C218.257 228.998 218.168 228.995 218.082 228.975C217.996 228.955 217.915 228.919 217.844 228.867C217.773 228.815 217.712 228.75 217.667 228.674C217.621 228.599 217.591 228.515 217.578 228.428C217.555 228.257 217.601 228.083 217.704 227.945C217.808 227.807 217.962 227.715 218.133 227.689C219.928 227.425 221.724 227.214 223.414 227.055H223.625ZM190.354 227.372C190.506 227.364 190.656 227.411 190.776 227.504C190.891 227.63 190.955 227.795 190.955 227.966C190.955 228.137 190.891 228.302 190.776 228.428C189.694 229.801 188.664 231.227 187.713 232.653C187.615 232.8 187.463 232.902 187.289 232.937C187.116 232.972 186.936 232.936 186.789 232.838C186.642 232.74 186.54 232.587 186.505 232.414C186.47 232.241 186.506 232.061 186.604 231.914C187.581 230.461 188.637 229.009 189.72 227.61C189.798 227.521 189.896 227.452 190.007 227.411C190.117 227.369 190.237 227.356 190.354 227.372ZM239.442 227.662C241.228 227.949 242.992 228.354 244.723 228.877C244.808 228.898 244.888 228.936 244.958 228.99C245.027 229.043 245.085 229.111 245.127 229.188C245.17 229.265 245.195 229.35 245.203 229.437C245.211 229.524 245.2 229.613 245.172 229.696C245.148 229.779 245.107 229.857 245.053 229.924C244.999 229.992 244.932 230.048 244.856 230.09C244.78 230.131 244.696 230.158 244.61 230.167C244.524 230.176 244.437 230.169 244.353 230.145C242.692 229.634 240.998 229.237 239.284 228.956C239.115 228.918 238.968 228.818 238.87 228.676C238.772 228.535 238.731 228.361 238.755 228.191C238.81 228.032 238.92 227.899 239.066 227.816C239.212 227.733 239.384 227.707 239.548 227.742L239.442 227.662ZM213.195 228.666C213.35 228.677 213.496 228.742 213.607 228.85C213.719 228.959 213.789 229.103 213.804 229.257C213.82 229.412 213.781 229.567 213.694 229.696C213.606 229.824 213.476 229.918 213.327 229.96C211.637 230.303 209.92 230.699 208.204 231.148C208.121 231.172 208.033 231.178 207.948 231.166C207.862 231.155 207.779 231.126 207.705 231.082C207.631 231.037 207.566 230.978 207.516 230.908C207.466 230.837 207.43 230.757 207.412 230.673C207.372 230.505 207.399 230.328 207.488 230.18C207.577 230.031 207.72 229.924 207.887 229.88C209.604 229.432 211.346 229.009 213.168 228.666H213.195ZM249.503 230.725C249.598 230.701 249.698 230.701 249.793 230.725C251.423 231.489 252.994 232.371 254.493 233.366C254.639 233.459 254.742 233.604 254.782 233.772C254.821 233.94 254.793 234.116 254.704 234.264C254.607 234.411 254.457 234.515 254.285 234.555C254.113 234.594 253.932 234.565 253.78 234.475C252.328 233.539 250.811 232.709 249.238 231.993C249.082 231.918 248.961 231.785 248.901 231.622C248.842 231.459 248.849 231.279 248.922 231.122C248.987 231.002 249.089 230.907 249.212 230.849C249.336 230.792 249.475 230.777 249.608 230.805L249.503 230.725ZM202.976 231.28C203.115 231.281 203.25 231.329 203.36 231.415C203.47 231.501 203.548 231.62 203.583 231.755C203.633 231.92 203.617 232.098 203.538 232.25C203.459 232.403 203.324 232.519 203.161 232.574C201.497 233.076 199.833 233.63 198.143 234.211C197.979 234.261 197.801 234.245 197.648 234.166C197.495 234.087 197.379 233.952 197.325 233.789C197.292 233.709 197.276 233.624 197.278 233.538C197.281 233.452 197.301 233.367 197.339 233.29C197.376 233.213 197.429 233.144 197.495 233.089C197.561 233.034 197.638 232.993 197.721 232.97C199.411 232.363 201.101 231.808 202.764 231.306L202.976 231.28ZM192.994 234.739C193.126 234.741 193.254 234.782 193.363 234.857C193.471 234.933 193.554 235.039 193.602 235.162C193.664 235.327 193.66 235.509 193.591 235.671C193.522 235.833 193.394 235.963 193.232 236.033C191.595 236.667 189.984 237.327 188.347 238.013C188.267 238.048 188.181 238.067 188.094 238.069C188.007 238.071 187.921 238.055 187.84 238.023C187.759 237.991 187.685 237.944 187.622 237.883C187.56 237.822 187.51 237.75 187.475 237.67C187.412 237.508 187.412 237.329 187.475 237.167C187.539 237.005 187.662 236.874 187.819 236.799L192.73 234.792L192.994 234.739ZM184.492 236.086C184.596 236.062 184.704 236.062 184.808 236.086C184.96 236.179 185.071 236.326 185.12 236.497C185.169 236.668 185.152 236.851 185.073 237.01C184.65 237.723 184.254 238.462 183.858 239.202C183.93 239.359 183.938 239.539 183.878 239.702C183.819 239.865 183.698 239.999 183.541 240.073H183.356L182.643 241.525C182.564 241.678 182.43 241.795 182.269 241.853C182.108 241.912 181.93 241.908 181.772 241.842C181.615 241.768 181.494 241.635 181.435 241.472C181.375 241.309 181.383 241.129 181.455 240.971L178.814 242.265C178.66 242.339 178.482 242.35 178.32 242.296C178.157 242.242 178.022 242.126 177.943 241.974C177.867 241.816 177.856 241.635 177.91 241.468C177.964 241.301 178.079 241.161 178.233 241.077C179.633 240.39 181.032 239.703 182.406 239.07C182.907 238.119 183.409 237.168 183.937 236.244C184.031 236.176 184.141 236.133 184.257 236.119C184.372 236.106 184.49 236.121 184.597 236.165L184.492 236.086ZM258.428 236.429C258.591 236.429 258.75 236.485 258.877 236.588C260.21 237.78 261.454 239.069 262.6 240.443C262.721 240.566 262.788 240.732 262.788 240.905C262.788 241.078 262.721 241.244 262.6 241.367C262.54 241.43 262.469 241.48 262.389 241.515C262.31 241.549 262.224 241.567 262.138 241.567C262.051 241.567 261.965 241.549 261.886 241.515C261.806 241.48 261.735 241.43 261.676 241.367C260.565 240.036 259.356 238.792 258.058 237.644C257.937 237.52 257.869 237.354 257.869 237.182C257.869 237.009 257.937 236.843 258.058 236.72C258.16 236.603 258.301 236.528 258.454 236.508L258.428 236.429ZM173.929 243.638C174.047 243.643 174.162 243.677 174.263 243.736C174.364 243.796 174.449 243.88 174.51 243.981C174.551 244.059 174.576 244.144 174.584 244.232C174.591 244.319 174.581 244.407 174.554 244.491C174.527 244.575 174.483 244.652 174.426 244.719C174.369 244.785 174.299 244.84 174.22 244.879C172.688 245.698 171.157 246.569 169.625 247.52C169.471 247.607 169.289 247.63 169.118 247.583C168.947 247.536 168.802 247.423 168.714 247.269C168.627 247.115 168.604 246.932 168.651 246.761C168.698 246.59 168.811 246.445 168.965 246.358C170.497 245.486 172.055 244.641 173.612 243.717C173.716 243.69 173.825 243.69 173.929 243.717V243.638ZM265.188 244.509C265.297 244.508 265.405 244.534 265.501 244.585C265.598 244.635 265.681 244.709 265.742 244.8C266.429 245.935 267.089 247.123 267.696 248.338L268.277 249.526C268.349 249.691 268.353 249.877 268.289 250.045C268.225 250.213 268.097 250.349 267.934 250.424C267.772 250.488 267.592 250.488 267.43 250.424C267.269 250.36 267.137 250.238 267.062 250.081L266.508 248.919C265.927 247.731 265.293 246.595 264.633 245.513C264.543 245.361 264.514 245.18 264.554 245.008C264.593 244.836 264.697 244.686 264.844 244.588C264.957 244.564 265.074 244.564 265.188 244.588V244.509ZM180.082 245.618C180.159 245.594 180.242 245.594 180.32 245.618C180.484 245.678 180.618 245.8 180.693 245.959C180.767 246.117 180.775 246.299 180.716 246.463L180.452 247.15C179.923 248.576 179.448 250.002 179.026 251.401C179.005 251.486 178.966 251.566 178.913 251.636C178.859 251.705 178.792 251.763 178.715 251.805C178.638 251.848 178.553 251.873 178.466 251.881C178.378 251.889 178.29 251.878 178.207 251.85C178.124 251.826 178.046 251.785 177.979 251.731C177.911 251.677 177.855 251.61 177.813 251.534C177.771 251.458 177.745 251.374 177.736 251.288C177.726 251.202 177.734 251.115 177.758 251.031C178.181 249.606 178.656 248.153 179.21 246.675L179.475 245.988C179.54 245.89 179.632 245.811 179.738 245.759C179.845 245.708 179.964 245.687 180.082 245.698V245.618ZM164.74 248.893C164.881 248.896 165.018 248.944 165.13 249.031C165.241 249.117 165.322 249.237 165.361 249.373C165.399 249.509 165.393 249.654 165.343 249.786C165.293 249.918 165.202 250.031 165.083 250.107C163.578 251.005 162.1 251.956 160.621 252.906C160.549 252.954 160.468 252.986 160.383 253.001C160.298 253.017 160.21 253.014 160.126 252.994C160.042 252.975 159.963 252.938 159.894 252.886C159.824 252.835 159.766 252.77 159.723 252.695C159.674 252.622 159.639 252.541 159.622 252.455C159.604 252.369 159.604 252.28 159.621 252.194C159.639 252.108 159.673 252.026 159.722 251.954C159.771 251.881 159.834 251.819 159.908 251.771C161.387 250.82 162.892 249.896 164.397 248.972C164.51 248.948 164.627 248.948 164.74 248.972V248.893ZM269.571 254.121C269.706 254.125 269.837 254.17 269.945 254.25C270.054 254.33 270.135 254.442 270.178 254.57C270.774 256.296 271.25 258.06 271.604 259.851C271.623 259.938 271.625 260.028 271.608 260.115C271.592 260.202 271.558 260.286 271.509 260.36C271.459 260.434 271.396 260.497 271.321 260.546C271.247 260.594 271.164 260.627 271.076 260.643C270.905 260.674 270.728 260.636 270.584 260.537C270.441 260.438 270.342 260.286 270.31 260.115C269.957 258.416 269.498 256.74 268.937 255.098C268.887 254.933 268.903 254.756 268.982 254.603C269.061 254.45 269.196 254.334 269.36 254.279L269.571 254.121ZM155.762 254.675C155.871 254.676 155.978 254.703 156.075 254.754C156.171 254.804 156.254 254.877 156.317 254.966C156.366 255.038 156.401 255.12 156.418 255.206C156.435 255.292 156.436 255.381 156.418 255.467C156.401 255.553 156.367 255.635 156.318 255.707C156.269 255.78 156.205 255.842 156.132 255.89C154.68 256.867 153.254 257.871 151.828 258.9C151.757 258.952 151.676 258.99 151.59 259.011C151.505 259.032 151.416 259.035 151.329 259.022C151.242 259.008 151.158 258.978 151.083 258.932C151.008 258.886 150.942 258.826 150.89 258.755C150.838 258.684 150.801 258.603 150.78 258.518C150.759 258.432 150.755 258.343 150.769 258.256C150.782 258.169 150.813 258.086 150.859 258.011C150.904 257.935 150.964 257.87 151.036 257.818L155.393 254.781C155.522 254.688 155.684 254.65 155.841 254.675H155.762ZM177.151 255.811C177.317 255.849 177.462 255.95 177.556 256.093C177.65 256.235 177.684 256.409 177.653 256.577C177.312 258.322 177.074 260.085 176.94 261.858C176.914 262.028 176.828 262.183 176.697 262.295C176.566 262.407 176.399 262.467 176.227 262.465C176.14 262.458 176.055 262.435 175.978 262.395C175.9 262.356 175.831 262.301 175.775 262.235C175.718 262.169 175.675 262.092 175.649 262.009C175.622 261.926 175.612 261.839 175.619 261.752C175.767 259.979 176.014 258.216 176.359 256.471C176.365 256.375 176.391 256.281 176.435 256.195C176.479 256.109 176.54 256.033 176.614 255.972C176.688 255.91 176.773 255.864 176.866 255.836C176.958 255.809 177.055 255.8 177.151 255.811ZM147.18 260.828C147.283 260.828 147.384 260.852 147.476 260.898C147.567 260.944 147.647 261.01 147.708 261.092C147.814 261.232 147.859 261.408 147.834 261.581C147.809 261.755 147.716 261.911 147.576 262.016L143.404 265.238C143.338 265.3 143.259 265.349 143.173 265.379C143.087 265.41 142.995 265.423 142.904 265.416C142.813 265.41 142.724 265.384 142.643 265.342C142.562 265.299 142.491 265.24 142.434 265.168C142.378 265.097 142.336 265.014 142.313 264.926C142.29 264.838 142.285 264.745 142.299 264.655C142.313 264.565 142.346 264.478 142.395 264.401C142.445 264.324 142.51 264.259 142.586 264.208L146.784 260.96C146.92 260.856 147.09 260.809 147.26 260.828H147.18ZM271.683 264.34C271.854 264.34 272.018 264.406 272.141 264.524C272.264 264.642 272.337 264.803 272.343 264.974C272.343 265.475 272.343 265.951 272.343 266.426C272.337 267.742 272.249 269.056 272.079 270.36C272.07 270.447 272.043 270.53 272 270.605C271.957 270.68 271.899 270.746 271.83 270.798C271.761 270.85 271.681 270.887 271.597 270.907C271.513 270.927 271.425 270.93 271.34 270.915C271.253 270.905 271.169 270.878 271.093 270.836C271.016 270.793 270.949 270.736 270.895 270.667C270.841 270.598 270.801 270.519 270.778 270.435C270.754 270.351 270.748 270.262 270.759 270.176C270.941 268.934 271.029 267.681 271.023 266.426C271.023 265.977 271.023 265.502 271.023 265.026C271.016 264.856 271.075 264.689 271.188 264.561C271.302 264.433 271.46 264.353 271.631 264.34H271.683ZM176.279 266.215C176.45 266.215 176.614 266.281 176.737 266.399C176.86 266.517 176.933 266.678 176.94 266.848C177.005 268.57 177.208 270.283 177.547 271.971C177.566 272.058 177.568 272.148 177.551 272.235C177.535 272.323 177.501 272.406 177.452 272.48C177.402 272.554 177.339 272.617 177.264 272.666C177.19 272.715 177.106 272.748 177.019 272.763C176.847 272.794 176.671 272.756 176.527 272.657C176.384 272.558 176.285 272.407 176.253 272.235C175.908 270.493 175.697 268.728 175.619 266.954C175.612 266.783 175.671 266.616 175.784 266.488C175.898 266.36 176.056 266.281 176.227 266.268L176.279 266.215ZM138.995 267.324C139.183 267.325 139.364 267.401 139.496 267.535C139.619 267.663 139.687 267.833 139.687 268.01C139.687 268.188 139.619 268.358 139.496 268.486C138.15 269.621 136.856 270.757 135.509 271.918C135.386 272.039 135.22 272.107 135.047 272.107C134.874 272.107 134.708 272.039 134.585 271.918C134.518 271.861 134.464 271.791 134.427 271.711C134.391 271.631 134.372 271.544 134.372 271.456C134.372 271.368 134.391 271.282 134.427 271.202C134.464 271.122 134.518 271.051 134.585 270.994C135.879 269.832 137.225 268.67 138.598 267.509C138.717 267.436 138.857 267.408 138.995 267.429V267.324ZM131.073 274.348C131.163 274.346 131.252 274.363 131.334 274.4C131.416 274.436 131.49 274.491 131.548 274.559C131.669 274.682 131.737 274.848 131.737 275.021C131.737 275.194 131.669 275.36 131.548 275.483C130.254 276.698 128.908 277.913 127.772 279.154C127.71 279.217 127.637 279.268 127.555 279.303C127.473 279.338 127.386 279.356 127.297 279.356C127.208 279.356 127.12 279.338 127.039 279.303C126.957 279.268 126.883 279.217 126.822 279.154C126.706 279.027 126.643 278.862 126.643 278.691C126.643 278.521 126.706 278.356 126.822 278.229C128.063 276.988 129.33 275.747 130.624 274.533C130.766 274.445 130.937 274.416 131.099 274.453L131.073 274.348ZM270.284 274.902H270.495C270.66 274.962 270.796 275.083 270.875 275.241C270.953 275.398 270.969 275.579 270.918 275.747C270.336 277.451 269.594 279.096 268.7 280.659C268.611 280.808 268.469 280.918 268.303 280.967C268.136 281.016 267.957 281 267.802 280.923C267.65 280.829 267.539 280.683 267.491 280.512C267.442 280.341 267.459 280.158 267.538 279.999C268.407 278.521 269.115 276.954 269.65 275.325C269.699 275.197 269.786 275.089 269.9 275.013C270.013 274.937 270.148 274.899 270.284 274.902ZM178.365 276.671C178.497 276.673 178.626 276.714 178.734 276.79C178.842 276.865 178.925 276.971 178.973 277.094C179.591 278.699 180.351 280.245 181.244 281.715C181.33 281.866 181.354 282.045 181.309 282.213C181.265 282.381 181.156 282.525 181.006 282.613C180.934 282.66 180.853 282.693 180.768 282.708C180.683 282.723 180.596 282.721 180.512 282.701C180.428 282.681 180.348 282.644 180.279 282.593C180.21 282.541 180.152 282.476 180.108 282.401C179.183 280.864 178.397 279.247 177.758 277.569C177.724 277.488 177.706 277.401 177.707 277.312C177.707 277.224 177.724 277.137 177.759 277.055C177.793 276.974 177.844 276.901 177.907 276.839C177.971 276.778 178.046 276.73 178.128 276.698L178.365 276.671ZM123.626 281.953C123.793 281.962 123.951 282.027 124.075 282.137C124.138 282.197 124.189 282.268 124.223 282.348C124.258 282.427 124.275 282.513 124.275 282.6C124.275 282.686 124.258 282.772 124.223 282.851C124.189 282.931 124.138 283.002 124.075 283.062C122.887 284.382 121.699 285.702 120.563 286.996C120.44 287.117 120.274 287.185 120.101 287.185C119.928 287.185 119.763 287.117 119.639 286.996C119.576 286.937 119.526 286.865 119.491 286.786C119.457 286.706 119.439 286.621 119.439 286.534C119.439 286.447 119.457 286.362 119.491 286.282C119.526 286.203 119.576 286.131 119.639 286.072C120.801 284.752 121.989 283.431 123.204 282.111C123.318 282.001 123.468 281.935 123.626 281.926V281.953ZM265.108 284.012C265.26 284.004 265.41 284.051 265.531 284.144C265.595 284.206 265.646 284.28 265.68 284.361C265.715 284.443 265.733 284.531 265.733 284.62C265.733 284.708 265.715 284.796 265.68 284.878C265.646 284.959 265.595 285.033 265.531 285.095C264.377 286.461 263.123 287.741 261.781 288.924C261.72 288.995 261.644 289.052 261.559 289.091C261.473 289.131 261.381 289.152 261.287 289.152C261.193 289.153 261.1 289.134 261.014 289.096C260.928 289.058 260.852 289.002 260.789 288.932C260.727 288.861 260.68 288.779 260.652 288.689C260.624 288.6 260.615 288.505 260.626 288.412C260.638 288.319 260.669 288.229 260.718 288.149C260.767 288.068 260.832 288 260.91 287.947C262.195 286.795 263.403 285.56 264.527 284.25C264.594 284.16 264.682 284.089 264.784 284.043C264.885 283.997 264.997 283.977 265.108 283.986V284.012ZM183.779 285.649C183.873 285.645 183.967 285.662 184.053 285.698C184.14 285.735 184.218 285.79 184.28 285.861C185.396 287.179 186.624 288.398 187.951 289.505C188.028 289.556 188.094 289.623 188.144 289.702C188.193 289.781 188.226 289.869 188.239 289.961C188.252 290.053 188.246 290.147 188.22 290.236C188.194 290.326 188.15 290.409 188.09 290.48C188.03 290.551 187.956 290.608 187.872 290.649C187.789 290.689 187.697 290.712 187.604 290.714C187.511 290.717 187.419 290.7 187.333 290.664C187.247 290.629 187.17 290.576 187.106 290.508C185.733 289.351 184.453 288.088 183.277 286.732C183.156 286.609 183.088 286.443 183.088 286.27C183.088 286.097 183.156 285.931 183.277 285.808C183.414 285.683 183.594 285.617 183.779 285.623V285.649ZM116.708 289.954C116.859 289.956 117.005 290.002 117.131 290.086C117.253 290.213 117.322 290.384 117.322 290.561C117.322 290.738 117.253 290.908 117.131 291.036C116.022 292.409 114.939 293.835 113.936 295.208C113.812 295.329 113.646 295.397 113.473 295.397C113.301 295.397 113.135 295.329 113.011 295.208C112.943 295.159 112.885 295.096 112.841 295.024C112.797 294.951 112.768 294.871 112.756 294.787C112.744 294.704 112.748 294.618 112.769 294.536C112.791 294.454 112.828 294.378 112.879 294.31C113.883 292.911 114.965 291.485 116.101 290.059C116.183 289.989 116.282 289.94 116.388 289.917C116.494 289.894 116.604 289.898 116.708 289.927V289.954ZM257.239 290.983C257.348 290.984 257.455 291.011 257.552 291.062C257.648 291.112 257.731 291.185 257.794 291.274C257.881 291.424 257.91 291.601 257.876 291.771C257.842 291.941 257.747 292.093 257.609 292.198C256.121 293.167 254.578 294.048 252.988 294.839C252.912 294.88 252.828 294.907 252.742 294.916C252.655 294.925 252.568 294.918 252.484 294.893C252.401 294.869 252.323 294.828 252.256 294.773C252.188 294.718 252.132 294.651 252.09 294.575C252.015 294.416 252.003 294.235 252.057 294.068C252.111 293.901 252.227 293.761 252.381 293.677C253.923 292.877 255.421 291.995 256.87 291.036C256.981 290.971 257.111 290.943 257.239 290.957V290.983ZM191.78 292.462C191.891 292.424 192.012 292.424 192.123 292.462C193.59 293.389 195.116 294.218 196.691 294.944C196.85 295.024 196.971 295.162 197.03 295.329C197.089 295.497 197.081 295.68 197.008 295.842C196.924 295.996 196.785 296.114 196.62 296.172C196.454 296.231 196.273 296.226 196.11 296.159C194.503 295.37 192.942 294.488 191.436 293.518C191.361 293.472 191.295 293.412 191.243 293.34C191.192 293.268 191.155 293.187 191.135 293.101C191.115 293.015 191.113 292.925 191.129 292.838C191.144 292.751 191.177 292.668 191.225 292.594C191.3 292.529 191.389 292.481 191.485 292.454C191.581 292.426 191.681 292.42 191.78 292.436V292.462ZM247.865 295.842C248.001 295.842 248.133 295.882 248.246 295.957C248.359 296.032 248.447 296.139 248.499 296.264C248.533 296.344 248.55 296.43 248.55 296.516C248.549 296.602 248.531 296.688 248.497 296.767C248.462 296.846 248.412 296.917 248.349 296.976C248.285 297.035 248.211 297.08 248.129 297.109C246.492 297.77 244.802 298.351 243.086 298.852C243.005 298.885 242.918 298.9 242.83 298.896C242.743 298.892 242.657 298.869 242.58 298.829C242.502 298.789 242.434 298.732 242.38 298.663C242.326 298.595 242.288 298.515 242.267 298.43C242.217 298.265 242.233 298.087 242.312 297.935C242.391 297.782 242.527 297.666 242.69 297.611C244.38 297.109 246.043 296.529 247.628 295.895L247.865 295.842ZM201.286 297.004H201.497C203.142 297.593 204.817 298.095 206.514 298.509C206.686 298.551 206.833 298.659 206.925 298.81C207.017 298.962 207.045 299.143 207.003 299.314C206.96 299.486 206.852 299.634 206.701 299.725C206.55 299.817 206.369 299.845 206.197 299.803C204.428 299.354 202.712 298.852 201.074 298.271C200.909 298.211 200.773 298.09 200.695 297.933C200.616 297.776 200.601 297.595 200.652 297.426C200.697 297.294 200.782 297.18 200.896 297.099C201.01 297.018 201.146 296.976 201.286 296.977V297.004ZM110.529 298.509C110.642 298.486 110.759 298.486 110.872 298.509C111.02 298.606 111.124 298.757 111.163 298.929C111.203 299.101 111.174 299.282 111.084 299.433C110.107 300.938 109.182 302.443 108.443 303.922C108.355 304.072 108.211 304.181 108.043 304.226C107.875 304.27 107.696 304.246 107.545 304.16C107.469 304.118 107.401 304.062 107.347 303.995C107.292 303.927 107.251 303.849 107.227 303.766C107.202 303.682 107.194 303.595 107.204 303.508C107.213 303.422 107.239 303.338 107.281 303.262C108.126 301.757 109.05 300.225 110.054 298.72C110.111 298.649 110.183 298.59 110.265 298.549C110.347 298.508 110.437 298.485 110.529 298.483V298.509ZM237.884 298.852C238.034 298.855 238.178 298.909 238.294 299.005C238.409 299.101 238.488 299.233 238.518 299.38C238.537 299.465 238.54 299.553 238.525 299.639C238.51 299.725 238.479 299.807 238.432 299.881C238.385 299.955 238.325 300.018 238.253 300.068C238.182 300.118 238.101 300.154 238.016 300.173C236.3 300.542 234.53 300.833 232.735 301.097C232.648 301.108 232.56 301.101 232.476 301.078C232.391 301.055 232.313 301.015 232.244 300.961C232.175 300.907 232.117 300.84 232.075 300.763C232.032 300.687 232.005 300.603 231.996 300.516C231.973 300.345 232.018 300.171 232.122 300.033C232.226 299.895 232.379 299.803 232.55 299.776C234.293 299.539 236.036 299.248 237.831 298.879L237.884 298.852ZM211.61 299.565C213.327 299.829 215.069 300.067 216.891 300.199C216.978 300.206 217.063 300.229 217.14 300.269C217.218 300.308 217.287 300.363 217.343 300.429C217.4 300.495 217.443 300.572 217.469 300.655C217.496 300.738 217.506 300.825 217.499 300.912C217.479 301.085 217.394 301.243 217.262 301.356C217.13 301.469 216.96 301.527 216.786 301.519C214.99 301.361 213.221 301.15 211.505 300.859C211.339 300.827 211.191 300.732 211.093 300.595C210.995 300.457 210.953 300.287 210.977 300.12C210.991 299.986 211.047 299.86 211.137 299.761C211.227 299.661 211.347 299.592 211.478 299.565H211.61ZM227.454 300.305C227.62 300.304 227.78 300.366 227.903 300.479C228.025 300.592 228.101 300.746 228.114 300.912C228.121 301.09 228.059 301.263 227.941 301.396C227.823 301.529 227.658 301.611 227.48 301.625C225.949 301.625 224.364 301.625 222.806 301.625H222.041C221.866 301.625 221.698 301.555 221.574 301.432C221.45 301.308 221.38 301.14 221.38 300.965C221.38 300.79 221.45 300.622 221.574 300.498C221.698 300.374 221.866 300.305 222.041 300.305H222.674C224.206 300.305 225.764 300.305 227.269 300.305H227.454ZM105.486 307.698H105.776C105.935 307.778 106.056 307.916 106.115 308.083C106.175 308.251 106.166 308.434 106.093 308.596C105.339 310.161 104.669 311.765 104.086 313.402C104.021 313.562 103.898 313.692 103.741 313.766C103.585 313.839 103.406 313.851 103.241 313.798C103.077 313.738 102.943 313.616 102.868 313.457C102.794 313.299 102.786 313.118 102.845 312.953C103.426 311.342 104.113 309.679 104.878 308.015C104.931 307.932 105.001 307.861 105.083 307.807C105.165 307.752 105.257 307.715 105.354 307.698H105.486ZM101.921 317.6H102.079C102.164 317.619 102.244 317.654 102.314 317.705C102.385 317.755 102.444 317.819 102.488 317.894C102.533 317.968 102.562 318.05 102.573 318.136C102.585 318.222 102.578 318.309 102.555 318.393C102.166 320.072 101.884 321.774 101.71 323.489C101.71 323.664 101.64 323.832 101.516 323.956C101.393 324.079 101.225 324.149 101.049 324.149C100.874 324.149 100.707 324.079 100.583 323.956C100.459 323.832 100.389 323.664 100.389 323.489C100.556 321.708 100.856 319.943 101.287 318.208C101.298 318.067 101.353 317.934 101.442 317.825C101.532 317.716 101.653 317.638 101.789 317.6H101.921ZM100.997 328.163C101.163 328.162 101.323 328.224 101.446 328.337C101.568 328.45 101.644 328.604 101.657 328.77C101.801 330.481 102.129 332.172 102.634 333.813C102.683 333.982 102.663 334.162 102.579 334.316C102.495 334.469 102.353 334.583 102.185 334.632C102.104 334.661 102.017 334.672 101.931 334.666C101.845 334.66 101.761 334.637 101.685 334.597C101.608 334.558 101.54 334.503 101.486 334.436C101.431 334.37 101.39 334.292 101.366 334.21C100.836 332.491 100.49 330.721 100.337 328.928C100.329 328.755 100.387 328.585 100.5 328.452C100.612 328.32 100.771 328.235 100.944 328.215L100.997 328.163Z" fill="white"/>
</g>
<defs>
<clipPath id="clip0_3603_2955">
<rect width="800" height="212" fill="white"/>
</clipPath>
</defs>
</svg>
