<svg width="80" height="80" viewBox="0 0 80 80" fill="none" xmlns="http://www.w3.org/2000/svg">
<rect width="80" height="80" rx="20" fill="#4D4A49"/>
<path d="M33.75 61.8751V58.7501H43.1282V61.8751H33.75ZM55.625 35.3126C55.627 37.8477 55.0659 40.3517 53.9824 42.6436C52.8988 44.9356 51.3198 46.9583 49.3594 48.5657C47.4875 50.1095 46.25 52.2938 46.25 54.722V55.6251H30.625V54.9251C30.625 52.5813 29.6782 50.2688 27.8313 48.822C25.3372 46.8711 23.4314 44.2685 22.3245 41.3019C21.2176 38.3353 20.9528 35.1203 21.5594 32.0126C22.7969 25.3501 28.0969 19.8969 34.7313 18.5126C37.2437 17.9613 39.8477 17.9804 42.3517 18.5683C44.8558 19.1562 47.1962 20.2981 49.2007 21.9099C51.2052 23.5216 52.8229 25.5623 53.9347 27.8818C55.0465 30.2012 55.6241 32.7404 55.625 35.3126ZM29.0625 36.8751C29.0625 30.4157 32.7688 25.9376 38.4375 25.9376V22.8126C30.8969 22.8126 25.9375 28.8063 25.9375 36.8751H29.0625Z" fill="#FDFEFF"/>
</svg>
