<svg width="80" height="80" viewBox="0 0 80 80" fill="none" xmlns="http://www.w3.org/2000/svg">
<rect width="80" height="80" rx="20" fill="#4D4A49"/>
<path d="M34.896 17.7152C34.0148 17.6998 33.155 17.8851 32.3105 18.3983L32.3113 18.396C31.895 18.6493 31.4568 19.0162 31.0414 19.105C29.682 19.3962 28.5356 20.1708 27.2416 20.5822C26.626 20.7775 26.33 21.1543 26.3485 21.7924C26.096 22.2498 25.6974 22.5361 25.2343 22.7549C24.824 22.9479 24.4331 23.1685 24.311 23.6553C24.309 23.6569 24.3069 23.6584 24.305 23.6601C23.8225 24.2224 23.3151 24.7652 22.823 25.6059L37.9094 20.6549C37.2568 20.0344 36.5791 19.5093 37.3334 18.5573C36.6568 18.6033 36.1785 18.9957 35.6086 18.9076C35.932 18.4263 36.6241 18.5282 36.9938 18.0554C36.2798 17.8606 35.5814 17.7272 34.896 17.7152ZM42.992 20.7193C42.3563 20.7588 41.7447 20.809 41.2171 21.2656C40.5903 21.8045 39.8859 21.9577 39.1751 21.3583C38.6387 20.9056 38.116 20.9913 37.5076 21.2858C36.103 21.9675 34.6622 22.5766 33.2375 23.2147C29.9325 24.7021 26.6282 26.1911 23.3247 27.6817C22.2686 28.027 22.2218 28.123 22.4647 29.175C22.6422 29.943 22.9625 30.7515 22.0613 31.3243C21.9626 31.369 21.879 31.4416 21.8208 31.5331C21.7627 31.6246 21.7325 31.731 21.7339 31.8394C21.733 31.84 21.7322 31.8402 21.7313 31.8406C21.4974 32.6579 21.6935 33.4525 21.842 34.2552C21.9364 34.7635 22.1727 34.7441 22.5632 34.5585C23.4466 34.1375 24.3429 33.7429 25.2384 33.3485C28.0696 32.1038 30.9014 30.8601 33.7336 29.6172C33.813 29.6204 33.8925 29.6132 33.97 29.5956C33.878 29.6442 33.793 29.7018 33.7466 29.8101L30.8422 31.5123L26.4687 33.7404C25.2158 33.9567 24.1291 34.6335 22.9415 35.0176C22.2065 35.2547 22.3526 35.5106 22.8535 35.8405C23.3223 36.4052 24.0129 36.5448 24.6607 36.7643C24.6616 36.7637 24.6625 36.7634 24.6634 36.7627C25.1653 36.9981 25.6643 37.2413 26.1718 37.4652C26.6438 37.6751 27.0826 37.7476 27.3698 37.149C27.5312 36.8093 27.8249 36.7601 28.1766 36.9215C28.7246 37.1768 29.3048 37.1844 29.8914 37.0831L29.8909 37.0836C29.8921 37.0837 29.8934 37.0836 29.8944 37.0838L29.8974 37.0862L29.9015 37.0843C30.1238 37.1037 30.3434 37.1066 30.5363 36.9652C30.8018 36.9652 31.0695 36.9443 31.3318 36.9709C32.5806 37.0984 33.881 36.6739 35.0839 37.3387C35.3123 37.4645 35.5252 37.2153 35.7293 37.1113C37.8967 36.0021 40.0615 34.8879 42.2237 33.7687C45.0958 32.2886 47.9669 30.8088 50.8368 29.3292C51.0829 29.2018 51.6435 29.1461 51.1547 28.6484V28.6443C50.8195 27.9692 50.5192 27.2812 50.4002 26.5291C50.4011 26.5282 50.4018 26.5273 50.4026 26.5264C50.3646 25.9658 50.1735 25.4519 49.9314 24.9502C49.7216 24.5202 49.4853 24.4006 48.9956 24.6185C47.8621 25.1235 46.6994 25.5843 45.5377 25.9997C44.3759 26.4152 43.2973 27.0678 42.0485 27.2372C42.0472 27.237 42.0459 27.237 42.0447 27.2368L42.0453 27.2364C42.034 27.0452 42.2066 27.0669 42.3107 27.0089L48.4731 23.5777C48.4957 23.0025 48.2892 22.4853 48.0697 21.9722C48.0693 21.9725 48.0688 21.9727 48.0684 21.9728L48.0686 21.9722C47.7734 21.2243 47.2555 21.0056 46.5068 21.3049C45.9992 21.5152 45.4584 21.6338 44.9093 21.6552V21.6535L44.9054 21.6549L44.4786 21.6204C43.8784 21.4921 43.5009 20.9976 42.9918 20.7193L42.992 20.7193ZM52.0618 30.4521C51.9222 30.4605 51.7644 30.5191 51.5784 30.6168C49.3065 31.8084 47.0144 32.961 44.7289 34.1252C42.0432 35.4967 39.3534 36.8537 36.6774 38.2397C36.5088 38.326 36.0354 38.3076 36.2613 38.7294C36.5563 39.2785 36.4669 39.859 36.4821 40.4347C36.4818 40.4347 36.4816 40.435 36.4813 40.4351V40.4374C36.4749 40.7195 36.4691 41.0013 36.4637 41.2829C36.5266 41.7347 36.6922 42.1661 36.9477 42.544L36.9506 42.5446L36.9485 42.5455L37.2752 42.9804L38.0409 43.9388C38.1716 44.8302 38.6257 44.8399 39.3922 44.5777C42.1707 43.6258 44.9767 42.7512 47.7721 41.8477L47.9335 42.0139C47.9342 42.0138 47.9349 42.0137 47.9357 42.0135L44.8888 43.4555C44.3813 43.591 43.9207 43.8283 43.4648 44.0856C43.398 44.0781 43.3304 44.0893 43.2695 44.1177C43.2086 44.1462 43.1567 44.1909 43.1196 44.2469C41.9094 44.6972 40.7302 45.227 39.59 45.833C39.5712 45.8242 39.5497 45.8229 39.53 45.8295C39.5103 45.8361 39.4939 45.8501 39.4843 45.8685C39.2385 45.8952 39.0077 45.9995 38.8251 46.1661C38.4016 46.2613 37.9255 46.3993 37.9481 46.9043C38.0045 48.1668 37.5665 49.3148 37.2406 50.4926L37.2398 50.4928C37.1396 50.6674 37.0953 50.8686 37.1131 51.0692C37.1309 51.2697 37.2097 51.46 37.3391 51.6143C37.5876 51.9119 37.9175 51.561 38.1901 51.4618C42.3286 49.9613 46.4636 48.4513 50.5951 46.9318C51.1412 46.7317 51.8421 46.6429 52.1737 46.2517C52.5303 45.8297 52.0478 45.1496 52.085 44.5711C52.1316 44.3229 52.179 44.0747 52.2256 43.8256C52.2258 43.8252 52.2259 43.8251 52.2263 43.8249C52.4748 43.061 53.0831 42.4985 53.3937 41.7693L54.8104 39.8009C55.1113 39.1555 55.8494 38.9521 56.2415 38.3979L56.2232 38.4042L56.2375 38.3963C57.0805 37.8792 57.441 37.003 58.0348 36.0914L54.2012 37.2692C53.9841 37.2835 53.7703 37.3153 53.5585 37.3563C53.6709 37.2914 53.7695 37.2051 53.8487 37.1022C54.0843 36.9893 54.3223 36.8788 54.5562 36.7618C55.7906 36.1455 57.1451 35.7864 58.3068 35.0152C58.2756 35.0093 58.2471 34.9931 58.2262 34.9692C58.2528 34.9836 58.2794 34.9982 58.3068 35.0152C58.419 34.6787 58.377 34.3366 58.3134 34.0034L58.3157 34.0083C58.2253 33.5363 58.018 33.2943 57.509 33.6347C57.1873 33.8651 56.8163 34.0174 56.4255 34.0793C56.4245 34.08 56.4235 34.0806 56.4225 34.0812C56.4225 34.08 56.4228 34.0788 56.4232 34.0777C55.7157 34.0243 54.9855 34.0382 54.4999 33.3743H54.5022C54.2747 33.062 54.0327 33.287 53.802 33.379C52.0188 34.0955 50.2361 34.8133 48.4539 35.5323C48.3201 35.5447 48.1923 35.5752 48.067 35.6147C48.1435 35.5406 48.2107 35.4572 48.2563 35.3524C49.5451 34.684 50.8327 34.0134 52.119 33.3403C52.6797 33.0467 53.5962 32.8353 53.7027 32.4207C53.8415 31.8833 52.971 31.4419 52.6539 30.8772C52.4765 30.5631 52.2945 30.4381 52.0619 30.4521H52.0618ZM52.2951 47.0304C52.2176 47.0252 52.1178 47.0476 51.9898 47.1003C47.4872 48.9587 42.9803 50.8068 38.4693 52.6444C38.1248 52.7881 38.0505 52.9139 38.2273 53.2721C38.658 54.1433 39.0541 55.033 39.276 55.9873C39.2755 55.9874 39.275 55.9875 39.2744 55.9876H39.276V55.9886C39.3026 56.2508 39.3664 56.5163 39.3494 56.7761C39.3091 57.3772 39.418 57.5618 40.0715 57.2714C43.0613 55.9402 46.0835 54.6833 49.0725 53.3513C50.3448 52.7842 51.2112 51.7766 51.7428 50.4858C51.7418 50.4859 51.7408 50.486 51.7398 50.486C51.7405 50.4858 51.7408 50.4854 51.7415 50.4847C52.5127 49.6021 52.633 48.5469 52.5483 47.4385C52.5288 47.1867 52.466 47.0416 52.2953 47.0303L52.2951 47.0304ZM57.2591 48.6802C56.8997 48.6828 56.6646 49.0543 56.498 49.3867C56.3491 49.6828 56.2412 49.9999 56.115 50.3081L56.1139 50.3091C55.8929 50.7649 55.7161 51.1722 55.0151 51.0609C54.5221 50.9826 53.846 51.3739 53.8936 51.841C53.992 52.8163 53.3394 53.6514 53.5395 54.6034C53.6165 54.674 53.6914 54.7007 53.7651 54.7027C53.6761 54.7566 53.593 54.8211 53.5226 54.9084C53.3983 55.3819 53.2627 55.8539 53.3943 56.35C53.395 56.35 53.3956 56.3497 53.3967 56.3497C53.7808 57.1958 54.0693 57.3035 54.8993 57.0665C55.9046 56.7781 55.9005 55.9218 56.0668 55.1489C56.2192 54.753 56.3311 54.353 56.2852 53.8814L54.833 54.3218L54.8321 54.3259C54.7179 54.3687 54.5875 54.3362 54.4729 54.3837C54.547 54.3247 54.6128 54.2555 54.6626 54.1669C54.9095 54.0225 55.1442 53.8476 55.4064 53.7378C57.224 52.9819 57.5185 51.3885 57.6549 49.7041C57.6629 49.3434 57.913 48.84 57.421 48.7028C57.3683 48.6878 57.3138 48.6802 57.2591 48.6803V48.6802ZM49.0668 53.9635C46.0084 55.5423 43.0864 57.0833 40.1288 58.5524C39.3688 58.9308 39.2349 59.3422 39.6261 60.024C39.7922 60.6401 40.2243 61.0278 40.7548 61.3327V61.3335L40.7553 61.3333C40.7554 61.3333 40.7556 61.3333 40.7557 61.3335L40.7573 61.3337C40.954 61.5977 41.2312 61.7007 41.5439 61.7344C42.6516 62.3879 43.9738 61.7981 44.5829 60.3782C45.3575 59.9393 46.1271 59.4827 46.9081 59.0519C47.4096 58.7753 47.763 58.4334 47.6441 57.8038C47.6443 57.8035 47.6443 57.8031 47.6447 57.8028C47.794 57.389 48.3281 57.2857 48.4297 56.8347C48.3386 55.861 49.1597 55.0598 49.0677 53.9651L49.0668 53.9635Z" fill="#FDFEFF"/>
</svg>
