<svg width="100" height="100" viewBox="0 0 100 100" fill="none" xmlns="http://www.w3.org/2000/svg">
<circle cx="50" cy="50" r="50" fill="url(#paint0_radial_3603_3072)" style="mix-blend-mode:hard-light"/>
<path d="M38.5938 46.7969L42.25 48.3437C42.6875 47.4687 43.1406 46.625 43.6094 45.8125C44.0781 45 44.5938 44.1875 45.1562 43.375L42.5312 42.8594L38.5938 46.7969ZM45.25 50.6875L50.5938 55.9844C51.9063 55.4844 53.3125 54.7187 54.8125 53.6875C56.3125 52.6562 57.7188 51.4844 59.0312 50.1719C61.2188 47.9844 62.93 45.555 64.165 42.8837C65.3988 40.2112 65.9375 37.75 65.7813 35.5C63.5313 35.3437 61.0625 35.8825 58.375 37.1162C55.6875 38.3512 53.25 40.0625 51.0625 42.25C49.75 43.5625 48.5781 44.9687 47.5469 46.4687C46.5156 47.9687 45.75 49.375 45.25 50.6875ZM53.5938 47.6406C52.875 46.9219 52.5156 46.0387 52.5156 44.9912C52.5156 43.945 52.875 43.0625 53.5938 42.3437C54.3125 41.625 55.2031 41.2656 56.2656 41.2656C57.3281 41.2656 58.2188 41.625 58.9375 42.3437C59.6563 43.0625 60.0156 43.945 60.0156 44.9912C60.0156 46.0387 59.6563 46.9219 58.9375 47.6406C58.2188 48.3594 57.3281 48.7187 56.2656 48.7187C55.2031 48.7187 54.3125 48.3594 53.5938 47.6406ZM54.4844 62.6875L58.4219 58.75L57.9062 56.125C57.0938 56.6875 56.2812 57.195 55.4688 57.6475C54.6562 58.1012 53.8125 58.5469 52.9375 58.9844L54.4844 62.6875ZM69.1563 32.0781C69.75 35.8594 69.3831 39.5387 68.0556 43.1162C66.7269 46.695 64.4375 50.1094 61.1875 53.3594L62.125 58C62.25 58.625 62.2188 59.2344 62.0313 59.8281C61.8438 60.4219 61.5312 60.9375 61.0938 61.375L53.2188 69.25L49.2813 60.0156L41.2656 52L32.0313 48.0625L39.8594 40.1875C40.2969 39.75 40.8206 39.4375 41.4306 39.25C42.0394 39.0625 42.6562 39.0312 43.2812 39.1562L47.9219 40.0937C51.1719 36.8437 54.5781 34.5469 58.1406 33.2031C61.7031 31.8594 65.375 31.4844 69.1563 32.0781ZM35.3594 57.9531C36.4531 56.8594 37.7888 56.3044 39.3663 56.2881C40.945 56.2731 42.2812 56.8125 43.375 57.9062C44.4688 59 45.0075 60.3356 44.9913 61.9131C44.9763 63.4919 44.4219 64.8281 43.3281 65.9219C42.5469 66.7031 41.2425 67.375 39.415 67.9375C37.5863 68.5 35.0625 69 31.8438 69.4375C32.2813 66.2187 32.7812 63.695 33.3438 61.8662C33.9062 60.0387 34.5781 58.7344 35.3594 57.9531ZM38.0313 60.5781C37.7188 60.8906 37.4063 61.4612 37.0938 62.29C36.7812 63.1175 36.5625 63.9531 36.4375 64.7969C37.2813 64.6719 38.1175 64.4612 38.9463 64.165C39.7738 63.8675 40.3438 63.5625 40.6562 63.25C41.0312 62.875 41.2344 62.4219 41.2656 61.8906C41.2969 61.3594 41.125 60.9062 40.75 60.5312C40.375 60.1562 39.9219 59.9762 39.3906 59.9912C38.8594 60.0075 38.4063 60.2031 38.0313 60.5781Z" fill="white"/>
<defs>
<radialGradient id="paint0_radial_3603_3072" cx="0" cy="0" r="1" gradientUnits="userSpaceOnUse" gradientTransform="translate(11.6667 85) rotate(-44.6726) scale(103.121)">
<stop stop-color="#264FAD"/>
<stop offset="1" stop-color="#5F0A87"/>
</radialGradient>
</defs>
</svg>
