<svg width="29" height="31" viewBox="0 0 29 31" fill="none" xmlns="http://www.w3.org/2000/svg">
<path d="M11 25.3336C4.33329 27.3336 4.33329 22.0002 1.66663 21.3336M20.3333 29.3336V24.1736C20.3833 23.5378 20.2974 22.8986 20.0813 22.2986C19.8652 21.6986 19.5239 21.1515 19.08 20.6936C23.2666 20.2269 27.6666 18.6402 27.6666 11.3602C27.6663 9.49868 26.9502 7.70851 25.6666 6.36024C26.2744 4.73158 26.2315 2.93137 25.5466 1.33358C25.5466 1.33358 23.9733 0.866909 20.3333 3.30691C17.2773 2.47867 14.0559 2.47867 11 3.30691C7.35996 0.866909 5.78663 1.33358 5.78663 1.33358C5.10179 2.93137 5.05882 4.73158 5.66663 6.36024C4.37346 7.71851 3.65666 9.52486 3.66663 11.4002C3.66663 18.6269 8.06663 20.2136 12.2533 20.7336C11.8146 21.1869 11.4763 21.7274 11.2604 22.3201C11.0444 22.9128 10.9557 23.5443 11 24.1736V29.3336" stroke="#264FAD" stroke-width="1.66667" stroke-linecap="round" stroke-linejoin="round"/>
</svg>
