<svg width="244" height="65" viewBox="0 0 244 65" fill="none" xmlns="http://www.w3.org/2000/svg">
<path d="M84.9922 24.238V46H79.6912V37.041H71.4452V46H66.1442V24.238H71.4452V32.763H79.6912V24.238H84.9922ZM89.315 37.32C89.315 35.5427 89.6456 33.9823 90.307 32.639C90.989 31.2957 91.9086 30.2623 93.066 29.539C94.2233 28.8157 95.515 28.454 96.941 28.454C98.1603 28.454 99.2246 28.702 100.134 29.198C101.064 29.694 101.777 30.345 102.273 31.151V28.702H107.574V46H102.273V43.551C101.756 44.357 101.033 45.008 100.103 45.504C99.1936 46 98.1293 46.248 96.91 46.248C95.5046 46.248 94.2233 45.8863 93.066 45.163C91.9086 44.419 90.989 43.3753 90.307 42.032C89.6456 40.668 89.315 39.0973 89.315 37.32ZM102.273 37.351C102.273 36.0283 101.901 34.9847 101.157 34.22C100.434 33.4553 99.545 33.073 98.491 33.073C97.437 33.073 96.538 33.4553 95.794 34.22C95.0706 34.964 94.709 35.9973 94.709 37.32C94.709 38.6427 95.0706 39.6967 95.794 40.482C96.538 41.2467 97.437 41.629 98.491 41.629C99.545 41.629 100.434 41.2467 101.157 40.482C101.901 39.7173 102.273 38.6737 102.273 37.351ZM123.53 46L118.26 38.746V46H112.959V23.06H118.26V35.739L123.499 28.702H130.04L122.848 37.382L130.102 46H123.53ZM136.338 26.904C135.408 26.904 134.643 26.6353 134.044 26.098C133.465 25.54 133.176 24.858 133.176 24.052C133.176 23.2253 133.465 22.5433 134.044 22.006C134.643 21.448 135.408 21.169 136.338 21.169C137.247 21.169 137.991 21.448 138.57 22.006C139.169 22.5433 139.469 23.2253 139.469 24.052C139.469 24.858 139.169 25.54 138.57 26.098C137.991 26.6353 137.247 26.904 136.338 26.904ZM138.973 28.702V46H133.672V28.702H138.973ZM166.437 28.516C168.586 28.516 170.291 29.167 171.552 30.469C172.833 31.771 173.474 33.5793 173.474 35.894V46H168.204V36.607C168.204 35.491 167.904 34.6333 167.305 34.034C166.726 33.414 165.92 33.104 164.887 33.104C163.853 33.104 163.037 33.414 162.438 34.034C161.859 34.6333 161.57 35.491 161.57 36.607V46H156.3V36.607C156.3 35.491 156 34.6333 155.401 34.034C154.822 33.414 154.016 33.104 152.983 33.104C151.949 33.104 151.133 33.414 150.534 34.034C149.955 34.6333 149.666 35.491 149.666 36.607V46H144.365V28.702H149.666V30.872C150.203 30.1487 150.906 29.5803 151.774 29.167C152.642 28.733 153.623 28.516 154.719 28.516C156.021 28.516 157.178 28.795 158.191 29.353C159.224 29.911 160.03 30.7067 160.609 31.74C161.208 30.7893 162.024 30.0143 163.058 29.415C164.091 28.8157 165.217 28.516 166.437 28.516Z" fill="#424242"/>
<path d="M197.579 24.238V46H192.278V37.041H184.032V46H178.731V24.238H184.032V32.763H192.278V24.238H197.579ZM220.037 28.702V46H214.736V43.644C214.199 44.4087 213.465 45.0287 212.535 45.504C211.626 45.9587 210.613 46.186 209.497 46.186C208.174 46.186 207.007 45.8967 205.994 45.318C204.981 44.7187 204.196 43.861 203.638 42.745C203.08 41.629 202.801 40.3167 202.801 38.808V28.702H208.071V38.095C208.071 39.2523 208.371 40.1513 208.97 40.792C209.569 41.4327 210.375 41.753 211.388 41.753C212.421 41.753 213.238 41.4327 213.837 40.792C214.436 40.1513 214.736 39.2523 214.736 38.095V28.702H220.037ZM230.696 31.151C231.192 30.345 231.905 29.694 232.835 29.198C233.765 28.702 234.829 28.454 236.028 28.454C237.454 28.454 238.745 28.8157 239.903 29.539C241.06 30.2623 241.969 31.2957 242.631 32.639C243.313 33.9823 243.654 35.5427 243.654 37.32C243.654 39.0973 243.313 40.668 242.631 42.032C241.969 43.3753 241.06 44.419 239.903 45.163C238.745 45.8863 237.454 46.248 236.028 46.248C234.808 46.248 233.744 46.0103 232.835 45.535C231.925 45.039 231.212 44.388 230.696 43.582V46H225.395V23.06H230.696V31.151ZM238.26 37.32C238.26 35.9973 237.888 34.964 237.144 34.22C236.42 33.4553 235.521 33.073 234.447 33.073C233.393 33.073 232.494 33.4553 231.75 34.22C231.026 34.9847 230.665 36.0283 230.665 37.351C230.665 38.6737 231.026 39.7173 231.75 40.482C232.494 41.2467 233.393 41.629 234.447 41.629C235.501 41.629 236.4 41.2467 237.144 40.482C237.888 39.6967 238.26 38.6427 238.26 37.32Z" fill="#FF7272"/>
<g clip-path="url(#clip0_1_632)">
<path d="M36.5077 34.3864C35.6545 35.2265 35.637 36.6005 36.477 37.4537C37.3171 38.307 38.6821 38.3245 39.544 37.4843C39.6053 37.4231 39.6665 37.3531 39.719 37.2918C40.4628 40.8273 40.7866 41.2999 41.2547 41.2999C41.3072 41.2999 41.3641 41.2911 41.4253 41.2824C42.0729 41.1905 42.086 41.1905 42.5935 32.6405C42.6022 32.4655 42.6154 32.2861 42.6241 32.1111C42.6329 32.2248 42.646 32.343 42.6547 32.448C43.2716 38.832 43.2716 38.832 43.731 39.0071C44.3217 39.239 44.6236 38.7052 45.2667 37.5369C45.4373 37.2349 45.6911 36.7667 45.853 36.5392C46.6055 36.6223 48.6662 36.7842 49.2831 35.9835C49.4056 35.8304 49.5675 35.5766 49.7425 35.2834C49.9744 34.9202 50.4556 34.1545 50.7575 33.8613C50.8975 34.032 51.0725 34.3164 51.2125 34.5395C51.7988 35.4759 52.4594 36.5305 53.3738 36.5523H53.4045L58.1734 36.5611H59.7178V37.2437C59.7178 39.996 57.4865 42.2188 54.7433 42.2188H46.9511V50.0249C46.9511 52.7684 44.7198 55 41.9678 55H38.4765C35.7333 55 33.502 52.7684 33.502 50.0249V42.2232H25.6967C22.9535 42.2232 20.7222 40.0003 20.7222 37.2481V33.7563C20.7222 31.004 22.9535 28.7812 25.6967 28.7812H33.502V20.9751C33.502 18.2316 35.7333 16 38.4765 16H41.9678C44.7198 16 46.9511 18.2316 46.9511 20.9751V28.7812H54.7476C57.4908 28.7812 59.7222 31.004 59.7222 33.7563V35.4103H58.1777L53.4351 35.4015C53.4351 35.4015 53.4263 35.4015 53.4176 35.4015C53.1157 35.4015 52.4507 34.3339 52.1969 33.927C51.8644 33.4019 51.6063 32.9906 51.3044 32.7718C51.1206 32.6318 50.88 32.588 50.6525 32.6318C50.0225 32.7543 49.4843 33.555 48.7756 34.6708C48.6224 34.9246 48.4824 35.1478 48.3906 35.2615C48.1062 35.4978 46.4742 35.4759 45.7698 35.3622C45.2142 35.279 44.9386 35.7604 44.2779 36.9549C44.1379 35.7472 43.9629 33.9182 43.8185 32.343C43.1885 25.8145 43.1885 25.8145 42.6329 25.7052C42.4666 25.6745 42.2916 25.7139 42.1604 25.8189C41.8541 26.0508 41.8366 26.064 41.4472 32.5705C41.3378 34.3558 41.2153 36.5217 41.0928 38.1451C40.9703 37.6156 40.8259 36.9593 40.6641 36.1454L40.6422 36.0623C40.5809 35.756 40.4059 35.5766 40.1478 35.4759C40.069 35.0909 39.8809 34.7233 39.579 34.4214C38.739 33.5638 37.3696 33.5507 36.5077 34.3864Z" fill="url(#paint0_linear_1_632)"/>
</g>
<defs>
<linearGradient id="paint0_linear_1_632" x1="23.8877" y1="42.8223" x2="59.4801" y2="26.877" gradientUnits="userSpaceOnUse">
<stop offset="4.1024e-07" stop-color="#7175B7"/>
<stop offset="0.0934" stop-color="#6E71B3"/>
<stop offset="0.6815" stop-color="#5B5CA0"/>
<stop offset="1" stop-color="#54549A"/>
</linearGradient>
<clipPath id="clip0_1_632">
<rect width="55.7222" height="59" fill="white" transform="translate(4.72217)"/>
</clipPath>
</defs>
</svg>
