<svg width="40" height="40" viewBox="0 0 40 40" fill="none" xmlns="http://www.w3.org/2000/svg">
<path d="M35.5556 0C36.7343 0 37.8648 0.468252 38.6983 1.30175C39.5317 2.13524 40 3.2657 40 4.44444V35.5556C40 36.7343 39.5317 37.8648 38.6983 38.6983C37.8648 39.5317 36.7343 40 35.5556 40H4.44444C3.2657 40 2.13524 39.5317 1.30175 38.6983C0.468252 37.8648 0 36.7343 0 35.5556V4.44444C0 3.2657 0.468252 2.13524 1.30175 1.30175C2.13524 0.468252 3.2657 0 4.44444 0H35.5556ZM34.4444 34.4444V22.6667C34.4444 20.7453 33.6812 18.9027 32.3226 17.5441C30.964 16.1855 29.1213 15.4222 27.2 15.4222C25.3111 15.4222 23.1111 16.5778 22.0444 18.3111V15.8444H15.8444V34.4444H22.0444V23.4889C22.0444 21.7778 23.4222 20.3778 25.1333 20.3778C25.9585 20.3778 26.7498 20.7056 27.3332 21.289C27.9167 21.8724 28.2444 22.6638 28.2444 23.4889V34.4444H34.4444ZM8.62222 12.3556C9.61236 12.3556 10.562 11.9622 11.2621 11.2621C11.9622 10.562 12.3556 9.61236 12.3556 8.62222C12.3556 6.55556 10.6889 4.86667 8.62222 4.86667C7.62619 4.86667 6.67095 5.26234 5.96664 5.96664C5.26234 6.67095 4.86667 7.62619 4.86667 8.62222C4.86667 10.6889 6.55556 12.3556 8.62222 12.3556ZM11.7111 34.4444V15.8444H5.55556V34.4444H11.7111Z" fill="#9CA3AF"/>
</svg>
